<?xml version="1.0" encoding="UTF-8"?>
<svg xmlns="http://www.w3.org/2000/svg" xmlns:xlink="http://www.w3.org/1999/xlink" width="416pt" height="125pt" viewBox="0 0 416 125" version="1.1">
<g id="surface1">
<path style="fill:none;stroke-width:1;stroke-linecap:round;stroke-linejoin:round;stroke:rgb(0%,0%,0%);stroke-opacity:1;stroke-miterlimit:10;" d="M 652.190625 334.15625 L 652.171875 330.50625 " transform="matrix(1.25,0,0,1.25,-615,-312.5)"/>
<path style="fill:none;stroke-width:1;stroke-linecap:butt;stroke-linejoin:miter;stroke:rgb(0%,0%,0%);stroke-opacity:1;stroke-miterlimit:10;" d="M 652.14375 326.50625 L 652.171875 330.50625 M 650.671875 330.515625 L 652.14375 326.50625 L 653.671875 330.496875 " transform="matrix(1.25,0,0,1.25,-615,-312.5)"/>
<path style="fill:none;stroke-width:1;stroke-linecap:round;stroke-linejoin:round;stroke:rgb(0%,0%,0%);stroke-opacity:1;stroke-miterlimit:10;" d="M 593.28125 315 L 634.75625 315 " transform="matrix(1.25,0,0,1.25,-615,-312.5)"/>
<path style="fill:none;stroke-width:1;stroke-linecap:butt;stroke-linejoin:miter;stroke:rgb(0%,0%,0%);stroke-opacity:1;stroke-miterlimit:10;" d="M 638.75625 315 L 634.75625 315 M 634.75625 313.5 L 638.75625 315 L 634.75625 316.5 " transform="matrix(1.25,0,0,1.25,-615,-312.5)"/>
<path style="fill-rule:nonzero;fill:rgb(69.803922%,85.098039%,100%);fill-opacity:1;stroke-width:1;stroke-linecap:round;stroke-linejoin:round;stroke:rgb(0%,0%,0%);stroke-opacity:1;stroke-miterlimit:10;" d="M 495.328125 306 L 519.328125 306 L 519.328125 324 L 495.328125 324 Z M 495.328125 306 " transform="matrix(1.25,0,0,1.25,-615,-312.5)"/>
<path style="fill-rule:nonzero;fill:rgb(69.803922%,85.098039%,100%);fill-opacity:1;stroke-width:1;stroke-linecap:round;stroke-linejoin:round;stroke:rgb(0%,0%,0%);stroke-opacity:1;stroke-miterlimit:10;" d="M 531.475 306 L 555.475 306 L 555.475 324 L 531.475 324 Z M 531.475 306 " transform="matrix(1.25,0,0,1.25,-615,-312.5)"/>
<path style="fill-rule:nonzero;fill:rgb(69.803922%,85.098039%,100%);fill-opacity:1;stroke-width:1;stroke-linecap:round;stroke-linejoin:round;stroke:rgb(0%,0%,0%);stroke-opacity:1;stroke-miterlimit:10;" d="M 569.28125 306 L 593.28125 306 L 593.28125 324 L 569.28125 324 Z M 569.28125 306 " transform="matrix(1.25,0,0,1.25,-615,-312.5)"/>
<path style=" stroke:none;fill-rule:nonzero;fill:rgb(0%,0%,0%);fill-opacity:1;" d="M 8.175781 117.695312 L 8.175781 109.648438 L 9.171875 109.648438 L 9.171875 112.539062 C 9.625 112.007812 10.207031 111.738281 10.910156 111.738281 C 11.339844 111.738281 11.710938 111.824219 12.023438 111.992188 C 12.347656 112.164062 12.574219 112.398438 12.707031 112.695312 C 12.847656 112.996094 12.921875 113.433594 12.921875 114.003906 L 12.921875 117.695312 L 11.945312 117.695312 L 11.945312 114.003906 C 11.945312 113.511719 11.832031 113.152344 11.613281 112.929688 C 11.402344 112.695312 11.105469 112.578125 10.714844 112.578125 C 10.414062 112.578125 10.132812 112.65625 9.875 112.8125 C 9.613281 112.957031 9.429688 113.160156 9.328125 113.417969 C 9.222656 113.679688 9.171875 114.042969 9.171875 114.511719 L 9.171875 117.695312 Z M 8.175781 117.695312 "/>
<path style=" stroke:none;fill-rule:nonzero;fill:rgb(0%,0%,0%);fill-opacity:1;" d="M 18.417969 115.820312 L 19.453125 115.9375 C 19.28125 116.539062 18.972656 117.007812 18.535156 117.34375 C 18.105469 117.671875 17.546875 117.832031 16.875 117.832031 C 16.023438 117.832031 15.351562 117.574219 14.84375 117.050781 C 14.34375 116.519531 14.101562 115.777344 14.101562 114.824219 C 14.101562 113.847656 14.355469 113.09375 14.863281 112.558594 C 15.371094 112.011719 16.023438 111.738281 16.835938 111.738281 C 17.617188 111.738281 18.246094 112.007812 18.730469 112.539062 C 19.222656 113.0625 19.472656 113.804688 19.472656 114.765625 C 19.472656 114.832031 19.472656 114.921875 19.472656 115.039062 L 15.117188 115.039062 C 15.15625 115.679688 15.335938 116.167969 15.664062 116.503906 C 15.984375 116.84375 16.394531 117.011719 16.894531 117.011719 C 17.253906 117.011719 17.5625 116.921875 17.8125 116.738281 C 18.070312 116.542969 18.269531 116.238281 18.417969 115.820312 Z M 15.175781 114.21875 L 18.4375 114.21875 C 18.398438 113.726562 18.269531 113.355469 18.066406 113.105469 C 17.753906 112.730469 17.34375 112.539062 16.835938 112.539062 C 16.375 112.539062 15.996094 112.695312 15.683594 113.007812 C 15.378906 113.308594 15.214844 113.710938 15.175781 114.21875 Z M 15.175781 114.21875 "/>
<path style=" stroke:none;fill-rule:nonzero;fill:rgb(0%,0%,0%);fill-opacity:1;" d="M 20.671875 117.695312 L 20.671875 109.648438 L 21.648438 109.648438 L 21.648438 117.695312 Z M 20.671875 117.695312 "/>
<path style=" stroke:none;fill-rule:nonzero;fill:rgb(0%,0%,0%);fill-opacity:1;" d="M 23.171875 117.695312 L 23.171875 109.648438 L 24.148438 109.648438 L 24.148438 117.695312 Z M 23.171875 117.695312 "/>
<path style=" stroke:none;fill-rule:nonzero;fill:rgb(0%,0%,0%);fill-opacity:1;" d="M 25.320312 114.785156 C 25.320312 113.707031 25.617188 112.90625 26.21875 112.382812 C 26.726562 111.953125 27.335938 111.738281 28.054688 111.738281 C 28.859375 111.738281 29.519531 112 30.027344 112.519531 C 30.535156 113.042969 30.789062 113.765625 30.789062 114.6875 C 30.789062 115.445312 30.671875 116.035156 30.4375 116.464844 C 30.210938 116.894531 29.890625 117.234375 29.460938 117.480469 C 29.03125 117.714844 28.5625 117.832031 28.054688 117.832031 C 27.234375 117.832031 26.570312 117.574219 26.0625 117.050781 C 25.5625 116.519531 25.320312 115.761719 25.320312 114.785156 Z M 26.335938 114.785156 C 26.335938 115.527344 26.496094 116.089844 26.824219 116.464844 C 27.144531 116.832031 27.554688 117.011719 28.054688 117.011719 C 28.546875 117.011719 28.957031 116.832031 29.285156 116.464844 C 29.605469 116.089844 29.773438 115.515625 29.773438 114.746094 C 29.773438 114.03125 29.605469 113.484375 29.285156 113.105469 C 28.957031 112.730469 28.546875 112.539062 28.054688 112.539062 C 27.554688 112.539062 27.144531 112.730469 26.824219 113.105469 C 26.496094 113.472656 26.335938 114.03125 26.335938 114.785156 Z M 26.335938 114.785156 "/>
<path style=" stroke:none;fill-rule:nonzero;fill:rgb(0%,0%,0%);fill-opacity:1;" d="M 52.875 117.695312 L 51.097656 111.855469 L 52.113281 111.855469 L 53.050781 115.234375 L 53.382812 116.484375 C 53.394531 116.421875 53.5 116.015625 53.695312 115.273438 L 54.613281 111.855469 L 55.628906 111.855469 L 56.507812 115.253906 L 56.800781 116.367188 L 57.132812 115.234375 L 58.128906 111.855469 L 59.085938 111.855469 L 57.269531 117.695312 L 56.253906 117.695312 L 55.316406 114.199219 L 55.082031 113.203125 L 53.910156 117.695312 Z M 52.875 117.695312 "/>
<path style=" stroke:none;fill-rule:nonzero;fill:rgb(0%,0%,0%);fill-opacity:1;" d="M 59.554688 114.785156 C 59.554688 113.707031 59.851562 112.90625 60.453125 112.382812 C 60.960938 111.953125 61.570312 111.738281 62.289062 111.738281 C 63.09375 111.738281 63.753906 112 64.261719 112.519531 C 64.769531 113.042969 65.023438 113.765625 65.023438 114.6875 C 65.023438 115.445312 64.90625 116.035156 64.671875 116.464844 C 64.449219 116.894531 64.125 117.234375 63.695312 117.480469 C 63.265625 117.714844 62.796875 117.832031 62.289062 117.832031 C 61.46875 117.832031 60.804688 117.574219 60.296875 117.050781 C 59.800781 116.519531 59.554688 115.761719 59.554688 114.785156 Z M 60.570312 114.785156 C 60.570312 115.527344 60.730469 116.089844 61.058594 116.464844 C 61.382812 116.832031 61.792969 117.011719 62.289062 117.011719 C 62.78125 117.011719 63.191406 116.832031 63.519531 116.464844 C 63.84375 116.089844 64.007812 115.515625 64.007812 114.746094 C 64.007812 114.03125 63.84375 113.484375 63.519531 113.105469 C 63.191406 112.730469 62.78125 112.539062 62.289062 112.539062 C 61.792969 112.539062 61.382812 112.730469 61.058594 113.105469 C 60.730469 113.472656 60.570312 114.03125 60.570312 114.785156 Z M 60.570312 114.785156 "/>
<path style=" stroke:none;fill-rule:nonzero;fill:rgb(0%,0%,0%);fill-opacity:1;" d="M 66.164062 117.695312 L 66.164062 111.855469 L 67.0625 111.855469 L 67.0625 112.753906 C 67.28125 112.339844 67.492188 112.066406 67.6875 111.933594 C 67.882812 111.804688 68.097656 111.738281 68.332031 111.738281 C 68.65625 111.738281 68.996094 111.84375 69.347656 112.050781 L 68.996094 112.96875 C 68.761719 112.828125 68.519531 112.753906 68.273438 112.753906 C 68.0625 112.753906 67.867188 112.820312 67.6875 112.949219 C 67.515625 113.082031 67.394531 113.261719 67.316406 113.496094 C 67.210938 113.847656 67.160156 114.234375 67.160156 114.648438 L 67.160156 117.695312 Z M 66.164062 117.695312 "/>
<path style=" stroke:none;fill-rule:nonzero;fill:rgb(0%,0%,0%);fill-opacity:1;" d="M 69.910156 117.695312 L 69.910156 109.648438 L 70.886719 109.648438 L 70.886719 117.695312 Z M 69.910156 117.695312 "/>
<path style=" stroke:none;fill-rule:nonzero;fill:rgb(0%,0%,0%);fill-opacity:1;" d="M 76.21875 117.695312 L 76.21875 116.953125 C 75.839844 117.539062 75.292969 117.832031 74.578125 117.832031 C 74.121094 117.832031 73.699219 117.699219 73.308594 117.441406 C 72.917969 117.183594 72.609375 116.824219 72.390625 116.367188 C 72.179688 115.914062 72.078125 115.386719 72.078125 114.785156 C 72.078125 114.199219 72.175781 113.671875 72.371094 113.203125 C 72.566406 112.722656 72.851562 112.359375 73.230469 112.109375 C 73.621094 111.863281 74.054688 111.738281 74.539062 111.738281 C 74.890625 111.738281 75.203125 111.8125 75.476562 111.953125 C 75.75 112.097656 75.96875 112.292969 76.140625 112.539062 L 76.140625 109.648438 L 77.136719 109.648438 L 77.136719 117.695312 Z M 73.09375 114.785156 C 73.09375 115.527344 73.25 116.089844 73.5625 116.464844 C 73.875 116.832031 74.246094 117.011719 74.675781 117.011719 C 75.105469 117.011719 75.46875 116.835938 75.769531 116.484375 C 76.082031 116.132812 76.238281 115.59375 76.238281 114.863281 C 76.238281 114.070312 76.082031 113.484375 75.769531 113.105469 C 75.457031 112.730469 75.078125 112.539062 74.636719 112.539062 C 74.191406 112.539062 73.820312 112.722656 73.523438 113.085938 C 73.234375 113.453125 73.09375 114.019531 73.09375 114.785156 Z M 73.09375 114.785156 "/>
<path style=" stroke:none;fill-rule:nonzero;fill:rgb(0%,0%,0%);fill-opacity:1;" d="M 111.210938 117.695312 L 111.210938 116.5625 L 112.34375 116.5625 L 112.34375 117.695312 Z M 111.210938 117.695312 "/>
<path style="fill-rule:nonzero;fill:rgb(100%,100%,100%);fill-opacity:1;stroke-width:1;stroke-linecap:round;stroke-linejoin:round;stroke:rgb(0%,0%,0%);stroke-opacity:1;stroke-miterlimit:10;" d="M 640.659375 306 L 664.659375 306 L 664.659375 324 L 640.659375 324 Z M 640.659375 306 " transform="matrix(1.25,0,0,1.25,-615,-312.5)"/>
<path style="fill-rule:nonzero;fill:rgb(100%,100%,100%);fill-opacity:1;stroke-width:1;stroke-linecap:round;stroke-linejoin:round;stroke:rgb(0%,0%,0%);stroke-opacity:1;stroke-miterlimit:10;" d="M 677.6 306 L 701.6 306 L 701.6 324 L 677.6 324 Z M 677.6 306 " transform="matrix(1.25,0,0,1.25,-615,-312.5)"/>
<path style="fill-rule:nonzero;fill:rgb(100%,100%,100%);fill-opacity:1;stroke-width:1;stroke-linecap:round;stroke-linejoin:round;stroke:rgb(0%,0%,0%);stroke-opacity:1;stroke-miterlimit:10;" d="M 715.484375 306 L 739.484375 306 L 739.484375 324 L 715.484375 324 Z M 715.484375 306 " transform="matrix(1.25,0,0,1.25,-615,-312.5)"/>
<path style="fill-rule:nonzero;fill:rgb(100%,100%,100%);fill-opacity:1;stroke-width:1;stroke-linecap:round;stroke-linejoin:round;stroke:rgb(0%,0%,0%);stroke-opacity:1;stroke-miterlimit:10;" d="M 753.4 306 L 777.4 306 L 777.4 324 L 753.4 324 Z M 753.4 306 " transform="matrix(1.25,0,0,1.25,-615,-312.5)"/>
<path style="fill:none;stroke-width:1;stroke-linecap:round;stroke-linejoin:round;stroke:rgb(0%,0%,0%);stroke-opacity:1;stroke-miterlimit:10;" d="M 519.328125 315 L 525.578125 315 " transform="matrix(1.25,0,0,1.25,-615,-312.5)"/>
<path style="fill:none;stroke-width:1;stroke-linecap:butt;stroke-linejoin:miter;stroke:rgb(0%,0%,0%);stroke-opacity:1;stroke-miterlimit:10;" d="M 529.578125 315 L 525.578125 315 M 525.578125 313.5 L 529.578125 315 L 525.578125 316.5 " transform="matrix(1.25,0,0,1.25,-615,-312.5)"/>
<path style="fill:none;stroke-width:1;stroke-linecap:round;stroke-linejoin:round;stroke:rgb(0%,0%,0%);stroke-opacity:1;stroke-miterlimit:10;" d="M 555.475 315 L 563.38125 315 " transform="matrix(1.25,0,0,1.25,-615,-312.5)"/>
<path style="fill:none;stroke-width:1;stroke-linecap:butt;stroke-linejoin:miter;stroke:rgb(0%,0%,0%);stroke-opacity:1;stroke-miterlimit:10;" d="M 567.38125 315 L 563.38125 315 M 563.38125 313.5 L 567.38125 315 L 563.38125 316.5 " transform="matrix(1.25,0,0,1.25,-615,-312.5)"/>
<path style="fill:none;stroke-width:1;stroke-linecap:round;stroke-linejoin:round;stroke:rgb(0%,0%,0%);stroke-opacity:1;stroke-miterlimit:10;" d="M 507.41875 334.15625 L 507.4 329.9 " transform="matrix(1.25,0,0,1.25,-615,-312.5)"/>
<path style="fill:none;stroke-width:1;stroke-linecap:butt;stroke-linejoin:miter;stroke:rgb(0%,0%,0%);stroke-opacity:1;stroke-miterlimit:10;" d="M 507.378125 325.9 L 507.4 329.9 M 505.9 329.90625 L 507.378125 325.9 L 508.9 329.89375 " transform="matrix(1.25,0,0,1.25,-615,-312.5)"/>
<path style="fill:none;stroke-width:1;stroke-linecap:round;stroke-linejoin:round;stroke:rgb(0%,0%,0%);stroke-opacity:1;stroke-miterlimit:10;" d="M 543.565625 334.15625 L 543.546875 329.9 " transform="matrix(1.25,0,0,1.25,-615,-312.5)"/>
<path style="fill:none;stroke-width:1;stroke-linecap:butt;stroke-linejoin:miter;stroke:rgb(0%,0%,0%);stroke-opacity:1;stroke-miterlimit:10;" d="M 543.528125 325.9 L 543.546875 329.9 M 542.046875 329.90625 L 543.528125 325.9 L 545.046875 329.89375 " transform="matrix(1.25,0,0,1.25,-615,-312.5)"/>
<path style="fill:none;stroke-width:1;stroke-linecap:round;stroke-linejoin:round;stroke:rgb(0%,0%,0%);stroke-opacity:1;stroke-miterlimit:10;" d="M 581.371875 334.15625 L 581.35 329.9 " transform="matrix(1.25,0,0,1.25,-615,-312.5)"/>
<path style="fill:none;stroke-width:1;stroke-linecap:butt;stroke-linejoin:miter;stroke:rgb(0%,0%,0%);stroke-opacity:1;stroke-miterlimit:10;" d="M 581.33125 325.9 L 581.35 329.9 M 579.85 329.90625 L 581.33125 325.9 L 582.85 329.89375 " transform="matrix(1.25,0,0,1.25,-615,-312.5)"/>
<path style="fill:none;stroke-width:1;stroke-linecap:round;stroke-linejoin:round;stroke:rgb(0%,0%,0%);stroke-opacity:1;stroke-miterlimit:10;" d="M 701.6 315 L 709.5875 315 " transform="matrix(1.25,0,0,1.25,-615,-312.5)"/>
<path style="fill:none;stroke-width:1;stroke-linecap:butt;stroke-linejoin:miter;stroke:rgb(0%,0%,0%);stroke-opacity:1;stroke-miterlimit:10;" d="M 713.5875 315 L 709.5875 315 M 709.5875 313.5 L 713.5875 315 L 709.5875 316.5 " transform="matrix(1.25,0,0,1.25,-615,-312.5)"/>
<path style=" stroke:none;fill-rule:nonzero;fill:rgb(0%,0%,0%);fill-opacity:1;" d="M 183.191406 51.054688 L 182.273438 51.054688 L 182.273438 43.007812 L 183.25 43.007812 L 183.25 45.878906 C 183.667969 45.363281 184.199219 45.097656 184.851562 45.097656 C 185.214844 45.097656 185.554688 45.171875 185.867188 45.3125 C 186.191406 45.460938 186.460938 45.660156 186.667969 45.917969 C 186.875 46.183594 187.039062 46.5 187.15625 46.875 C 187.273438 47.242188 187.332031 47.632812 187.332031 48.046875 C 187.332031 49.054688 187.085938 49.824219 186.589844 50.371094 C 186.09375 50.917969 185.503906 51.191406 184.8125 51.191406 C 184.121094 51.191406 183.582031 50.910156 183.191406 50.332031 Z M 183.171875 48.085938 C 183.171875 48.789062 183.269531 49.296875 183.464844 49.609375 C 183.777344 50.117188 184.195312 50.371094 184.714844 50.371094 C 185.15625 50.371094 185.535156 50.1875 185.847656 49.804688 C 186.160156 49.429688 186.316406 48.867188 186.316406 48.125 C 186.316406 47.375 186.167969 46.8125 185.867188 46.445312 C 185.566406 46.085938 185.203125 45.898438 184.773438 45.898438 C 184.332031 45.898438 183.953125 46.089844 183.640625 46.464844 C 183.328125 46.847656 183.171875 47.382812 183.171875 48.085938 Z M 183.171875 48.085938 "/>
<path style=" stroke:none;fill-rule:nonzero;fill:rgb(0%,0%,0%);fill-opacity:1;" d="M 188.160156 48.144531 C 188.160156 47.066406 188.460938 46.265625 189.058594 45.742188 C 189.566406 45.3125 190.179688 45.097656 190.894531 45.097656 C 191.703125 45.097656 192.359375 45.363281 192.867188 45.878906 C 193.375 46.402344 193.628906 47.125 193.628906 48.046875 C 193.628906 48.804688 193.511719 49.394531 193.277344 49.824219 C 193.054688 50.253906 192.730469 50.597656 192.300781 50.839844 C 191.871094 51.074219 191.402344 51.191406 190.894531 51.191406 C 190.074219 51.191406 189.410156 50.933594 188.902344 50.410156 C 188.40625 49.878906 188.160156 49.121094 188.160156 48.144531 Z M 189.175781 48.144531 C 189.175781 48.886719 189.339844 49.449219 189.664062 49.824219 C 189.988281 50.191406 190.398438 50.371094 190.894531 50.371094 C 191.390625 50.371094 191.800781 50.191406 192.125 49.824219 C 192.449219 49.449219 192.613281 48.878906 192.613281 48.105469 C 192.613281 47.394531 192.449219 46.847656 192.125 46.464844 C 191.800781 46.089844 191.390625 45.898438 190.894531 45.898438 C 190.398438 45.898438 189.988281 46.089844 189.664062 46.464844 C 189.339844 46.832031 189.175781 47.394531 189.175781 48.144531 Z M 189.175781 48.144531 "/>
<path style=" stroke:none;fill-rule:nonzero;fill:rgb(0%,0%,0%);fill-opacity:1;" d="M 194.789062 51.054688 L 194.789062 45.214844 L 195.6875 45.214844 L 195.6875 46.054688 C 196.101562 45.421875 196.722656 45.097656 197.542969 45.097656 C 197.894531 45.097656 198.210938 45.167969 198.5 45.292969 C 198.796875 45.410156 199.019531 45.578125 199.164062 45.78125 C 199.304688 45.976562 199.410156 46.222656 199.476562 46.503906 C 199.515625 46.691406 199.535156 47.007812 199.535156 47.460938 L 199.535156 51.054688 L 198.539062 51.054688 L 198.539062 47.5 C 198.539062 47.101562 198.5 46.796875 198.421875 46.601562 C 198.34375 46.40625 198.207031 46.25 198.011719 46.132812 C 197.816406 46.007812 197.585938 45.9375 197.328125 45.9375 C 196.910156 45.9375 196.546875 46.074219 196.234375 46.347656 C 195.933594 46.613281 195.785156 47.121094 195.785156 47.871094 L 195.785156 51.054688 Z M 194.789062 51.054688 "/>
<path style=" stroke:none;fill-rule:nonzero;fill:rgb(0%,0%,0%);fill-opacity:1;" d="M 201.046875 44.140625 L 201.046875 43.007812 L 202.023438 43.007812 L 202.023438 44.140625 Z M 199.796875 53.320312 L 199.972656 52.480469 C 200.167969 52.53125 200.324219 52.558594 200.441406 52.558594 C 200.648438 52.558594 200.796875 52.484375 200.890625 52.34375 C 200.992188 52.210938 201.046875 51.878906 201.046875 51.347656 L 201.046875 45.214844 L 202.023438 45.214844 L 202.023438 51.367188 C 202.023438 52.082031 201.929688 52.582031 201.75 52.871094 C 201.515625 53.234375 201.117188 53.417969 200.558594 53.417969 C 200.300781 53.417969 200.046875 53.382812 199.796875 53.320312 Z M 199.796875 53.320312 "/>
<path style=" stroke:none;fill-rule:nonzero;fill:rgb(0%,0%,0%);fill-opacity:1;" d="M 203.175781 48.144531 C 203.175781 47.066406 203.472656 46.265625 204.074219 45.742188 C 204.582031 45.3125 205.191406 45.097656 205.910156 45.097656 C 206.714844 45.097656 207.375 45.363281 207.882812 45.878906 C 208.390625 46.402344 208.644531 47.125 208.644531 48.046875 C 208.644531 48.804688 208.527344 49.394531 208.292969 49.824219 C 208.066406 50.253906 207.746094 50.597656 207.316406 50.839844 C 206.886719 51.074219 206.417969 51.191406 205.910156 51.191406 C 205.089844 51.191406 204.425781 50.933594 203.917969 50.410156 C 203.417969 49.878906 203.175781 49.121094 203.175781 48.144531 Z M 204.191406 48.144531 C 204.191406 48.886719 204.351562 49.449219 204.679688 49.824219 C 205 50.191406 205.410156 50.371094 205.910156 50.371094 C 206.402344 50.371094 206.8125 50.191406 207.140625 49.824219 C 207.460938 49.449219 207.628906 48.878906 207.628906 48.105469 C 207.628906 47.394531 207.460938 46.847656 207.140625 46.464844 C 206.8125 46.089844 206.402344 45.898438 205.910156 45.898438 C 205.410156 45.898438 205 46.089844 204.679688 46.464844 C 204.351562 46.832031 204.191406 47.394531 204.191406 48.144531 Z M 204.191406 48.144531 "/>
<path style=" stroke:none;fill-rule:nonzero;fill:rgb(0%,0%,0%);fill-opacity:1;" d="M 213.632812 51.054688 L 213.632812 50.195312 C 213.171875 50.859375 212.558594 51.191406 211.777344 51.191406 C 211.433594 51.191406 211.117188 51.125 210.820312 50.996094 C 210.515625 50.855469 210.292969 50.683594 210.136719 50.488281 C 209.988281 50.292969 209.890625 50.054688 209.84375 49.765625 C 209.804688 49.570312 209.785156 49.257812 209.785156 48.828125 L 209.785156 45.214844 L 210.761719 45.214844 L 210.761719 48.457031 C 210.761719 48.980469 210.785156 49.328125 210.839844 49.492188 C 210.886719 49.757812 211.015625 49.960938 211.210938 50.117188 C 211.414062 50.265625 211.667969 50.332031 211.972656 50.332031 C 212.269531 50.332031 212.546875 50.265625 212.8125 50.117188 C 213.070312 49.960938 213.25 49.757812 213.359375 49.492188 C 213.460938 49.234375 213.515625 48.847656 213.515625 48.339844 L 213.515625 45.214844 L 214.511719 45.214844 L 214.511719 51.054688 Z M 213.632812 51.054688 "/>
<path style=" stroke:none;fill-rule:nonzero;fill:rgb(0%,0%,0%);fill-opacity:1;" d="M 216.042969 51.054688 L 216.042969 45.214844 L 216.941406 45.214844 L 216.941406 46.113281 C 217.160156 45.699219 217.371094 45.425781 217.566406 45.292969 C 217.761719 45.167969 217.976562 45.097656 218.210938 45.097656 C 218.53125 45.097656 218.875 45.207031 219.226562 45.410156 L 218.875 46.328125 C 218.640625 46.1875 218.394531 46.113281 218.152344 46.113281 C 217.941406 46.113281 217.746094 46.183594 217.566406 46.308594 C 217.394531 46.441406 217.273438 46.621094 217.195312 46.855469 C 217.085938 47.207031 217.039062 47.59375 217.039062 48.007812 L 217.039062 51.054688 Z M 216.042969 51.054688 "/>
<path style=" stroke:none;fill-rule:nonzero;fill:rgb(0%,0%,0%);fill-opacity:1;" d="M 243.148438 51.25 L 243.148438 43.203125 L 244.125 43.203125 L 244.125 51.25 Z M 243.148438 51.25 "/>
<path style=" stroke:none;fill-rule:nonzero;fill:rgb(0%,0%,0%);fill-opacity:1;" d="M 249.652344 49.375 L 250.6875 49.492188 C 250.515625 50.09375 250.210938 50.5625 249.769531 50.898438 C 249.339844 51.226562 248.785156 51.386719 248.109375 51.386719 C 247.261719 51.386719 246.585938 51.128906 246.078125 50.605469 C 245.582031 50.074219 245.335938 49.332031 245.335938 48.378906 C 245.335938 47.402344 245.589844 46.648438 246.097656 46.113281 C 246.605469 45.566406 247.261719 45.292969 248.070312 45.292969 C 248.851562 45.292969 249.480469 45.5625 249.964844 46.09375 C 250.457031 46.617188 250.707031 47.359375 250.707031 48.320312 C 250.707031 48.390625 250.707031 48.476562 250.707031 48.59375 L 246.351562 48.59375 C 246.390625 49.234375 246.570312 49.722656 246.898438 50.058594 C 247.222656 50.398438 247.632812 50.566406 248.128906 50.566406 C 248.492188 50.566406 248.796875 50.476562 249.046875 50.292969 C 249.304688 50.097656 249.507812 49.796875 249.652344 49.375 Z M 246.410156 47.773438 L 249.671875 47.773438 C 249.632812 47.28125 249.507812 46.910156 249.300781 46.660156 C 248.988281 46.285156 248.578125 46.09375 248.070312 46.09375 C 247.613281 46.09375 247.230469 46.25 246.917969 46.5625 C 246.617188 46.867188 246.449219 47.265625 246.410156 47.773438 Z M 246.410156 47.773438 "/>
<path style=" stroke:none;fill-rule:nonzero;fill:rgb(0%,0%,0%);fill-opacity:1;" d="M 277.742188 51.625 L 277.742188 45.785156 L 278.621094 45.785156 L 278.621094 46.605469 C 278.800781 46.320312 279.039062 46.09375 279.34375 45.921875 C 279.65625 45.757812 280.007812 45.667969 280.398438 45.667969 C 280.828125 45.667969 281.179688 45.761719 281.453125 45.941406 C 281.726562 46.113281 281.921875 46.359375 282.039062 46.683594 C 282.507812 46.007812 283.101562 45.667969 283.835938 45.667969 C 284.421875 45.667969 284.871094 45.835938 285.183594 46.15625 C 285.496094 46.46875 285.652344 46.957031 285.652344 47.621094 L 285.652344 51.625 L 284.65625 51.625 L 284.65625 47.953125 C 284.65625 47.554688 284.621094 47.265625 284.558594 47.09375 C 284.503906 46.929688 284.390625 46.789062 284.226562 46.683594 C 284.054688 46.566406 283.855469 46.507812 283.621094 46.507812 C 283.214844 46.507812 282.878906 46.644531 282.605469 46.917969 C 282.332031 47.191406 282.195312 47.632812 282.195312 48.226562 L 282.195312 51.625 L 281.199219 51.625 L 281.199219 47.835938 C 281.199219 47.398438 281.121094 47.0625 280.964844 46.839844 C 280.808594 46.621094 280.546875 46.507812 280.183594 46.507812 C 279.894531 46.507812 279.636719 46.585938 279.402344 46.742188 C 279.167969 46.890625 278.996094 47.101562 278.894531 47.386719 C 278.789062 47.660156 278.738281 48.066406 278.738281 48.597656 L 278.738281 51.625 Z M 277.742188 51.625 "/>
<path style=" stroke:none;fill-rule:nonzero;fill:rgb(0%,0%,0%);fill-opacity:1;" d="M 286.742188 48.714844 C 286.742188 47.636719 287.039062 46.835938 287.640625 46.3125 C 288.148438 45.882812 288.757812 45.667969 289.476562 45.667969 C 290.28125 45.667969 290.941406 45.929688 291.449219 46.449219 C 291.957031 46.972656 292.210938 47.695312 292.210938 48.617188 C 292.210938 49.375 292.09375 49.964844 291.859375 50.394531 C 291.636719 50.824219 291.3125 51.164062 290.882812 51.410156 C 290.453125 51.644531 289.984375 51.761719 289.476562 51.761719 C 288.65625 51.761719 287.992188 51.503906 287.484375 50.980469 C 286.988281 50.449219 286.742188 49.691406 286.742188 48.714844 Z M 287.757812 48.714844 C 287.757812 49.457031 287.917969 50.019531 288.246094 50.394531 C 288.570312 50.761719 288.980469 50.941406 289.476562 50.941406 C 289.96875 50.941406 290.378906 50.761719 290.707031 50.394531 C 291.03125 50.019531 291.195312 49.445312 291.195312 48.675781 C 291.195312 47.960938 291.03125 47.414062 290.707031 47.035156 C 290.378906 46.660156 289.96875 46.46875 289.476562 46.46875 C 288.980469 46.46875 288.570312 46.660156 288.246094 47.035156 C 287.917969 47.402344 287.757812 47.960938 287.757812 48.714844 Z M 287.757812 48.714844 "/>
<path style=" stroke:none;fill-rule:nonzero;fill:rgb(0%,0%,0%);fill-opacity:1;" d="M 293.371094 51.625 L 293.371094 45.785156 L 294.269531 45.785156 L 294.269531 46.625 C 294.683594 45.992188 295.304688 45.667969 296.125 45.667969 C 296.476562 45.667969 296.792969 45.734375 297.082031 45.863281 C 297.378906 45.980469 297.597656 46.148438 297.746094 46.351562 C 297.886719 46.546875 297.988281 46.789062 298.058594 47.074219 C 298.097656 47.257812 298.117188 47.578125 298.117188 48.03125 L 298.117188 51.625 L 297.121094 51.625 L 297.121094 48.070312 C 297.121094 47.671875 297.082031 47.367188 297.003906 47.171875 C 296.925781 46.976562 296.789062 46.820312 296.59375 46.703125 C 296.398438 46.578125 296.167969 46.507812 295.910156 46.507812 C 295.488281 46.507812 295.128906 46.644531 294.816406 46.917969 C 294.511719 47.179688 294.367188 47.6875 294.367188 48.441406 L 294.367188 51.625 Z M 293.371094 51.625 "/>
<path style=" stroke:none;fill-rule:nonzero;fill:rgb(0%,0%,0%);fill-opacity:1;" d="M 303.417969 51.625 L 303.417969 50.882812 C 303.035156 51.46875 302.488281 51.761719 301.777344 51.761719 C 301.316406 51.761719 300.898438 51.628906 300.507812 51.371094 C 300.117188 51.113281 299.808594 50.757812 299.589844 50.296875 C 299.378906 49.84375 299.277344 49.316406 299.277344 48.714844 C 299.277344 48.128906 299.375 47.601562 299.570312 47.132812 C 299.765625 46.65625 300.046875 46.289062 300.429688 46.039062 C 300.820312 45.796875 301.253906 45.667969 301.738281 45.667969 C 302.089844 45.667969 302.402344 45.742188 302.675781 45.882812 C 302.949219 46.03125 303.167969 46.226562 303.339844 46.46875 L 303.339844 43.578125 L 304.335938 43.578125 L 304.335938 51.625 Z M 300.292969 48.714844 C 300.292969 49.457031 300.449219 50.019531 300.761719 50.394531 C 301.074219 50.761719 301.445312 50.941406 301.875 50.941406 C 302.304688 50.941406 302.664062 50.765625 302.96875 50.414062 C 303.28125 50.0625 303.4375 49.523438 303.4375 48.792969 C 303.4375 48 303.28125 47.414062 302.96875 47.035156 C 302.65625 46.660156 302.273438 46.46875 301.835938 46.46875 C 301.390625 46.46875 301.019531 46.65625 300.722656 47.015625 C 300.433594 47.382812 300.292969 47.949219 300.292969 48.714844 Z M 300.292969 48.714844 "/>
<path style=" stroke:none;fill-rule:nonzero;fill:rgb(0%,0%,0%);fill-opacity:1;" d="M 309.871094 49.75 L 310.90625 49.867188 C 310.734375 50.46875 310.425781 50.9375 309.988281 51.273438 C 309.558594 51.601562 309 51.761719 308.328125 51.761719 C 307.476562 51.761719 306.804688 51.503906 306.296875 50.980469 C 305.796875 50.449219 305.554688 49.707031 305.554688 48.753906 C 305.554688 47.777344 305.808594 47.023438 306.316406 46.488281 C 306.824219 45.941406 307.476562 45.667969 308.289062 45.667969 C 309.070312 45.667969 309.699219 45.9375 310.183594 46.46875 C 310.675781 46.992188 310.925781 47.734375 310.925781 48.695312 C 310.925781 48.765625 310.925781 48.851562 310.925781 48.96875 L 306.570312 48.96875 C 306.609375 49.609375 306.789062 50.097656 307.117188 50.433594 C 307.4375 50.773438 307.847656 50.941406 308.347656 50.941406 C 308.707031 50.941406 309.015625 50.851562 309.265625 50.667969 C 309.523438 50.472656 309.722656 50.171875 309.871094 49.75 Z M 306.628906 48.148438 L 309.890625 48.148438 C 309.851562 47.65625 309.722656 47.285156 309.519531 47.035156 C 309.207031 46.660156 308.796875 46.46875 308.289062 46.46875 C 307.828125 46.46875 307.449219 46.625 307.136719 46.9375 C 306.832031 47.242188 306.667969 47.640625 306.628906 48.148438 Z M 306.628906 48.148438 "/>
<path style=" stroke:none;fill-rule:nonzero;fill:rgb(0%,0%,0%);fill-opacity:1;" d="M 341.203125 51 L 341.203125 49.867188 L 342.335938 49.867188 L 342.335938 51 Z M 341.203125 51 "/>
<path style="fill:none;stroke-width:1;stroke-linecap:round;stroke-linejoin:round;stroke:rgb(0%,0%,0%);stroke-opacity:1;stroke-miterlimit:10;" d="M 652.515625 306 L 652.45 301.74375 " transform="matrix(1.25,0,0,1.25,-615,-312.5)"/>
<path style="fill:none;stroke-width:1;stroke-linecap:butt;stroke-linejoin:miter;stroke:rgb(0%,0%,0%);stroke-opacity:1;stroke-miterlimit:10;" d="M 652.3875 297.746875 L 652.45 301.74375 M 650.95 301.765625 L 652.3875 297.746875 L 653.95 301.71875 " transform="matrix(1.25,0,0,1.25,-615,-312.5)"/>
<path style="fill:none;stroke-width:1;stroke-linecap:round;stroke-linejoin:round;stroke:rgb(0%,0%,0%);stroke-opacity:1;stroke-miterlimit:10;" d="M 689.546875 306 L 689.525 301.9 " transform="matrix(1.25,0,0,1.25,-615,-312.5)"/>
<path style="fill:none;stroke-width:1;stroke-linecap:butt;stroke-linejoin:miter;stroke:rgb(0%,0%,0%);stroke-opacity:1;stroke-miterlimit:10;" d="M 689.5 297.9 L 689.525 301.9 M 688.025 301.909375 L 689.5 297.9 L 691.025 301.890625 " transform="matrix(1.25,0,0,1.25,-615,-312.5)"/>
<path style="fill:none;stroke-width:1;stroke-linecap:round;stroke-linejoin:round;stroke:rgb(0%,0%,0%);stroke-opacity:1;stroke-miterlimit:10;" d="M 727.440625 306 L 727.421875 302.2 " transform="matrix(1.25,0,0,1.25,-615,-312.5)"/>
<path style="fill:none;stroke-width:1;stroke-linecap:butt;stroke-linejoin:miter;stroke:rgb(0%,0%,0%);stroke-opacity:1;stroke-miterlimit:10;" d="M 727.40625 298.2 L 727.421875 302.2 M 725.921875 302.20625 L 727.40625 298.2 L 728.921875 302.190625 " transform="matrix(1.25,0,0,1.25,-615,-312.5)"/>
<path style="fill:none;stroke-width:1;stroke-linecap:round;stroke-linejoin:round;stroke:rgb(0%,0%,0%);stroke-opacity:1;stroke-miterlimit:10;" d="M 765.4 306 L 765.4 301.7 " transform="matrix(1.25,0,0,1.25,-615,-312.5)"/>
<path style="fill:none;stroke-width:1;stroke-linecap:butt;stroke-linejoin:miter;stroke:rgb(0%,0%,0%);stroke-opacity:1;stroke-miterlimit:10;" d="M 765.4 297.7 L 765.4 301.7 M 763.9 301.7 L 765.4 297.7 L 766.9 301.7 " transform="matrix(1.25,0,0,1.25,-615,-312.5)"/>
<path style="fill:none;stroke-width:1;stroke-linecap:round;stroke-linejoin:round;stroke:rgb(0%,0%,0%);stroke-opacity:1;stroke-miterlimit:10;" d="M 664.659375 315 L 671.7 315 " transform="matrix(1.25,0,0,1.25,-615,-312.5)"/>
<path style="fill:none;stroke-width:1;stroke-linecap:butt;stroke-linejoin:miter;stroke:rgb(0%,0%,0%);stroke-opacity:1;stroke-miterlimit:10;" d="M 675.7 315 L 671.7 315 M 671.7 313.5 L 675.7 315 L 671.7 316.5 " transform="matrix(1.25,0,0,1.25,-615,-312.5)"/>
<path style="fill:none;stroke-width:1;stroke-linecap:round;stroke-linejoin:round;stroke:rgb(0%,0%,0%);stroke-opacity:1;stroke-miterlimit:10;" d="M 701.6 315 L 709.5875 315 " transform="matrix(1.25,0,0,1.25,-615,-312.5)"/>
<path style="fill:none;stroke-width:1;stroke-linecap:butt;stroke-linejoin:miter;stroke:rgb(0%,0%,0%);stroke-opacity:1;stroke-miterlimit:10;" d="M 713.5875 315 L 709.5875 315 M 709.5875 313.5 L 713.5875 315 L 709.5875 316.5 " transform="matrix(1.25,0,0,1.25,-615,-312.5)"/>
<path style="fill:none;stroke-width:1;stroke-linecap:round;stroke-linejoin:round;stroke:rgb(0%,0%,0%);stroke-opacity:1;stroke-miterlimit:10;" d="M 739.484375 315 L 747.5 315 " transform="matrix(1.25,0,0,1.25,-615,-312.5)"/>
<path style="fill:none;stroke-width:1;stroke-linecap:butt;stroke-linejoin:miter;stroke:rgb(0%,0%,0%);stroke-opacity:1;stroke-miterlimit:10;" d="M 751.5 315 L 747.5 315 M 747.5 313.5 L 751.5 315 L 747.5 316.5 " transform="matrix(1.25,0,0,1.25,-615,-312.5)"/>
<path style=" stroke:none;fill-rule:nonzero;fill:rgb(0%,0%,0%);fill-opacity:1;" d="M 48.699219 17 L 48.699219 8.953125 L 54.519531 8.953125 L 54.519531 9.890625 L 49.753906 9.890625 L 49.753906 12.371094 L 54.207031 12.371094 L 54.207031 13.308594 L 49.753906 13.308594 L 49.753906 16.042969 L 54.695312 16.042969 L 54.695312 17 Z M 48.699219 17 "/>
<path style=" stroke:none;fill-rule:nonzero;fill:rgb(0%,0%,0%);fill-opacity:1;" d="M 56.046875 17 L 56.046875 11.160156 L 56.945312 11.160156 L 56.945312 12 C 57.359375 11.367188 57.980469 11.042969 58.800781 11.042969 C 59.152344 11.042969 59.46875 11.109375 59.757812 11.238281 C 60.054688 11.355469 60.273438 11.523438 60.421875 11.726562 C 60.5625 11.921875 60.664062 12.164062 60.734375 12.449219 C 60.773438 12.632812 60.792969 12.953125 60.792969 13.40625 L 60.792969 17 L 59.796875 17 L 59.796875 13.445312 C 59.796875 13.046875 59.757812 12.742188 59.679688 12.546875 C 59.601562 12.351562 59.464844 12.195312 59.269531 12.078125 C 59.074219 11.953125 58.84375 11.882812 58.585938 11.882812 C 58.164062 11.882812 57.804688 12.019531 57.492188 12.292969 C 57.1875 12.554688 57.042969 13.0625 57.042969 13.816406 L 57.042969 17 Z M 56.046875 17 "/>
<path style=" stroke:none;fill-rule:nonzero;fill:rgb(0%,0%,0%);fill-opacity:1;" d="M 66.109375 14.871094 L 67.085938 14.988281 C 66.980469 15.667969 66.707031 16.195312 66.265625 16.570312 C 65.824219 16.953125 65.28125 17.136719 64.644531 17.136719 C 63.851562 17.136719 63.210938 16.878906 62.730469 16.355469 C 62.25 15.835938 62.007812 15.085938 62.007812 14.109375 C 62.007812 13.476562 62.113281 12.917969 62.320312 12.449219 C 62.527344 11.980469 62.839844 11.628906 63.257812 11.394531 C 63.6875 11.160156 64.15625 11.042969 64.664062 11.042969 C 65.289062 11.042969 65.804688 11.210938 66.207031 11.53125 C 66.609375 11.84375 66.871094 12.292969 66.988281 12.878906 L 66.03125 13.035156 C 65.941406 12.644531 65.777344 12.351562 65.542969 12.15625 C 65.308594 11.953125 65.027344 11.84375 64.703125 11.84375 C 64.195312 11.84375 63.785156 12.03125 63.472656 12.390625 C 63.171875 12.742188 63.023438 13.304688 63.023438 14.070312 C 63.023438 14.867188 63.171875 15.4375 63.472656 15.789062 C 63.773438 16.140625 64.164062 16.316406 64.644531 16.316406 C 65.035156 16.316406 65.359375 16.199219 65.621094 15.964844 C 65.882812 15.730469 66.042969 15.367188 66.109375 14.871094 Z M 66.109375 14.871094 "/>
<path style=" stroke:none;fill-rule:nonzero;fill:rgb(0%,0%,0%);fill-opacity:1;" d="M 67.554688 14.089844 C 67.554688 13.011719 67.855469 12.210938 68.453125 11.6875 C 68.960938 11.257812 69.574219 11.042969 70.289062 11.042969 C 71.097656 11.042969 71.753906 11.304688 72.261719 11.824219 C 72.769531 12.347656 73.023438 13.070312 73.023438 13.992188 C 73.023438 14.75 72.90625 15.339844 72.671875 15.769531 C 72.449219 16.199219 72.125 16.539062 71.695312 16.785156 C 71.265625 17.019531 70.796875 17.136719 70.289062 17.136719 C 69.46875 17.136719 68.804688 16.878906 68.296875 16.355469 C 67.800781 15.824219 67.554688 15.066406 67.554688 14.089844 Z M 68.570312 14.089844 C 68.570312 14.832031 68.734375 15.394531 69.058594 15.769531 C 69.382812 16.136719 69.792969 16.316406 70.289062 16.316406 C 70.785156 16.316406 71.195312 16.136719 71.519531 15.769531 C 71.84375 15.394531 72.007812 14.820312 72.007812 14.050781 C 72.007812 13.335938 71.84375 12.789062 71.519531 12.410156 C 71.195312 12.035156 70.785156 11.84375 70.289062 11.84375 C 69.792969 11.84375 69.382812 12.035156 69.058594 12.410156 C 68.734375 12.777344 68.570312 13.335938 68.570312 14.089844 Z M 68.570312 14.089844 "/>
<path style=" stroke:none;fill-rule:nonzero;fill:rgb(0%,0%,0%);fill-opacity:1;" d="M 77.972656 17 L 77.972656 16.257812 C 77.59375 16.84375 77.046875 17.136719 76.332031 17.136719 C 75.875 17.136719 75.453125 17.003906 75.0625 16.746094 C 74.671875 16.488281 74.363281 16.132812 74.144531 15.671875 C 73.933594 15.21875 73.832031 14.691406 73.832031 14.089844 C 73.832031 13.503906 73.929688 12.976562 74.125 12.507812 C 74.320312 12.03125 74.605469 11.664062 74.984375 11.414062 C 75.375 11.171875 75.808594 11.042969 76.292969 11.042969 C 76.644531 11.042969 76.957031 11.117188 77.230469 11.257812 C 77.503906 11.40625 77.722656 11.601562 77.894531 11.84375 L 77.894531 8.953125 L 78.890625 8.953125 L 78.890625 17 Z M 74.847656 14.089844 C 74.847656 14.832031 75.003906 15.394531 75.316406 15.769531 C 75.628906 16.136719 76 16.316406 76.429688 16.316406 C 76.859375 16.316406 77.222656 16.140625 77.523438 15.789062 C 77.835938 15.4375 77.992188 14.898438 77.992188 14.167969 C 77.992188 13.375 77.835938 12.789062 77.523438 12.410156 C 77.210938 12.035156 76.832031 11.84375 76.390625 11.84375 C 75.945312 11.84375 75.574219 12.03125 75.277344 12.390625 C 74.988281 12.757812 74.847656 13.324219 74.847656 14.089844 Z M 74.847656 14.089844 "/>
<path style=" stroke:none;fill-rule:nonzero;fill:rgb(0%,0%,0%);fill-opacity:1;" d="M 84.425781 15.125 L 85.460938 15.242188 C 85.289062 15.84375 84.984375 16.3125 84.542969 16.648438 C 84.113281 16.976562 83.558594 17.136719 82.882812 17.136719 C 82.035156 17.136719 81.359375 16.878906 80.851562 16.355469 C 80.355469 15.824219 80.109375 15.082031 80.109375 14.128906 C 80.109375 13.152344 80.363281 12.398438 80.871094 11.863281 C 81.378906 11.316406 82.035156 11.042969 82.84375 11.042969 C 83.625 11.042969 84.253906 11.3125 84.738281 11.84375 C 85.230469 12.367188 85.480469 13.109375 85.480469 14.070312 C 85.480469 14.140625 85.480469 14.226562 85.480469 14.34375 L 81.125 14.34375 C 81.164062 14.984375 81.34375 15.472656 81.671875 15.808594 C 81.996094 16.148438 82.40625 16.316406 82.902344 16.316406 C 83.265625 16.316406 83.570312 16.226562 83.820312 16.042969 C 84.078125 15.847656 84.28125 15.546875 84.425781 15.125 Z M 81.183594 13.523438 L 84.445312 13.523438 C 84.40625 13.03125 84.28125 12.660156 84.074219 12.410156 C 83.761719 12.035156 83.351562 11.84375 82.84375 11.84375 C 82.386719 11.84375 82.003906 12 81.691406 12.3125 C 81.390625 12.617188 81.222656 13.015625 81.183594 13.523438 Z M 81.183594 13.523438 "/>
<path style=" stroke:none;fill-rule:nonzero;fill:rgb(0%,0%,0%);fill-opacity:1;" d="M 86.679688 17 L 86.679688 11.160156 L 87.578125 11.160156 L 87.578125 12.058594 C 87.796875 11.644531 88.007812 11.371094 88.203125 11.238281 C 88.398438 11.109375 88.613281 11.042969 88.847656 11.042969 C 89.167969 11.042969 89.511719 11.148438 89.863281 11.355469 L 89.511719 12.273438 C 89.277344 12.132812 89.03125 12.058594 88.789062 12.058594 C 88.578125 12.058594 88.382812 12.125 88.203125 12.253906 C 88.03125 12.386719 87.910156 12.566406 87.832031 12.800781 C 87.722656 13.152344 87.675781 13.539062 87.675781 13.953125 L 87.675781 17 Z M 86.679688 17 "/>
<path style=" stroke:none;fill-rule:nonzero;fill:rgb(0%,0%,0%);fill-opacity:1;" d="M 273.796875 17 L 273.796875 8.953125 L 276.570312 8.953125 C 277.207031 8.953125 277.6875 8.992188 278.015625 9.070312 C 278.46875 9.179688 278.859375 9.363281 279.1875 9.636719 C 279.617188 10.003906 279.933594 10.46875 280.144531 11.023438 C 280.351562 11.570312 280.457031 12.210938 280.457031 12.9375 C 280.457031 13.554688 280.382812 14.089844 280.242188 14.558594 C 280.097656 15.027344 279.914062 15.417969 279.695312 15.730469 C 279.472656 16.042969 279.226562 16.292969 278.953125 16.472656 C 278.691406 16.644531 278.371094 16.773438 277.996094 16.863281 C 277.628906 16.957031 277.199219 17 276.707031 17 Z M 274.871094 16.042969 L 276.589844 16.042969 C 277.121094 16.042969 277.539062 16 277.839844 15.90625 C 278.136719 15.804688 278.378906 15.664062 278.5625 15.476562 C 278.808594 15.234375 279.003906 14.890625 279.148438 14.460938 C 279.289062 14.03125 279.363281 13.519531 279.363281 12.917969 C 279.363281 12.074219 279.226562 11.429688 278.953125 10.984375 C 278.679688 10.53125 278.339844 10.222656 277.9375 10.066406 C 277.648438 9.949219 277.195312 9.890625 276.570312 9.890625 L 274.871094 9.890625 Z M 274.871094 16.042969 "/>
<path style=" stroke:none;fill-rule:nonzero;fill:rgb(0%,0%,0%);fill-opacity:1;" d="M 285.789062 15.125 L 286.824219 15.242188 C 286.652344 15.84375 286.347656 16.3125 285.90625 16.648438 C 285.476562 16.976562 284.921875 17.136719 284.246094 17.136719 C 283.398438 17.136719 282.722656 16.878906 282.214844 16.355469 C 281.71875 15.824219 281.472656 15.082031 281.472656 14.128906 C 281.472656 13.152344 281.726562 12.398438 282.234375 11.863281 C 282.742188 11.316406 283.398438 11.042969 284.207031 11.042969 C 284.988281 11.042969 285.617188 11.3125 286.101562 11.84375 C 286.59375 12.367188 286.84375 13.109375 286.84375 14.070312 C 286.84375 14.140625 286.84375 14.226562 286.84375 14.34375 L 282.488281 14.34375 C 282.527344 14.984375 282.707031 15.472656 283.035156 15.808594 C 283.359375 16.148438 283.769531 16.316406 284.265625 16.316406 C 284.628906 16.316406 284.933594 16.226562 285.183594 16.042969 C 285.441406 15.847656 285.644531 15.546875 285.789062 15.125 Z M 282.546875 13.523438 L 285.808594 13.523438 C 285.769531 13.03125 285.644531 12.660156 285.4375 12.410156 C 285.125 12.035156 284.714844 11.84375 284.207031 11.84375 C 283.75 11.84375 283.367188 12 283.054688 12.3125 C 282.753906 12.617188 282.585938 13.015625 282.546875 13.523438 Z M 282.546875 13.523438 "/>
<path style=" stroke:none;fill-rule:nonzero;fill:rgb(0%,0%,0%);fill-opacity:1;" d="M 291.871094 14.871094 L 292.847656 14.988281 C 292.738281 15.667969 292.464844 16.195312 292.027344 16.570312 C 291.582031 16.953125 291.039062 17.136719 290.40625 17.136719 C 289.609375 17.136719 288.96875 16.878906 288.492188 16.355469 C 288.007812 15.835938 287.769531 15.085938 287.769531 14.109375 C 287.769531 13.476562 287.871094 12.917969 288.082031 12.449219 C 288.285156 11.980469 288.597656 11.628906 289.019531 11.394531 C 289.449219 11.160156 289.917969 11.042969 290.425781 11.042969 C 291.050781 11.042969 291.5625 11.210938 291.96875 11.53125 C 292.367188 11.84375 292.632812 12.292969 292.75 12.878906 L 291.792969 13.035156 C 291.699219 12.644531 291.539062 12.351562 291.304688 12.15625 C 291.070312 11.953125 290.785156 11.84375 290.464844 11.84375 C 289.957031 11.84375 289.546875 12.03125 289.234375 12.390625 C 288.929688 12.742188 288.785156 13.304688 288.785156 14.070312 C 288.785156 14.867188 288.929688 15.4375 289.234375 15.789062 C 289.53125 16.140625 289.921875 16.316406 290.40625 16.316406 C 290.796875 16.316406 291.117188 16.199219 291.382812 15.964844 C 291.640625 15.730469 291.800781 15.367188 291.871094 14.871094 Z M 291.871094 14.871094 "/>
<path style=" stroke:none;fill-rule:nonzero;fill:rgb(0%,0%,0%);fill-opacity:1;" d="M 293.316406 14.089844 C 293.316406 13.011719 293.613281 12.210938 294.214844 11.6875 C 294.722656 11.257812 295.332031 11.042969 296.050781 11.042969 C 296.855469 11.042969 297.515625 11.304688 298.023438 11.824219 C 298.53125 12.347656 298.785156 13.070312 298.785156 13.992188 C 298.785156 14.75 298.667969 15.339844 298.433594 15.769531 C 298.207031 16.199219 297.886719 16.539062 297.457031 16.785156 C 297.027344 17.019531 296.558594 17.136719 296.050781 17.136719 C 295.230469 17.136719 294.566406 16.878906 294.058594 16.355469 C 293.558594 15.824219 293.316406 15.066406 293.316406 14.089844 Z M 294.332031 14.089844 C 294.332031 14.832031 294.492188 15.394531 294.820312 15.769531 C 295.140625 16.136719 295.550781 16.316406 296.050781 16.316406 C 296.542969 16.316406 296.953125 16.136719 297.28125 15.769531 C 297.601562 15.394531 297.769531 14.820312 297.769531 14.050781 C 297.769531 13.335938 297.601562 12.789062 297.28125 12.410156 C 296.953125 12.035156 296.542969 11.84375 296.050781 11.84375 C 295.550781 11.84375 295.140625 12.035156 294.820312 12.410156 C 294.492188 12.777344 294.332031 13.335938 294.332031 14.089844 Z M 294.332031 14.089844 "/>
<path style=" stroke:none;fill-rule:nonzero;fill:rgb(0%,0%,0%);fill-opacity:1;" d="M 303.734375 17 L 303.734375 16.257812 C 303.351562 16.84375 302.804688 17.136719 302.09375 17.136719 C 301.632812 17.136719 301.214844 17.003906 300.824219 16.746094 C 300.433594 16.488281 300.125 16.132812 299.90625 15.671875 C 299.695312 15.21875 299.59375 14.691406 299.59375 14.089844 C 299.59375 13.503906 299.691406 12.976562 299.886719 12.507812 C 300.082031 12.03125 300.363281 11.664062 300.746094 11.414062 C 301.136719 11.171875 301.570312 11.042969 302.054688 11.042969 C 302.40625 11.042969 302.71875 11.117188 302.992188 11.257812 C 303.265625 11.40625 303.484375 11.601562 303.65625 11.84375 L 303.65625 8.953125 L 304.652344 8.953125 L 304.652344 17 Z M 300.609375 14.089844 C 300.609375 14.832031 300.765625 15.394531 301.078125 15.769531 C 301.390625 16.136719 301.761719 16.316406 302.191406 16.316406 C 302.621094 16.316406 302.980469 16.140625 303.285156 15.789062 C 303.597656 15.4375 303.753906 14.898438 303.753906 14.167969 C 303.753906 13.375 303.597656 12.789062 303.285156 12.410156 C 302.972656 12.035156 302.589844 11.84375 302.152344 11.84375 C 301.707031 11.84375 301.335938 12.03125 301.039062 12.390625 C 300.75 12.757812 300.609375 13.324219 300.609375 14.089844 Z M 300.609375 14.089844 "/>
<path style=" stroke:none;fill-rule:nonzero;fill:rgb(0%,0%,0%);fill-opacity:1;" d="M 310.1875 15.125 L 311.222656 15.242188 C 311.050781 15.84375 310.742188 16.3125 310.304688 16.648438 C 309.875 16.976562 309.316406 17.136719 308.644531 17.136719 C 307.792969 17.136719 307.121094 16.878906 306.613281 16.355469 C 306.113281 15.824219 305.871094 15.082031 305.871094 14.128906 C 305.871094 13.152344 306.125 12.398438 306.632812 11.863281 C 307.140625 11.316406 307.792969 11.042969 308.605469 11.042969 C 309.386719 11.042969 310.015625 11.3125 310.5 11.84375 C 310.992188 12.367188 311.242188 13.109375 311.242188 14.070312 C 311.242188 14.140625 311.242188 14.226562 311.242188 14.34375 L 306.886719 14.34375 C 306.925781 14.984375 307.105469 15.472656 307.433594 15.808594 C 307.753906 16.148438 308.164062 16.316406 308.664062 16.316406 C 309.023438 16.316406 309.332031 16.226562 309.582031 16.042969 C 309.839844 15.847656 310.039062 15.546875 310.1875 15.125 Z M 306.945312 13.523438 L 310.207031 13.523438 C 310.167969 13.03125 310.039062 12.660156 309.835938 12.410156 C 309.523438 12.035156 309.113281 11.84375 308.605469 11.84375 C 308.144531 11.84375 307.765625 12 307.453125 12.3125 C 307.148438 12.617188 306.984375 13.015625 306.945312 13.523438 Z M 306.945312 13.523438 "/>
<path style=" stroke:none;fill-rule:nonzero;fill:rgb(0%,0%,0%);fill-opacity:1;" d="M 312.4375 17 L 312.4375 11.160156 L 313.335938 11.160156 L 313.335938 12.058594 C 313.558594 11.644531 313.765625 11.371094 313.960938 11.238281 C 314.15625 11.109375 314.371094 11.042969 314.605469 11.042969 C 314.929688 11.042969 315.269531 11.148438 315.621094 11.355469 L 315.269531 12.273438 C 315.035156 12.132812 314.792969 12.058594 314.546875 12.058594 C 314.339844 12.058594 314.144531 12.125 313.960938 12.253906 C 313.792969 12.386719 313.667969 12.566406 313.589844 12.800781 C 313.484375 13.152344 313.433594 13.539062 313.433594 13.953125 L 313.433594 17 Z M 312.4375 17 "/>
<path style=" stroke:none;fill-rule:nonzero;fill:rgb(0%,0%,0%);fill-opacity:1;" d="M 185.285156 114.179688 L 185.285156 113.242188 L 190.617188 110.996094 L 190.617188 111.972656 L 186.378906 113.710938 L 190.617188 115.46875 L 190.617188 116.445312 Z M 185.285156 114.179688 "/>
<path style=" stroke:none;fill-rule:nonzero;fill:rgb(0%,0%,0%);fill-opacity:1;" d="M 192.890625 117.695312 L 191.972656 117.695312 L 191.972656 109.648438 L 192.949219 109.648438 L 192.949219 112.519531 C 193.363281 112 193.894531 111.738281 194.550781 111.738281 C 194.910156 111.738281 195.253906 111.8125 195.566406 111.953125 C 195.886719 112.097656 196.15625 112.300781 196.367188 112.558594 C 196.570312 112.820312 196.738281 113.140625 196.855469 113.515625 C 196.972656 113.882812 197.03125 114.273438 197.03125 114.6875 C 197.03125 115.691406 196.78125 116.464844 196.289062 117.011719 C 195.789062 117.558594 195.199219 117.832031 194.511719 117.832031 C 193.816406 117.832031 193.28125 117.546875 192.890625 116.972656 Z M 192.871094 114.726562 C 192.871094 115.429688 192.96875 115.9375 193.164062 116.25 C 193.476562 116.757812 193.890625 117.011719 194.414062 117.011719 C 194.851562 117.011719 195.234375 116.824219 195.546875 116.445312 C 195.859375 116.070312 196.015625 115.507812 196.015625 114.765625 C 196.015625 114.011719 195.863281 113.453125 195.566406 113.085938 C 195.261719 112.722656 194.902344 112.539062 194.472656 112.539062 C 194.027344 112.539062 193.652344 112.730469 193.339844 113.105469 C 193.027344 113.484375 192.871094 114.023438 192.871094 114.726562 Z M 192.871094 114.726562 "/>
<path style=" stroke:none;fill-rule:nonzero;fill:rgb(0%,0%,0%);fill-opacity:1;" d="M 197.855469 114.785156 C 197.855469 113.707031 198.15625 112.90625 198.753906 112.382812 C 199.261719 111.953125 199.875 111.738281 200.589844 111.738281 C 201.398438 111.738281 202.054688 112 202.5625 112.519531 C 203.070312 113.042969 203.324219 113.765625 203.324219 114.6875 C 203.324219 115.445312 203.207031 116.035156 202.972656 116.464844 C 202.75 116.894531 202.425781 117.234375 201.996094 117.480469 C 201.566406 117.714844 201.097656 117.832031 200.589844 117.832031 C 199.769531 117.832031 199.105469 117.574219 198.597656 117.050781 C 198.101562 116.519531 197.855469 115.761719 197.855469 114.785156 Z M 198.871094 114.785156 C 198.871094 115.527344 199.035156 116.089844 199.359375 116.464844 C 199.683594 116.832031 200.09375 117.011719 200.589844 117.011719 C 201.085938 117.011719 201.496094 116.832031 201.820312 116.464844 C 202.144531 116.089844 202.308594 115.515625 202.308594 114.746094 C 202.308594 114.03125 202.144531 113.484375 201.820312 113.105469 C 201.496094 112.730469 201.085938 112.539062 200.589844 112.539062 C 200.09375 112.539062 199.683594 112.730469 199.359375 113.105469 C 199.035156 113.472656 198.871094 114.03125 198.871094 114.785156 Z M 198.871094 114.785156 "/>
<path style=" stroke:none;fill-rule:nonzero;fill:rgb(0%,0%,0%);fill-opacity:1;" d="M 204.09375 115.957031 L 205.070312 115.800781 C 205.121094 116.191406 205.269531 116.492188 205.519531 116.699219 C 205.777344 116.910156 206.128906 117.011719 206.574219 117.011719 C 207.027344 117.011719 207.367188 116.921875 207.589844 116.738281 C 207.808594 116.558594 207.921875 116.34375 207.921875 116.09375 C 207.921875 115.859375 207.824219 115.683594 207.628906 115.566406 C 207.484375 115.476562 207.144531 115.359375 206.613281 115.214844 C 205.882812 115.035156 205.375 114.878906 205.089844 114.746094 C 204.816406 114.617188 204.605469 114.433594 204.464844 114.199219 C 204.320312 113.964844 204.25 113.707031 204.25 113.417969 C 204.25 113.160156 204.308594 112.917969 204.425781 112.695312 C 204.542969 112.476562 204.703125 112.285156 204.914062 112.128906 C 205.070312 112.027344 205.277344 111.933594 205.539062 111.855469 C 205.8125 111.777344 206.097656 111.738281 206.398438 111.738281 C 206.851562 111.738281 207.25 111.804688 207.589844 111.933594 C 207.941406 112.066406 208.199219 112.242188 208.371094 112.460938 C 208.539062 112.683594 208.65625 112.984375 208.722656 113.359375 L 207.746094 113.496094 C 207.707031 113.199219 207.574219 112.964844 207.355469 112.792969 C 207.144531 112.625 206.851562 112.539062 206.476562 112.539062 C 206.019531 112.539062 205.695312 112.617188 205.5 112.773438 C 205.304688 112.917969 205.207031 113.09375 205.207031 113.300781 C 205.207031 113.433594 205.246094 113.542969 205.324219 113.632812 C 205.402344 113.75 205.53125 113.84375 205.714844 113.90625 C 205.804688 113.945312 206.089844 114.03125 206.574219 114.160156 C 207.277344 114.34375 207.765625 114.492188 208.039062 114.609375 C 208.324219 114.726562 208.546875 114.902344 208.703125 115.136719 C 208.859375 115.359375 208.9375 115.640625 208.9375 115.976562 C 208.9375 116.316406 208.839844 116.628906 208.644531 116.914062 C 208.449219 117.203125 208.167969 117.429688 207.804688 117.597656 C 207.453125 117.753906 207.042969 117.832031 206.574219 117.832031 C 205.816406 117.832031 205.238281 117.675781 204.835938 117.363281 C 204.445312 117.039062 204.195312 116.570312 204.09375 115.957031 Z M 204.09375 115.957031 "/>
<path style=" stroke:none;fill-rule:nonzero;fill:rgb(0%,0%,0%);fill-opacity:1;" d="M 215.324219 114.179688 L 209.992188 116.445312 L 209.992188 115.46875 L 214.210938 113.710938 L 209.992188 111.972656 L 209.992188 110.996094 L 215.324219 113.242188 Z M 215.324219 114.179688 "/>
<path style="fill-rule:nonzero;fill:rgb(100%,100%,100%);fill-opacity:1;stroke-width:1;stroke-linecap:round;stroke-linejoin:round;stroke:rgb(0%,0%,0%);stroke-opacity:1;stroke-miterlimit:10;" d="M 795.3125 306 L 819.3125 306 L 819.3125 324 L 795.3125 324 Z M 795.3125 306 " transform="matrix(1.25,0,0,1.25,-615,-312.5)"/>
<path style=" stroke:none;fill-rule:nonzero;fill:rgb(0%,0%,0%);fill-opacity:1;" d="M 379.125 46.914062 L 379.125 45.976562 L 384.457031 43.730469 L 384.457031 44.707031 L 380.21875 46.445312 L 384.457031 48.203125 L 384.457031 49.179688 Z M 379.125 46.914062 "/>
<path style=" stroke:none;fill-rule:nonzero;fill:rgb(0%,0%,0%);fill-opacity:1;" d="M 389.796875 48.554688 L 390.832031 48.671875 C 390.660156 49.273438 390.351562 49.742188 389.914062 50.078125 C 389.484375 50.40625 388.925781 50.566406 388.253906 50.566406 C 387.402344 50.566406 386.730469 50.308594 386.222656 49.785156 C 385.722656 49.253906 385.480469 48.511719 385.480469 47.558594 C 385.480469 46.582031 385.734375 45.832031 386.242188 45.292969 C 386.75 44.746094 387.402344 44.472656 388.214844 44.472656 C 388.996094 44.472656 389.625 44.742188 390.109375 45.273438 C 390.601562 45.796875 390.851562 46.539062 390.851562 47.5 C 390.851562 47.570312 390.851562 47.65625 390.851562 47.773438 L 386.496094 47.773438 C 386.535156 48.414062 386.714844 48.902344 387.042969 49.238281 C 387.363281 49.582031 387.773438 49.746094 388.273438 49.746094 C 388.632812 49.746094 388.941406 49.660156 389.191406 49.472656 C 389.449219 49.277344 389.648438 48.976562 389.796875 48.554688 Z M 386.554688 46.953125 L 389.816406 46.953125 C 389.777344 46.460938 389.648438 46.089844 389.445312 45.839844 C 389.132812 45.464844 388.722656 45.273438 388.214844 45.273438 C 387.753906 45.273438 387.375 45.429688 387.0625 45.742188 C 386.757812 46.046875 386.59375 46.445312 386.554688 46.953125 Z M 386.554688 46.953125 "/>
<path style=" stroke:none;fill-rule:nonzero;fill:rgb(0%,0%,0%);fill-opacity:1;" d="M 391.699219 47.519531 C 391.699219 46.441406 391.996094 45.640625 392.597656 45.117188 C 393.105469 44.6875 393.714844 44.472656 394.433594 44.472656 C 395.238281 44.472656 395.898438 44.738281 396.40625 45.253906 C 396.914062 45.777344 397.167969 46.5 397.167969 47.421875 C 397.167969 48.179688 397.050781 48.769531 396.816406 49.199219 C 396.589844 49.628906 396.269531 49.972656 395.839844 50.214844 C 395.410156 50.449219 394.941406 50.566406 394.433594 50.566406 C 393.613281 50.566406 392.949219 50.308594 392.441406 49.785156 C 391.941406 49.253906 391.699219 48.496094 391.699219 47.519531 Z M 392.714844 47.519531 C 392.714844 48.261719 392.875 48.824219 393.203125 49.199219 C 393.523438 49.566406 393.933594 49.746094 394.433594 49.746094 C 394.925781 49.746094 395.335938 49.566406 395.664062 49.199219 C 395.984375 48.824219 396.152344 48.253906 396.152344 47.480469 C 396.152344 46.769531 395.984375 46.222656 395.664062 45.839844 C 395.335938 45.464844 394.925781 45.273438 394.433594 45.273438 C 393.933594 45.273438 393.523438 45.464844 393.203125 45.839844 C 392.875 46.207031 392.714844 46.769531 392.714844 47.519531 Z M 392.714844 47.519531 "/>
<path style=" stroke:none;fill-rule:nonzero;fill:rgb(0%,0%,0%);fill-opacity:1;" d="M 397.9375 48.691406 L 398.914062 48.535156 C 398.960938 48.925781 399.113281 49.230469 399.363281 49.433594 C 399.621094 49.644531 399.972656 49.746094 400.417969 49.746094 C 400.871094 49.746094 401.207031 49.660156 401.433594 49.472656 C 401.652344 49.292969 401.765625 49.078125 401.765625 48.828125 C 401.765625 48.59375 401.667969 48.417969 401.472656 48.300781 C 401.324219 48.214844 400.988281 48.097656 400.457031 47.949219 C 399.722656 47.769531 399.214844 47.613281 398.933594 47.480469 C 398.660156 47.355469 398.449219 47.167969 398.308594 46.933594 C 398.160156 46.699219 398.09375 46.441406 398.09375 46.152344 C 398.09375 45.894531 398.152344 45.65625 398.269531 45.429688 C 398.386719 45.210938 398.546875 45.019531 398.757812 44.863281 C 398.914062 44.761719 399.117188 44.667969 399.382812 44.589844 C 399.65625 44.511719 399.9375 44.472656 400.242188 44.472656 C 400.695312 44.472656 401.089844 44.542969 401.433594 44.667969 C 401.785156 44.800781 402.042969 44.976562 402.214844 45.195312 C 402.378906 45.421875 402.496094 45.71875 402.566406 46.09375 L 401.589844 46.230469 C 401.550781 45.933594 401.417969 45.699219 401.199219 45.527344 C 400.988281 45.363281 400.695312 45.273438 400.320312 45.273438 C 399.859375 45.273438 399.539062 45.351562 399.34375 45.507812 C 399.148438 45.65625 399.050781 45.832031 399.050781 46.035156 C 399.050781 46.167969 399.089844 46.28125 399.167969 46.367188 C 399.246094 46.484375 399.371094 46.578125 399.558594 46.640625 C 399.644531 46.679688 399.933594 46.769531 400.417969 46.894531 C 401.121094 47.082031 401.609375 47.226562 401.882812 47.34375 C 402.164062 47.460938 402.390625 47.636719 402.546875 47.871094 C 402.703125 48.097656 402.78125 48.375 402.78125 48.710938 C 402.78125 49.054688 402.683594 49.367188 402.488281 49.648438 C 402.292969 49.9375 402.007812 50.167969 401.648438 50.332031 C 401.296875 50.488281 400.886719 50.566406 400.417969 50.566406 C 399.660156 50.566406 399.078125 50.410156 398.679688 50.097656 C 398.289062 49.777344 398.039062 49.308594 397.9375 48.691406 Z M 397.9375 48.691406 "/>
<path style=" stroke:none;fill-rule:nonzero;fill:rgb(0%,0%,0%);fill-opacity:1;" d="M 409.167969 46.914062 L 403.835938 49.179688 L 403.835938 48.203125 L 408.054688 46.445312 L 403.835938 44.707031 L 403.835938 43.730469 L 409.167969 45.976562 Z M 409.167969 46.914062 "/>
<path style="fill:none;stroke-width:1;stroke-linecap:round;stroke-linejoin:round;stroke:rgb(0%,0%,0%);stroke-opacity:1;stroke-miterlimit:10;" d="M 807.3125 306 L 807.3125 301.246875 " transform="matrix(1.25,0,0,1.25,-615,-312.5)"/>
<path style="fill:none;stroke-width:1;stroke-linecap:butt;stroke-linejoin:miter;stroke:rgb(0%,0%,0%);stroke-opacity:1;stroke-miterlimit:10;" d="M 807.3125 297.246875 L 807.3125 301.246875 M 805.8125 301.246875 L 807.3125 297.246875 L 808.8125 301.246875 " transform="matrix(1.25,0,0,1.25,-615,-312.5)"/>
<path style="fill:none;stroke-width:1;stroke-linecap:round;stroke-linejoin:round;stroke:rgb(0%,0%,0%);stroke-opacity:1;stroke-miterlimit:10;" d="M 777.4 315 L 789.409375 315 " transform="matrix(1.25,0,0,1.25,-615,-312.5)"/>
<path style="fill:none;stroke-width:1;stroke-linecap:butt;stroke-linejoin:miter;stroke:rgb(0%,0%,0%);stroke-opacity:1;stroke-miterlimit:10;" d="M 793.409375 315 L 789.409375 315 M 789.409375 313.5 L 793.409375 315 L 789.409375 316.5 " transform="matrix(1.25,0,0,1.25,-615,-312.5)"/>
<path style=" stroke:none;fill-rule:nonzero;fill:rgb(0%,0%,0%);fill-opacity:1;" d="M 140.0625 75.492188 L 140.0625 67.445312 L 141.058594 67.445312 L 141.058594 70.335938 C 141.511719 69.804688 142.09375 69.535156 142.796875 69.535156 C 143.226562 69.535156 143.597656 69.625 143.910156 69.789062 C 144.234375 69.960938 144.460938 70.195312 144.59375 70.492188 C 144.734375 70.796875 144.808594 71.230469 144.808594 71.800781 L 144.808594 75.492188 L 143.832031 75.492188 L 143.832031 71.800781 C 143.832031 71.308594 143.71875 70.953125 143.5 70.726562 C 143.289062 70.492188 142.992188 70.375 142.601562 70.375 C 142.300781 70.375 142.019531 70.453125 141.761719 70.609375 C 141.5 70.757812 141.316406 70.957031 141.214844 71.214844 C 141.109375 71.480469 141.058594 71.839844 141.058594 72.308594 L 141.058594 75.492188 Z M 140.0625 75.492188 "/>
<path style=" stroke:none;fill-rule:nonzero;fill:rgb(0%,0%,0%);fill-opacity:1;" d="M 146.320312 68.578125 L 146.320312 67.445312 L 147.316406 67.445312 L 147.316406 68.578125 Z M 146.320312 75.492188 L 146.320312 69.652344 L 147.316406 69.652344 L 147.316406 75.492188 Z M 146.320312 75.492188 "/>
<path style=" stroke:none;fill-rule:nonzero;fill:rgb(0%,0%,0%);fill-opacity:1;" d="M 152.609375 75.492188 L 152.609375 74.75 C 152.226562 75.335938 151.679688 75.628906 150.96875 75.628906 C 150.507812 75.628906 150.089844 75.496094 149.699219 75.238281 C 149.308594 74.980469 149 74.625 148.78125 74.164062 C 148.570312 73.710938 148.46875 73.183594 148.46875 72.582031 C 148.46875 71.996094 148.566406 71.46875 148.761719 71 C 148.957031 70.523438 149.242188 70.15625 149.621094 69.90625 C 150.011719 69.664062 150.445312 69.535156 150.929688 69.535156 C 151.28125 69.535156 151.59375 69.609375 151.867188 69.75 C 152.140625 69.898438 152.359375 70.09375 152.53125 70.335938 L 152.53125 67.445312 L 153.527344 67.445312 L 153.527344 75.492188 Z M 149.484375 72.582031 C 149.484375 73.324219 149.640625 73.886719 149.953125 74.261719 C 150.265625 74.628906 150.636719 74.808594 151.066406 74.808594 C 151.496094 74.808594 151.859375 74.632812 152.160156 74.28125 C 152.472656 73.929688 152.628906 73.394531 152.628906 72.660156 C 152.628906 71.871094 152.472656 71.285156 152.160156 70.902344 C 151.847656 70.527344 151.46875 70.335938 151.027344 70.335938 C 150.582031 70.335938 150.210938 70.523438 149.914062 70.882812 C 149.625 71.25 149.484375 71.816406 149.484375 72.582031 Z M 149.484375 72.582031 "/>
<path style=" stroke:none;fill-rule:nonzero;fill:rgb(0%,0%,0%);fill-opacity:1;" d="M 158.867188 75.492188 L 158.867188 74.75 C 158.484375 75.335938 157.9375 75.628906 157.226562 75.628906 C 156.765625 75.628906 156.347656 75.496094 155.957031 75.238281 C 155.566406 74.980469 155.257812 74.625 155.039062 74.164062 C 154.828125 73.710938 154.726562 73.183594 154.726562 72.582031 C 154.726562 71.996094 154.824219 71.46875 155.019531 71 C 155.214844 70.523438 155.496094 70.15625 155.878906 69.90625 C 156.269531 69.664062 156.703125 69.535156 157.1875 69.535156 C 157.539062 69.535156 157.851562 69.609375 158.125 69.75 C 158.398438 69.898438 158.617188 70.09375 158.789062 70.335938 L 158.789062 67.445312 L 159.785156 67.445312 L 159.785156 75.492188 Z M 155.742188 72.582031 C 155.742188 73.324219 155.898438 73.886719 156.210938 74.261719 C 156.523438 74.628906 156.894531 74.808594 157.324219 74.808594 C 157.753906 74.808594 158.113281 74.632812 158.417969 74.28125 C 158.730469 73.929688 158.886719 73.394531 158.886719 72.660156 C 158.886719 71.871094 158.730469 71.285156 158.417969 70.902344 C 158.105469 70.527344 157.722656 70.335938 157.285156 70.335938 C 156.839844 70.335938 156.46875 70.523438 156.171875 70.882812 C 155.882812 71.25 155.742188 71.816406 155.742188 72.582031 Z M 155.742188 72.582031 "/>
<path style=" stroke:none;fill-rule:nonzero;fill:rgb(0%,0%,0%);fill-opacity:1;" d="M 165.320312 73.617188 L 166.355469 73.734375 C 166.183594 74.335938 165.875 74.804688 165.4375 75.140625 C 165.007812 75.46875 164.449219 75.628906 163.777344 75.628906 C 162.925781 75.628906 162.253906 75.371094 161.746094 74.847656 C 161.246094 74.316406 161.003906 73.574219 161.003906 72.621094 C 161.003906 71.644531 161.257812 70.894531 161.765625 70.355469 C 162.273438 69.808594 162.925781 69.535156 163.738281 69.535156 C 164.519531 69.535156 165.148438 69.804688 165.632812 70.335938 C 166.125 70.859375 166.375 71.601562 166.375 72.5625 C 166.375 72.632812 166.375 72.71875 166.375 72.835938 L 162.019531 72.835938 C 162.058594 73.476562 162.238281 73.964844 162.566406 74.300781 C 162.886719 74.644531 163.296875 74.808594 163.796875 74.808594 C 164.15625 74.808594 164.464844 74.722656 164.714844 74.535156 C 164.972656 74.339844 165.171875 74.039062 165.320312 73.617188 Z M 162.078125 72.015625 L 165.339844 72.015625 C 165.300781 71.523438 165.171875 71.152344 164.96875 70.902344 C 164.65625 70.527344 164.246094 70.335938 163.738281 70.335938 C 163.277344 70.335938 162.898438 70.492188 162.585938 70.804688 C 162.28125 71.109375 162.117188 71.507812 162.078125 72.015625 Z M 162.078125 72.015625 "/>
<path style=" stroke:none;fill-rule:nonzero;fill:rgb(0%,0%,0%);fill-opacity:1;" d="M 167.59375 75.492188 L 167.59375 69.652344 L 168.492188 69.652344 L 168.492188 70.492188 C 168.90625 69.859375 169.527344 69.535156 170.347656 69.535156 C 170.699219 69.535156 171.015625 69.605469 171.304688 69.730469 C 171.601562 69.847656 171.820312 70.015625 171.96875 70.21875 C 172.109375 70.414062 172.210938 70.660156 172.28125 70.941406 C 172.320312 71.128906 172.339844 71.445312 172.339844 71.898438 L 172.339844 75.492188 L 171.34375 75.492188 L 171.34375 71.9375 C 171.34375 71.539062 171.304688 71.234375 171.226562 71.039062 C 171.148438 70.84375 171.011719 70.6875 170.816406 70.570312 C 170.621094 70.445312 170.390625 70.375 170.132812 70.375 C 169.710938 70.375 169.351562 70.511719 169.039062 70.785156 C 168.734375 71.050781 168.589844 71.558594 168.589844 72.308594 L 168.589844 75.492188 Z M 167.59375 75.492188 "/>
<path style=" stroke:none;fill-rule:nonzero;fill:rgb(0%,0%,0%);fill-opacity:1;" d="M 144.371094 93.246094 L 145.347656 93.089844 C 145.394531 93.480469 145.546875 93.785156 145.796875 93.988281 C 146.054688 94.199219 146.40625 94.300781 146.851562 94.300781 C 147.304688 94.300781 147.640625 94.214844 147.867188 94.027344 C 148.085938 93.847656 148.199219 93.632812 148.199219 93.382812 C 148.199219 93.148438 148.101562 92.972656 147.90625 92.855469 C 147.757812 92.769531 147.421875 92.652344 146.890625 92.503906 C 146.15625 92.324219 145.648438 92.167969 145.367188 92.035156 C 145.09375 91.910156 144.882812 91.722656 144.742188 91.488281 C 144.59375 91.253906 144.527344 90.996094 144.527344 90.707031 C 144.527344 90.449219 144.585938 90.210938 144.703125 89.984375 C 144.820312 89.765625 144.980469 89.574219 145.191406 89.417969 C 145.347656 89.316406 145.550781 89.222656 145.816406 89.144531 C 146.089844 89.066406 146.371094 89.027344 146.675781 89.027344 C 147.128906 89.027344 147.523438 89.097656 147.867188 89.222656 C 148.21875 89.355469 148.476562 89.53125 148.648438 89.75 C 148.8125 89.976562 148.929688 90.273438 149 90.648438 L 148.023438 90.785156 C 147.984375 90.488281 147.851562 90.253906 147.632812 90.082031 C 147.421875 89.917969 147.128906 89.828125 146.753906 89.828125 C 146.292969 89.828125 145.972656 89.90625 145.777344 90.0625 C 145.582031 90.210938 145.484375 90.386719 145.484375 90.589844 C 145.484375 90.722656 145.523438 90.835938 145.601562 90.921875 C 145.679688 91.039062 145.804688 91.132812 145.992188 91.195312 C 146.078125 91.234375 146.367188 91.324219 146.851562 91.449219 C 147.554688 91.636719 148.042969 91.78125 148.316406 91.898438 C 148.597656 92.015625 148.824219 92.191406 148.980469 92.425781 C 149.136719 92.652344 149.214844 92.929688 149.214844 93.265625 C 149.214844 93.609375 149.117188 93.921875 148.921875 94.203125 C 148.726562 94.492188 148.441406 94.722656 148.082031 94.886719 C 147.730469 95.042969 147.320312 95.121094 146.851562 95.121094 C 146.09375 95.121094 145.511719 94.964844 145.113281 94.652344 C 144.722656 94.332031 144.472656 93.863281 144.371094 93.246094 Z M 144.371094 93.246094 "/>
<path style=" stroke:none;fill-rule:nonzero;fill:rgb(0%,0%,0%);fill-opacity:1;" d="M 152.554688 94.105469 L 152.691406 94.964844 C 152.402344 95.03125 152.152344 95.0625 151.949219 95.0625 C 151.582031 95.0625 151.304688 95.003906 151.109375 94.886719 C 150.914062 94.769531 150.765625 94.625 150.679688 94.4375 C 150.601562 94.257812 150.5625 93.871094 150.5625 93.285156 L 150.5625 89.925781 L 149.839844 89.925781 L 149.839844 89.144531 L 150.5625 89.144531 L 150.5625 87.699219 L 151.558594 87.113281 L 151.558594 89.144531 L 152.554688 89.144531 L 152.554688 89.925781 L 151.558594 89.925781 L 151.558594 93.324219 C 151.558594 93.613281 151.566406 93.792969 151.597656 93.871094 C 151.636719 93.949219 151.695312 94.019531 151.773438 94.066406 C 151.851562 94.121094 151.957031 94.144531 152.105469 94.144531 C 152.222656 94.144531 152.367188 94.136719 152.554688 94.105469 Z M 152.554688 94.105469 "/>
<path style=" stroke:none;fill-rule:nonzero;fill:rgb(0%,0%,0%);fill-opacity:1;" d="M 157.320312 94.261719 C 156.953125 94.574219 156.601562 94.800781 156.265625 94.925781 C 155.921875 95.054688 155.5625 95.121094 155.171875 95.121094 C 154.53125 95.121094 154.039062 94.964844 153.6875 94.652344 C 153.34375 94.339844 153.179688 93.941406 153.179688 93.441406 C 153.179688 93.160156 153.242188 92.894531 153.375 92.660156 C 153.5 92.425781 153.671875 92.242188 153.882812 92.09375 C 154.085938 91.953125 154.320312 91.839844 154.585938 91.761719 C 154.78125 91.722656 155.074219 91.679688 155.464844 91.625 C 156.269531 91.539062 156.859375 91.421875 157.242188 91.273438 C 157.242188 91.148438 157.242188 91.058594 157.242188 91.019531 C 157.242188 90.621094 157.148438 90.335938 156.96875 90.179688 C 156.703125 89.945312 156.328125 89.828125 155.835938 89.828125 C 155.367188 89.828125 155.019531 89.917969 154.800781 90.082031 C 154.574219 90.238281 154.414062 90.527344 154.3125 90.941406 L 153.355469 90.824219 C 153.433594 90.410156 153.570312 90.078125 153.765625 89.828125 C 153.96875 89.570312 154.261719 89.375 154.644531 89.242188 C 155.035156 89.101562 155.472656 89.027344 155.972656 89.027344 C 156.480469 89.027344 156.878906 89.085938 157.183594 89.203125 C 157.496094 89.320312 157.71875 89.472656 157.867188 89.652344 C 158.023438 89.824219 158.125 90.042969 158.179688 90.316406 C 158.21875 90.488281 158.238281 90.785156 158.238281 91.214844 L 158.238281 92.542969 C 158.238281 93.457031 158.257812 94.039062 158.296875 94.28125 C 158.335938 94.53125 158.417969 94.765625 158.550781 94.984375 L 157.515625 94.984375 C 157.40625 94.78125 157.34375 94.535156 157.320312 94.261719 Z M 157.242188 92.054688 C 156.875 92.203125 156.332031 92.324219 155.621094 92.425781 C 155.214844 92.496094 154.925781 92.5625 154.761719 92.640625 C 154.589844 92.710938 154.457031 92.8125 154.371094 92.953125 C 154.277344 93.101562 154.234375 93.257812 154.234375 93.421875 C 154.234375 93.6875 154.332031 93.90625 154.527344 94.085938 C 154.722656 94.257812 155.015625 94.339844 155.40625 94.339844 C 155.78125 94.339844 156.117188 94.257812 156.421875 94.085938 C 156.71875 93.921875 156.9375 93.691406 157.085938 93.402344 C 157.1875 93.183594 157.242188 92.855469 157.242188 92.425781 Z M 157.242188 92.054688 "/>
<path style=" stroke:none;fill-rule:nonzero;fill:rgb(0%,0%,0%);fill-opacity:1;" d="M 161.933594 94.105469 L 162.070312 94.964844 C 161.785156 95.03125 161.535156 95.0625 161.328125 95.0625 C 160.964844 95.0625 160.683594 95.003906 160.488281 94.886719 C 160.292969 94.769531 160.148438 94.625 160.058594 94.4375 C 159.980469 94.257812 159.941406 93.871094 159.941406 93.285156 L 159.941406 89.925781 L 159.21875 89.925781 L 159.21875 89.144531 L 159.941406 89.144531 L 159.941406 87.699219 L 160.9375 87.113281 L 160.9375 89.144531 L 161.933594 89.144531 L 161.933594 89.925781 L 160.9375 89.925781 L 160.9375 93.324219 C 160.9375 93.613281 160.949219 93.792969 160.976562 93.871094 C 161.015625 93.949219 161.074219 94.019531 161.152344 94.066406 C 161.230469 94.121094 161.339844 94.144531 161.484375 94.144531 C 161.601562 94.144531 161.75 94.136719 161.933594 94.105469 Z M 161.933594 94.105469 "/>
<path style=" stroke:none;fill-rule:nonzero;fill:rgb(0%,0%,0%);fill-opacity:1;" d="M 166.878906 93.109375 L 167.914062 93.226562 C 167.742188 93.828125 167.433594 94.296875 166.996094 94.632812 C 166.566406 94.960938 166.007812 95.121094 165.335938 95.121094 C 164.484375 95.121094 163.8125 94.863281 163.304688 94.339844 C 162.804688 93.808594 162.5625 93.066406 162.5625 92.113281 C 162.5625 91.136719 162.816406 90.386719 163.324219 89.847656 C 163.832031 89.300781 164.484375 89.027344 165.296875 89.027344 C 166.078125 89.027344 166.707031 89.296875 167.191406 89.828125 C 167.683594 90.351562 167.933594 91.09375 167.933594 92.054688 C 167.933594 92.125 167.933594 92.210938 167.933594 92.328125 L 163.578125 92.328125 C 163.617188 92.96875 163.796875 93.457031 164.125 93.792969 C 164.445312 94.136719 164.855469 94.300781 165.355469 94.300781 C 165.714844 94.300781 166.023438 94.214844 166.273438 94.027344 C 166.53125 93.832031 166.730469 93.53125 166.878906 93.109375 Z M 163.636719 91.507812 L 166.898438 91.507812 C 166.859375 91.015625 166.730469 90.644531 166.527344 90.394531 C 166.214844 90.019531 165.804688 89.828125 165.296875 89.828125 C 164.835938 89.828125 164.457031 89.984375 164.144531 90.296875 C 163.839844 90.601562 163.675781 91 163.636719 91.507812 Z M 163.636719 91.507812 "/>
<path style="fill:none;stroke-width:1;stroke-linecap:round;stroke-linejoin:round;stroke:rgb(0%,0%,0%);stroke-opacity:1;stroke-miterlimit:10;" d="M 689.55625 334.15625 L 689.53125 330.50625 " transform="matrix(1.25,0,0,1.25,-615,-312.5)"/>
<path style="fill:none;stroke-width:1;stroke-linecap:butt;stroke-linejoin:miter;stroke:rgb(0%,0%,0%);stroke-opacity:1;stroke-miterlimit:10;" d="M 689.50625 326.50625 L 689.53125 330.50625 M 688.03125 330.515625 L 689.50625 326.50625 L 691.03125 330.496875 " transform="matrix(1.25,0,0,1.25,-615,-312.5)"/>
<path style=" stroke:none;fill-rule:nonzero;fill:rgb(0%,0%,0%);fill-opacity:1;" d="M 229.894531 117.695312 L 228.976562 117.695312 L 228.976562 109.648438 L 229.953125 109.648438 L 229.953125 112.519531 C 230.371094 112 230.902344 111.738281 231.554688 111.738281 C 231.917969 111.738281 232.257812 111.8125 232.570312 111.953125 C 232.894531 112.097656 233.164062 112.300781 233.371094 112.558594 C 233.578125 112.820312 233.742188 113.140625 233.859375 113.515625 C 233.976562 113.882812 234.035156 114.273438 234.035156 114.6875 C 234.035156 115.691406 233.789062 116.464844 233.292969 117.011719 C 232.796875 117.558594 232.207031 117.832031 231.515625 117.832031 C 230.824219 117.832031 230.285156 117.546875 229.894531 116.972656 Z M 229.875 114.726562 C 229.875 115.429688 229.972656 115.9375 230.167969 116.25 C 230.480469 116.757812 230.898438 117.011719 231.417969 117.011719 C 231.859375 117.011719 232.238281 116.824219 232.550781 116.445312 C 232.863281 116.070312 233.019531 115.507812 233.019531 114.765625 C 233.019531 114.011719 232.871094 113.453125 232.570312 113.085938 C 232.269531 112.722656 231.90625 112.539062 231.476562 112.539062 C 231.035156 112.539062 230.65625 112.730469 230.34375 113.105469 C 230.03125 113.484375 229.875 114.023438 229.875 114.726562 Z M 229.875 114.726562 "/>
<path style=" stroke:none;fill-rule:nonzero;fill:rgb(0%,0%,0%);fill-opacity:1;" d="M 234.863281 114.785156 C 234.863281 113.707031 235.160156 112.90625 235.761719 112.382812 C 236.269531 111.953125 236.878906 111.738281 237.597656 111.738281 C 238.402344 111.738281 239.0625 112 239.570312 112.519531 C 240.078125 113.042969 240.332031 113.765625 240.332031 114.6875 C 240.332031 115.445312 240.214844 116.035156 239.980469 116.464844 C 239.757812 116.894531 239.433594 117.234375 239.003906 117.480469 C 238.574219 117.714844 238.105469 117.832031 237.597656 117.832031 C 236.777344 117.832031 236.113281 117.574219 235.605469 117.050781 C 235.109375 116.519531 234.863281 115.761719 234.863281 114.785156 Z M 235.878906 114.785156 C 235.878906 115.527344 236.039062 116.089844 236.367188 116.464844 C 236.691406 116.832031 237.101562 117.011719 237.597656 117.011719 C 238.089844 117.011719 238.5 116.832031 238.828125 116.464844 C 239.152344 116.089844 239.316406 115.515625 239.316406 114.746094 C 239.316406 114.03125 239.152344 113.484375 238.828125 113.105469 C 238.5 112.730469 238.089844 112.539062 237.597656 112.539062 C 237.101562 112.539062 236.691406 112.730469 236.367188 113.105469 C 236.039062 113.472656 235.878906 114.03125 235.878906 114.785156 Z M 235.878906 114.785156 "/>
<path style=" stroke:none;fill-rule:nonzero;fill:rgb(0%,0%,0%);fill-opacity:1;" d="M 241.492188 117.695312 L 241.492188 111.855469 L 242.390625 111.855469 L 242.390625 112.695312 C 242.804688 112.058594 243.425781 111.738281 244.246094 111.738281 C 244.597656 111.738281 244.914062 111.804688 245.203125 111.933594 C 245.5 112.050781 245.71875 112.214844 245.867188 112.421875 C 246.007812 112.617188 246.109375 112.859375 246.179688 113.144531 C 246.21875 113.328125 246.238281 113.648438 246.238281 114.101562 L 246.238281 117.695312 L 245.242188 117.695312 L 245.242188 114.140625 C 245.242188 113.738281 245.203125 113.4375 245.125 113.242188 C 245.046875 113.046875 244.910156 112.890625 244.714844 112.773438 C 244.519531 112.644531 244.289062 112.578125 244.03125 112.578125 C 243.609375 112.578125 243.25 112.714844 242.9375 112.988281 C 242.632812 113.25 242.488281 113.757812 242.488281 114.511719 L 242.488281 117.695312 Z M 241.492188 117.695312 "/>
<path style=" stroke:none;fill-rule:nonzero;fill:rgb(0%,0%,0%);fill-opacity:1;" d="M 247.75 110.78125 L 247.75 109.648438 L 248.726562 109.648438 L 248.726562 110.78125 Z M 246.5 119.960938 L 246.675781 119.121094 C 246.871094 119.167969 247.027344 119.199219 247.144531 119.199219 C 247.347656 119.199219 247.5 119.125 247.59375 118.984375 C 247.695312 118.851562 247.75 118.519531 247.75 117.988281 L 247.75 111.855469 L 248.726562 111.855469 L 248.726562 118.007812 C 248.726562 118.71875 248.632812 119.222656 248.453125 119.511719 C 248.21875 119.871094 247.816406 120.058594 247.261719 120.058594 C 247.003906 120.058594 246.75 120.023438 246.5 119.960938 Z M 246.5 119.960938 "/>
<path style=" stroke:none;fill-rule:nonzero;fill:rgb(0%,0%,0%);fill-opacity:1;" d="M 249.878906 114.785156 C 249.878906 113.707031 250.175781 112.90625 250.777344 112.382812 C 251.285156 111.953125 251.894531 111.738281 252.613281 111.738281 C 253.417969 111.738281 254.078125 112 254.585938 112.519531 C 255.09375 113.042969 255.347656 113.765625 255.347656 114.6875 C 255.347656 115.445312 255.230469 116.035156 254.996094 116.464844 C 254.769531 116.894531 254.449219 117.234375 254.019531 117.480469 C 253.589844 117.714844 253.121094 117.832031 252.613281 117.832031 C 251.792969 117.832031 251.128906 117.574219 250.621094 117.050781 C 250.121094 116.519531 249.878906 115.761719 249.878906 114.785156 Z M 250.894531 114.785156 C 250.894531 115.527344 251.054688 116.089844 251.382812 116.464844 C 251.703125 116.832031 252.113281 117.011719 252.613281 117.011719 C 253.105469 117.011719 253.515625 116.832031 253.84375 116.464844 C 254.164062 116.089844 254.332031 115.515625 254.332031 114.746094 C 254.332031 114.03125 254.164062 113.484375 253.84375 113.105469 C 253.515625 112.730469 253.105469 112.539062 252.613281 112.539062 C 252.113281 112.539062 251.703125 112.730469 251.382812 113.105469 C 251.054688 113.472656 250.894531 114.03125 250.894531 114.785156 Z M 250.894531 114.785156 "/>
<path style=" stroke:none;fill-rule:nonzero;fill:rgb(0%,0%,0%);fill-opacity:1;" d="M 260.335938 117.695312 L 260.335938 116.835938 C 259.875 117.5 259.261719 117.832031 258.480469 117.832031 C 258.136719 117.832031 257.820312 117.761719 257.523438 117.636719 C 257.21875 117.496094 256.996094 117.324219 256.839844 117.128906 C 256.691406 116.933594 256.59375 116.695312 256.546875 116.40625 C 256.507812 116.210938 256.488281 115.898438 256.488281 115.46875 L 256.488281 111.855469 L 257.464844 111.855469 L 257.464844 115.097656 C 257.464844 115.621094 257.488281 115.964844 257.542969 116.132812 C 257.589844 116.394531 257.71875 116.601562 257.914062 116.757812 C 258.117188 116.902344 258.371094 116.972656 258.675781 116.972656 C 258.972656 116.972656 259.25 116.902344 259.515625 116.757812 C 259.773438 116.601562 259.953125 116.394531 260.0625 116.132812 C 260.164062 115.875 260.21875 115.488281 260.21875 114.980469 L 260.21875 111.855469 L 261.214844 111.855469 L 261.214844 117.695312 Z M 260.335938 117.695312 "/>
<path style=" stroke:none;fill-rule:nonzero;fill:rgb(0%,0%,0%);fill-opacity:1;" d="M 262.742188 117.695312 L 262.742188 111.855469 L 263.640625 111.855469 L 263.640625 112.753906 C 263.863281 112.339844 264.070312 112.066406 264.265625 111.933594 C 264.460938 111.804688 264.675781 111.738281 264.910156 111.738281 C 265.234375 111.738281 265.574219 111.84375 265.925781 112.050781 L 265.574219 112.96875 C 265.339844 112.828125 265.097656 112.753906 264.851562 112.753906 C 264.644531 112.753906 264.449219 112.820312 264.265625 112.949219 C 264.097656 113.082031 263.972656 113.261719 263.894531 113.496094 C 263.789062 113.847656 263.738281 114.234375 263.738281 114.648438 L 263.738281 117.695312 Z M 262.742188 117.695312 "/>
<path style="fill:none;stroke-width:1;stroke-linecap:round;stroke-linejoin:round;stroke:rgb(0%,0%,0%);stroke-opacity:1;stroke-miterlimit:10;" d="M 727.221875 334.15625 L 727.28125 329.9 " transform="matrix(1.25,0,0,1.25,-615,-312.5)"/>
<path style="fill:none;stroke-width:1;stroke-linecap:butt;stroke-linejoin:miter;stroke:rgb(0%,0%,0%);stroke-opacity:1;stroke-miterlimit:10;" d="M 727.3375 325.9 L 727.28125 329.9 M 725.78125 329.878125 L 727.3375 325.9 L 728.78125 329.921875 " transform="matrix(1.25,0,0,1.25,-615,-312.5)"/>
<path style=" stroke:none;fill-rule:nonzero;fill:rgb(0%,0%,0%);fill-opacity:1;" d="M 290.242188 117.695312 L 290.242188 109.648438 L 291.21875 109.648438 L 291.21875 117.695312 Z M 290.242188 117.695312 "/>
<path style=" stroke:none;fill-rule:nonzero;fill:rgb(0%,0%,0%);fill-opacity:1;" d="M 296.746094 115.820312 L 297.78125 115.9375 C 297.609375 116.539062 297.304688 117.007812 296.863281 117.34375 C 296.433594 117.671875 295.878906 117.832031 295.203125 117.832031 C 294.355469 117.832031 293.679688 117.574219 293.171875 117.050781 C 292.675781 116.519531 292.429688 115.777344 292.429688 114.824219 C 292.429688 113.847656 292.683594 113.09375 293.191406 112.558594 C 293.699219 112.011719 294.355469 111.738281 295.164062 111.738281 C 295.945312 111.738281 296.574219 112.007812 297.058594 112.539062 C 297.550781 113.0625 297.800781 113.804688 297.800781 114.765625 C 297.800781 114.832031 297.800781 114.921875 297.800781 115.039062 L 293.445312 115.039062 C 293.484375 115.679688 293.664062 116.167969 293.992188 116.503906 C 294.316406 116.84375 294.726562 117.011719 295.222656 117.011719 C 295.585938 117.011719 295.890625 116.921875 296.140625 116.738281 C 296.398438 116.542969 296.601562 116.238281 296.746094 115.820312 Z M 293.503906 114.21875 L 296.765625 114.21875 C 296.726562 113.726562 296.601562 113.355469 296.394531 113.105469 C 296.082031 112.730469 295.671875 112.539062 295.164062 112.539062 C 294.707031 112.539062 294.324219 112.695312 294.011719 113.007812 C 293.710938 113.308594 293.542969 113.710938 293.503906 114.21875 Z M 293.503906 114.21875 "/>
<path style="fill:none;stroke-width:1;stroke-linecap:round;stroke-linejoin:round;stroke:rgb(0%,0%,0%);stroke-opacity:1;stroke-miterlimit:10;" d="M 765.2125 334.15625 L 765.253125 329.9 " transform="matrix(1.25,0,0,1.25,-615,-312.5)"/>
<path style="fill:none;stroke-width:1;stroke-linecap:butt;stroke-linejoin:miter;stroke:rgb(0%,0%,0%);stroke-opacity:1;stroke-miterlimit:10;" d="M 765.29375 325.9 L 765.253125 329.9 M 763.753125 329.8875 L 765.29375 325.9 L 766.753125 329.9125 " transform="matrix(1.25,0,0,1.25,-615,-312.5)"/>
<path style=" stroke:none;fill-rule:nonzero;fill:rgb(0%,0%,0%);fill-opacity:1;" d="M 324.964844 117.695312 L 324.964844 111.855469 L 325.84375 111.855469 L 325.84375 112.675781 C 326.023438 112.390625 326.261719 112.164062 326.566406 111.992188 C 326.878906 111.824219 327.230469 111.738281 327.621094 111.738281 C 328.050781 111.738281 328.402344 111.832031 328.675781 112.011719 C 328.949219 112.183594 329.144531 112.429688 329.261719 112.753906 C 329.730469 112.078125 330.324219 111.738281 331.058594 111.738281 C 331.644531 111.738281 332.09375 111.902344 332.40625 112.226562 C 332.71875 112.539062 332.875 113.027344 332.875 113.691406 L 332.875 117.695312 L 331.878906 117.695312 L 331.878906 114.023438 C 331.878906 113.621094 331.84375 113.335938 331.78125 113.164062 C 331.726562 112.996094 331.613281 112.859375 331.449219 112.753906 C 331.277344 112.636719 331.078125 112.578125 330.84375 112.578125 C 330.4375 112.578125 330.101562 112.714844 329.828125 112.988281 C 329.554688 113.261719 329.417969 113.699219 329.417969 114.296875 L 329.417969 117.695312 L 328.421875 117.695312 L 328.421875 113.90625 C 328.421875 113.464844 328.34375 113.132812 328.1875 112.910156 C 328.03125 112.691406 327.765625 112.578125 327.40625 112.578125 C 327.117188 112.578125 326.859375 112.65625 326.625 112.8125 C 326.390625 112.957031 326.21875 113.171875 326.117188 113.457031 C 326.007812 113.730469 325.960938 114.136719 325.960938 114.667969 L 325.960938 117.695312 Z M 324.964844 117.695312 "/>
<path style=" stroke:none;fill-rule:nonzero;fill:rgb(0%,0%,0%);fill-opacity:1;" d="M 333.964844 114.785156 C 333.964844 113.707031 334.261719 112.90625 334.863281 112.382812 C 335.371094 111.953125 335.980469 111.738281 336.699219 111.738281 C 337.503906 111.738281 338.164062 112 338.671875 112.519531 C 339.179688 113.042969 339.433594 113.765625 339.433594 114.6875 C 339.433594 115.445312 339.316406 116.035156 339.082031 116.464844 C 338.855469 116.894531 338.535156 117.234375 338.105469 117.480469 C 337.675781 117.714844 337.207031 117.832031 336.699219 117.832031 C 335.878906 117.832031 335.214844 117.574219 334.707031 117.050781 C 334.207031 116.519531 333.964844 115.761719 333.964844 114.785156 Z M 334.980469 114.785156 C 334.980469 115.527344 335.140625 116.089844 335.46875 116.464844 C 335.789062 116.832031 336.199219 117.011719 336.699219 117.011719 C 337.191406 117.011719 337.601562 116.832031 337.929688 116.464844 C 338.25 116.089844 338.417969 115.515625 338.417969 114.746094 C 338.417969 114.03125 338.25 113.484375 337.929688 113.105469 C 337.601562 112.730469 337.191406 112.539062 336.699219 112.539062 C 336.199219 112.539062 335.789062 112.730469 335.46875 113.105469 C 335.140625 113.472656 334.980469 114.03125 334.980469 114.785156 Z M 334.980469 114.785156 "/>
<path style=" stroke:none;fill-rule:nonzero;fill:rgb(0%,0%,0%);fill-opacity:1;" d="M 340.59375 117.695312 L 340.59375 111.855469 L 341.492188 111.855469 L 341.492188 112.695312 C 341.90625 112.058594 342.527344 111.738281 343.347656 111.738281 C 343.699219 111.738281 344.015625 111.804688 344.304688 111.933594 C 344.601562 112.050781 344.820312 112.214844 344.96875 112.421875 C 345.109375 112.617188 345.210938 112.859375 345.28125 113.144531 C 345.320312 113.328125 345.339844 113.648438 345.339844 114.101562 L 345.339844 117.695312 L 344.34375 117.695312 L 344.34375 114.140625 C 344.34375 113.738281 344.304688 113.4375 344.226562 113.242188 C 344.148438 113.046875 344.011719 112.890625 343.816406 112.773438 C 343.621094 112.644531 343.390625 112.578125 343.132812 112.578125 C 342.710938 112.578125 342.351562 112.714844 342.039062 112.988281 C 341.734375 113.25 341.589844 113.757812 341.589844 114.511719 L 341.589844 117.695312 Z M 340.59375 117.695312 "/>
<path style=" stroke:none;fill-rule:nonzero;fill:rgb(0%,0%,0%);fill-opacity:1;" d="M 350.640625 117.695312 L 350.640625 116.953125 C 350.257812 117.539062 349.710938 117.832031 349 117.832031 C 348.539062 117.832031 348.121094 117.699219 347.730469 117.441406 C 347.339844 117.183594 347.03125 116.824219 346.8125 116.367188 C 346.601562 115.914062 346.5 115.386719 346.5 114.785156 C 346.5 114.199219 346.597656 113.671875 346.792969 113.203125 C 346.988281 112.722656 347.269531 112.359375 347.652344 112.109375 C 348.042969 111.863281 348.476562 111.738281 348.960938 111.738281 C 349.3125 111.738281 349.625 111.8125 349.898438 111.953125 C 350.171875 112.097656 350.390625 112.292969 350.5625 112.539062 L 350.5625 109.648438 L 351.558594 109.648438 L 351.558594 117.695312 Z M 347.515625 114.785156 C 347.515625 115.527344 347.671875 116.089844 347.984375 116.464844 C 348.296875 116.832031 348.667969 117.011719 349.097656 117.011719 C 349.527344 117.011719 349.886719 116.835938 350.191406 116.484375 C 350.503906 116.132812 350.660156 115.59375 350.660156 114.863281 C 350.660156 114.070312 350.503906 113.484375 350.191406 113.105469 C 349.878906 112.730469 349.496094 112.539062 349.058594 112.539062 C 348.613281 112.539062 348.242188 112.722656 347.945312 113.085938 C 347.65625 113.453125 347.515625 114.019531 347.515625 114.785156 Z M 347.515625 114.785156 "/>
<path style=" stroke:none;fill-rule:nonzero;fill:rgb(0%,0%,0%);fill-opacity:1;" d="M 357.09375 115.820312 L 358.128906 115.9375 C 357.957031 116.539062 357.648438 117.007812 357.210938 117.34375 C 356.78125 117.671875 356.222656 117.832031 355.550781 117.832031 C 354.699219 117.832031 354.027344 117.574219 353.519531 117.050781 C 353.019531 116.519531 352.777344 115.777344 352.777344 114.824219 C 352.777344 113.847656 353.03125 113.09375 353.539062 112.558594 C 354.046875 112.011719 354.699219 111.738281 355.511719 111.738281 C 356.292969 111.738281 356.921875 112.007812 357.40625 112.539062 C 357.898438 113.0625 358.148438 113.804688 358.148438 114.765625 C 358.148438 114.832031 358.148438 114.921875 358.148438 115.039062 L 353.792969 115.039062 C 353.832031 115.679688 354.011719 116.167969 354.339844 116.503906 C 354.660156 116.84375 355.070312 117.011719 355.570312 117.011719 C 355.929688 117.011719 356.238281 116.921875 356.488281 116.738281 C 356.746094 116.542969 356.945312 116.238281 357.09375 115.820312 Z M 353.851562 114.21875 L 357.113281 114.21875 C 357.074219 113.726562 356.945312 113.355469 356.742188 113.105469 C 356.429688 112.730469 356.019531 112.539062 355.511719 112.539062 C 355.050781 112.539062 354.671875 112.695312 354.359375 113.007812 C 354.054688 113.308594 353.890625 113.710938 353.851562 114.21875 Z M 353.851562 114.21875 "/>
<path style="fill:none;stroke-width:1;stroke-linecap:round;stroke-linejoin:round;stroke:rgb(0%,0%,0%);stroke-opacity:1;stroke-miterlimit:10;" d="M 807.31875 333.546875 L 807.315625 329.9 " transform="matrix(1.25,0,0,1.25,-615,-312.5)"/>
<path style="fill:none;stroke-width:1;stroke-linecap:butt;stroke-linejoin:miter;stroke:rgb(0%,0%,0%);stroke-opacity:1;stroke-miterlimit:10;" d="M 807.315625 325.9 L 807.315625 329.9 M 805.815625 329.903125 L 807.315625 325.9 L 808.815625 329.9 " transform="matrix(1.25,0,0,1.25,-615,-312.5)"/>
<path style=" stroke:none;fill-rule:nonzero;fill:rgb(0%,0%,0%);fill-opacity:1;" d="M 393.605469 116.933594 L 393.605469 115.800781 L 394.738281 115.800781 L 394.738281 116.933594 Z M 393.605469 116.933594 "/>
</g>
</svg>
