<?xml version="1.0" encoding="UTF-8"?>
<svg xmlns="http://www.w3.org/2000/svg" xmlns:xlink="http://www.w3.org/1999/xlink" width="434pt" height="125pt" viewBox="0 0 434 125" version="1.1">
<g id="surface1">
<path style="fill:none;stroke-width:1;stroke-linecap:round;stroke-linejoin:round;stroke:rgb(0%,0%,0%);stroke-opacity:1;stroke-miterlimit:10;" d="M 652.190625 334.15625 L 652.171875 330.50625 " transform="matrix(1.25,0,0,1.25,-615,-312.5)"/>
<path style="fill:none;stroke-width:1;stroke-linecap:butt;stroke-linejoin:miter;stroke:rgb(0%,0%,0%);stroke-opacity:1;stroke-miterlimit:10;" d="M 652.14375 326.50625 L 652.171875 330.50625 M 650.671875 330.515625 L 652.14375 326.50625 L 653.671875 330.496875 " transform="matrix(1.25,0,0,1.25,-615,-312.5)"/>
<path style="fill:none;stroke-width:1;stroke-linecap:round;stroke-linejoin:round;stroke:rgb(0%,0%,0%);stroke-opacity:1;stroke-miterlimit:10;" d="M 593.28125 315 L 634.75625 315 " transform="matrix(1.25,0,0,1.25,-615,-312.5)"/>
<path style="fill:none;stroke-width:1;stroke-linecap:butt;stroke-linejoin:miter;stroke:rgb(0%,0%,0%);stroke-opacity:1;stroke-miterlimit:10;" d="M 638.75625 315 L 634.75625 315 M 634.75625 313.5 L 638.75625 315 L 634.75625 316.5 " transform="matrix(1.25,0,0,1.25,-615,-312.5)"/>
<path style="fill-rule:nonzero;fill:rgb(69.803922%,85.098039%,100%);fill-opacity:1;stroke-width:1;stroke-linecap:round;stroke-linejoin:round;stroke:rgb(0%,0%,0%);stroke-opacity:1;stroke-miterlimit:10;" d="M 495.328125 306 L 519.328125 306 L 519.328125 324 L 495.328125 324 Z M 495.328125 306 " transform="matrix(1.25,0,0,1.25,-615,-312.5)"/>
<path style="fill-rule:nonzero;fill:rgb(69.803922%,85.098039%,100%);fill-opacity:1;stroke-width:1;stroke-linecap:round;stroke-linejoin:round;stroke:rgb(0%,0%,0%);stroke-opacity:1;stroke-miterlimit:10;" d="M 531.475 306 L 555.475 306 L 555.475 324 L 531.475 324 Z M 531.475 306 " transform="matrix(1.25,0,0,1.25,-615,-312.5)"/>
<path style="fill-rule:nonzero;fill:rgb(69.803922%,85.098039%,100%);fill-opacity:1;stroke-width:1;stroke-linecap:round;stroke-linejoin:round;stroke:rgb(0%,0%,0%);stroke-opacity:1;stroke-miterlimit:10;" d="M 569.28125 306 L 593.28125 306 L 593.28125 324 L 569.28125 324 Z M 569.28125 306 " transform="matrix(1.25,0,0,1.25,-615,-312.5)"/>
<path style=" stroke:none;fill-rule:nonzero;fill:rgb(0%,0%,0%);fill-opacity:1;" d="M 8.175781 117.695312 L 8.175781 109.648438 L 9.171875 109.648438 L 9.171875 112.539062 C 9.625 112.007812 10.207031 111.738281 10.910156 111.738281 C 11.339844 111.738281 11.710938 111.824219 12.023438 111.992188 C 12.347656 112.164062 12.574219 112.398438 12.707031 112.695312 C 12.847656 112.996094 12.921875 113.433594 12.921875 114.003906 L 12.921875 117.695312 L 11.945312 117.695312 L 11.945312 114.003906 C 11.945312 113.511719 11.832031 113.152344 11.613281 112.929688 C 11.402344 112.695312 11.105469 112.578125 10.714844 112.578125 C 10.414062 112.578125 10.132812 112.65625 9.875 112.8125 C 9.613281 112.957031 9.429688 113.160156 9.328125 113.417969 C 9.222656 113.679688 9.171875 114.042969 9.171875 114.511719 L 9.171875 117.695312 Z M 8.175781 117.695312 "/>
<path style=" stroke:none;fill-rule:nonzero;fill:rgb(0%,0%,0%);fill-opacity:1;" d="M 18.417969 115.820312 L 19.453125 115.9375 C 19.28125 116.539062 18.972656 117.007812 18.535156 117.34375 C 18.105469 117.671875 17.546875 117.832031 16.875 117.832031 C 16.023438 117.832031 15.351562 117.574219 14.84375 117.050781 C 14.34375 116.519531 14.101562 115.777344 14.101562 114.824219 C 14.101562 113.847656 14.355469 113.09375 14.863281 112.558594 C 15.371094 112.011719 16.023438 111.738281 16.835938 111.738281 C 17.617188 111.738281 18.246094 112.007812 18.730469 112.539062 C 19.222656 113.0625 19.472656 113.804688 19.472656 114.765625 C 19.472656 114.832031 19.472656 114.921875 19.472656 115.039062 L 15.117188 115.039062 C 15.15625 115.679688 15.335938 116.167969 15.664062 116.503906 C 15.984375 116.84375 16.394531 117.011719 16.894531 117.011719 C 17.253906 117.011719 17.5625 116.921875 17.8125 116.738281 C 18.070312 116.542969 18.269531 116.238281 18.417969 115.820312 Z M 15.175781 114.21875 L 18.4375 114.21875 C 18.398438 113.726562 18.269531 113.355469 18.066406 113.105469 C 17.753906 112.730469 17.34375 112.539062 16.835938 112.539062 C 16.375 112.539062 15.996094 112.695312 15.683594 113.007812 C 15.378906 113.308594 15.214844 113.710938 15.175781 114.21875 Z M 15.175781 114.21875 "/>
<path style=" stroke:none;fill-rule:nonzero;fill:rgb(0%,0%,0%);fill-opacity:1;" d="M 20.671875 117.695312 L 20.671875 109.648438 L 21.648438 109.648438 L 21.648438 117.695312 Z M 20.671875 117.695312 "/>
<path style=" stroke:none;fill-rule:nonzero;fill:rgb(0%,0%,0%);fill-opacity:1;" d="M 23.171875 117.695312 L 23.171875 109.648438 L 24.148438 109.648438 L 24.148438 117.695312 Z M 23.171875 117.695312 "/>
<path style=" stroke:none;fill-rule:nonzero;fill:rgb(0%,0%,0%);fill-opacity:1;" d="M 25.320312 114.785156 C 25.320312 113.707031 25.617188 112.90625 26.21875 112.382812 C 26.726562 111.953125 27.335938 111.738281 28.054688 111.738281 C 28.859375 111.738281 29.519531 112 30.027344 112.519531 C 30.535156 113.042969 30.789062 113.765625 30.789062 114.6875 C 30.789062 115.445312 30.671875 116.035156 30.4375 116.464844 C 30.210938 116.894531 29.890625 117.234375 29.460938 117.480469 C 29.03125 117.714844 28.5625 117.832031 28.054688 117.832031 C 27.234375 117.832031 26.570312 117.574219 26.0625 117.050781 C 25.5625 116.519531 25.320312 115.761719 25.320312 114.785156 Z M 26.335938 114.785156 C 26.335938 115.527344 26.496094 116.089844 26.824219 116.464844 C 27.144531 116.832031 27.554688 117.011719 28.054688 117.011719 C 28.546875 117.011719 28.957031 116.832031 29.285156 116.464844 C 29.605469 116.089844 29.773438 115.515625 29.773438 114.746094 C 29.773438 114.03125 29.605469 113.484375 29.285156 113.105469 C 28.957031 112.730469 28.546875 112.539062 28.054688 112.539062 C 27.554688 112.539062 27.144531 112.730469 26.824219 113.105469 C 26.496094 113.472656 26.335938 114.03125 26.335938 114.785156 Z M 26.335938 114.785156 "/>
<path style=" stroke:none;fill-rule:nonzero;fill:rgb(0%,0%,0%);fill-opacity:1;" d="M 52.875 117.695312 L 51.097656 111.855469 L 52.113281 111.855469 L 53.050781 115.234375 L 53.382812 116.484375 C 53.394531 116.421875 53.5 116.015625 53.695312 115.273438 L 54.613281 111.855469 L 55.628906 111.855469 L 56.507812 115.253906 L 56.800781 116.367188 L 57.132812 115.234375 L 58.128906 111.855469 L 59.085938 111.855469 L 57.269531 117.695312 L 56.253906 117.695312 L 55.316406 114.199219 L 55.082031 113.203125 L 53.910156 117.695312 Z M 52.875 117.695312 "/>
<path style=" stroke:none;fill-rule:nonzero;fill:rgb(0%,0%,0%);fill-opacity:1;" d="M 59.554688 114.785156 C 59.554688 113.707031 59.851562 112.90625 60.453125 112.382812 C 60.960938 111.953125 61.570312 111.738281 62.289062 111.738281 C 63.09375 111.738281 63.753906 112 64.261719 112.519531 C 64.769531 113.042969 65.023438 113.765625 65.023438 114.6875 C 65.023438 115.445312 64.90625 116.035156 64.671875 116.464844 C 64.449219 116.894531 64.125 117.234375 63.695312 117.480469 C 63.265625 117.714844 62.796875 117.832031 62.289062 117.832031 C 61.46875 117.832031 60.804688 117.574219 60.296875 117.050781 C 59.800781 116.519531 59.554688 115.761719 59.554688 114.785156 Z M 60.570312 114.785156 C 60.570312 115.527344 60.730469 116.089844 61.058594 116.464844 C 61.382812 116.832031 61.792969 117.011719 62.289062 117.011719 C 62.78125 117.011719 63.191406 116.832031 63.519531 116.464844 C 63.84375 116.089844 64.007812 115.515625 64.007812 114.746094 C 64.007812 114.03125 63.84375 113.484375 63.519531 113.105469 C 63.191406 112.730469 62.78125 112.539062 62.289062 112.539062 C 61.792969 112.539062 61.382812 112.730469 61.058594 113.105469 C 60.730469 113.472656 60.570312 114.03125 60.570312 114.785156 Z M 60.570312 114.785156 "/>
<path style=" stroke:none;fill-rule:nonzero;fill:rgb(0%,0%,0%);fill-opacity:1;" d="M 66.164062 117.695312 L 66.164062 111.855469 L 67.0625 111.855469 L 67.0625 112.753906 C 67.28125 112.339844 67.492188 112.066406 67.6875 111.933594 C 67.882812 111.804688 68.097656 111.738281 68.332031 111.738281 C 68.65625 111.738281 68.996094 111.84375 69.347656 112.050781 L 68.996094 112.96875 C 68.761719 112.828125 68.519531 112.753906 68.273438 112.753906 C 68.0625 112.753906 67.867188 112.820312 67.6875 112.949219 C 67.515625 113.082031 67.394531 113.261719 67.316406 113.496094 C 67.210938 113.847656 67.160156 114.234375 67.160156 114.648438 L 67.160156 117.695312 Z M 66.164062 117.695312 "/>
<path style=" stroke:none;fill-rule:nonzero;fill:rgb(0%,0%,0%);fill-opacity:1;" d="M 69.910156 117.695312 L 69.910156 109.648438 L 70.886719 109.648438 L 70.886719 117.695312 Z M 69.910156 117.695312 "/>
<path style=" stroke:none;fill-rule:nonzero;fill:rgb(0%,0%,0%);fill-opacity:1;" d="M 76.21875 117.695312 L 76.21875 116.953125 C 75.839844 117.539062 75.292969 117.832031 74.578125 117.832031 C 74.121094 117.832031 73.699219 117.699219 73.308594 117.441406 C 72.917969 117.183594 72.609375 116.824219 72.390625 116.367188 C 72.179688 115.914062 72.078125 115.386719 72.078125 114.785156 C 72.078125 114.199219 72.175781 113.671875 72.371094 113.203125 C 72.566406 112.722656 72.851562 112.359375 73.230469 112.109375 C 73.621094 111.863281 74.054688 111.738281 74.539062 111.738281 C 74.890625 111.738281 75.203125 111.8125 75.476562 111.953125 C 75.75 112.097656 75.96875 112.292969 76.140625 112.539062 L 76.140625 109.648438 L 77.136719 109.648438 L 77.136719 117.695312 Z M 73.09375 114.785156 C 73.09375 115.527344 73.25 116.089844 73.5625 116.464844 C 73.875 116.832031 74.246094 117.011719 74.675781 117.011719 C 75.105469 117.011719 75.46875 116.835938 75.769531 116.484375 C 76.082031 116.132812 76.238281 115.59375 76.238281 114.863281 C 76.238281 114.070312 76.082031 113.484375 75.769531 113.105469 C 75.457031 112.730469 75.078125 112.539062 74.636719 112.539062 C 74.191406 112.539062 73.820312 112.722656 73.523438 113.085938 C 73.234375 113.453125 73.09375 114.019531 73.09375 114.785156 Z M 73.09375 114.785156 "/>
<path style=" stroke:none;fill-rule:nonzero;fill:rgb(0%,0%,0%);fill-opacity:1;" d="M 111.210938 117.695312 L 111.210938 116.5625 L 112.34375 116.5625 L 112.34375 117.695312 Z M 111.210938 117.695312 "/>
<path style="fill-rule:nonzero;fill:rgb(100%,100%,100%);fill-opacity:1;stroke-width:1;stroke-linecap:round;stroke-linejoin:round;stroke:rgb(0%,0%,0%);stroke-opacity:1;stroke-miterlimit:10;" d="M 640.659375 306 L 664.659375 306 L 664.659375 324 L 640.659375 324 Z M 640.659375 306 " transform="matrix(1.25,0,0,1.25,-615,-312.5)"/>
<path style="fill-rule:nonzero;fill:rgb(100%,100%,100%);fill-opacity:1;stroke-width:1;stroke-linecap:round;stroke-linejoin:round;stroke:rgb(0%,0%,0%);stroke-opacity:1;stroke-miterlimit:10;" d="M 681.925 306 L 705.925 306 L 705.925 324 L 681.925 324 Z M 681.925 306 " transform="matrix(1.25,0,0,1.25,-615,-312.5)"/>
<path style="fill-rule:nonzero;fill:rgb(100%,100%,100%);fill-opacity:1;stroke-width:1;stroke-linecap:round;stroke-linejoin:round;stroke:rgb(0%,0%,0%);stroke-opacity:1;stroke-miterlimit:10;" d="M 724.484375 306 L 748.484375 306 L 748.484375 324 L 724.484375 324 Z M 724.484375 306 " transform="matrix(1.25,0,0,1.25,-615,-312.5)"/>
<path style="fill-rule:nonzero;fill:rgb(100%,100%,100%);fill-opacity:1;stroke-width:1;stroke-linecap:round;stroke-linejoin:round;stroke:rgb(0%,0%,0%);stroke-opacity:1;stroke-miterlimit:10;" d="M 765.4 306 L 789.4 306 L 789.4 324 L 765.4 324 Z M 765.4 306 " transform="matrix(1.25,0,0,1.25,-615,-312.5)"/>
<path style="fill:none;stroke-width:1;stroke-linecap:round;stroke-linejoin:round;stroke:rgb(0%,0%,0%);stroke-opacity:1;stroke-miterlimit:10;" d="M 519.328125 315 L 525.578125 315 " transform="matrix(1.25,0,0,1.25,-615,-312.5)"/>
<path style="fill:none;stroke-width:1;stroke-linecap:butt;stroke-linejoin:miter;stroke:rgb(0%,0%,0%);stroke-opacity:1;stroke-miterlimit:10;" d="M 529.578125 315 L 525.578125 315 M 525.578125 313.5 L 529.578125 315 L 525.578125 316.5 " transform="matrix(1.25,0,0,1.25,-615,-312.5)"/>
<path style="fill:none;stroke-width:1;stroke-linecap:round;stroke-linejoin:round;stroke:rgb(0%,0%,0%);stroke-opacity:1;stroke-miterlimit:10;" d="M 555.475 315 L 563.38125 315 " transform="matrix(1.25,0,0,1.25,-615,-312.5)"/>
<path style="fill:none;stroke-width:1;stroke-linecap:butt;stroke-linejoin:miter;stroke:rgb(0%,0%,0%);stroke-opacity:1;stroke-miterlimit:10;" d="M 567.38125 315 L 563.38125 315 M 563.38125 313.5 L 567.38125 315 L 563.38125 316.5 " transform="matrix(1.25,0,0,1.25,-615,-312.5)"/>
<path style="fill:none;stroke-width:1;stroke-linecap:round;stroke-linejoin:round;stroke:rgb(0%,0%,0%);stroke-opacity:1;stroke-miterlimit:10;" d="M 507.41875 334.15625 L 507.4 329.9 " transform="matrix(1.25,0,0,1.25,-615,-312.5)"/>
<path style="fill:none;stroke-width:1;stroke-linecap:butt;stroke-linejoin:miter;stroke:rgb(0%,0%,0%);stroke-opacity:1;stroke-miterlimit:10;" d="M 507.378125 325.9 L 507.4 329.9 M 505.9 329.90625 L 507.378125 325.9 L 508.9 329.89375 " transform="matrix(1.25,0,0,1.25,-615,-312.5)"/>
<path style="fill:none;stroke-width:1;stroke-linecap:round;stroke-linejoin:round;stroke:rgb(0%,0%,0%);stroke-opacity:1;stroke-miterlimit:10;" d="M 543.565625 334.15625 L 543.546875 329.9 " transform="matrix(1.25,0,0,1.25,-615,-312.5)"/>
<path style="fill:none;stroke-width:1;stroke-linecap:butt;stroke-linejoin:miter;stroke:rgb(0%,0%,0%);stroke-opacity:1;stroke-miterlimit:10;" d="M 543.528125 325.9 L 543.546875 329.9 M 542.046875 329.90625 L 543.528125 325.9 L 545.046875 329.89375 " transform="matrix(1.25,0,0,1.25,-615,-312.5)"/>
<path style="fill:none;stroke-width:1;stroke-linecap:round;stroke-linejoin:round;stroke:rgb(0%,0%,0%);stroke-opacity:1;stroke-miterlimit:10;" d="M 581.371875 334.15625 L 581.35 329.9 " transform="matrix(1.25,0,0,1.25,-615,-312.5)"/>
<path style="fill:none;stroke-width:1;stroke-linecap:butt;stroke-linejoin:miter;stroke:rgb(0%,0%,0%);stroke-opacity:1;stroke-miterlimit:10;" d="M 581.33125 325.9 L 581.35 329.9 M 579.85 329.90625 L 581.33125 325.9 L 582.85 329.89375 " transform="matrix(1.25,0,0,1.25,-615,-312.5)"/>
<path style="fill:none;stroke-width:1;stroke-linecap:round;stroke-linejoin:round;stroke:rgb(0%,0%,0%);stroke-opacity:1;stroke-miterlimit:10;" d="M 705.925 315 L 718.5875 315 " transform="matrix(1.25,0,0,1.25,-615,-312.5)"/>
<path style="fill:none;stroke-width:1;stroke-linecap:butt;stroke-linejoin:miter;stroke:rgb(0%,0%,0%);stroke-opacity:1;stroke-miterlimit:10;" d="M 722.5875 315 L 718.5875 315 M 718.5875 313.5 L 722.5875 315 L 718.5875 316.5 " transform="matrix(1.25,0,0,1.25,-615,-312.5)"/>
<path style=" stroke:none;fill-rule:nonzero;fill:rgb(0%,0%,0%);fill-opacity:1;" d="M 183.191406 46.054688 L 182.273438 46.054688 L 182.273438 38.007812 L 183.25 38.007812 L 183.25 40.878906 C 183.667969 40.363281 184.199219 40.097656 184.851562 40.097656 C 185.214844 40.097656 185.554688 40.171875 185.867188 40.3125 C 186.191406 40.460938 186.460938 40.660156 186.667969 40.917969 C 186.875 41.183594 187.039062 41.5 187.15625 41.875 C 187.273438 42.242188 187.332031 42.632812 187.332031 43.046875 C 187.332031 44.054688 187.085938 44.824219 186.589844 45.371094 C 186.09375 45.917969 185.503906 46.191406 184.8125 46.191406 C 184.121094 46.191406 183.582031 45.910156 183.191406 45.332031 Z M 183.171875 43.085938 C 183.171875 43.789062 183.269531 44.296875 183.464844 44.609375 C 183.777344 45.117188 184.195312 45.371094 184.714844 45.371094 C 185.15625 45.371094 185.535156 45.1875 185.847656 44.804688 C 186.160156 44.429688 186.316406 43.867188 186.316406 43.125 C 186.316406 42.375 186.167969 41.8125 185.867188 41.445312 C 185.566406 41.085938 185.203125 40.898438 184.773438 40.898438 C 184.332031 40.898438 183.953125 41.089844 183.640625 41.464844 C 183.328125 41.847656 183.171875 42.382812 183.171875 43.085938 Z M 183.171875 43.085938 "/>
<path style=" stroke:none;fill-rule:nonzero;fill:rgb(0%,0%,0%);fill-opacity:1;" d="M 188.160156 43.144531 C 188.160156 42.066406 188.460938 41.265625 189.058594 40.742188 C 189.566406 40.3125 190.179688 40.097656 190.894531 40.097656 C 191.703125 40.097656 192.359375 40.363281 192.867188 40.878906 C 193.375 41.402344 193.628906 42.125 193.628906 43.046875 C 193.628906 43.804688 193.511719 44.394531 193.277344 44.824219 C 193.054688 45.253906 192.730469 45.597656 192.300781 45.839844 C 191.871094 46.074219 191.402344 46.191406 190.894531 46.191406 C 190.074219 46.191406 189.410156 45.933594 188.902344 45.410156 C 188.40625 44.878906 188.160156 44.121094 188.160156 43.144531 Z M 189.175781 43.144531 C 189.175781 43.886719 189.339844 44.449219 189.664062 44.824219 C 189.988281 45.191406 190.398438 45.371094 190.894531 45.371094 C 191.390625 45.371094 191.800781 45.191406 192.125 44.824219 C 192.449219 44.449219 192.613281 43.878906 192.613281 43.105469 C 192.613281 42.394531 192.449219 41.847656 192.125 41.464844 C 191.800781 41.089844 191.390625 40.898438 190.894531 40.898438 C 190.398438 40.898438 189.988281 41.089844 189.664062 41.464844 C 189.339844 41.832031 189.175781 42.394531 189.175781 43.144531 Z M 189.175781 43.144531 "/>
<path style=" stroke:none;fill-rule:nonzero;fill:rgb(0%,0%,0%);fill-opacity:1;" d="M 194.789062 46.054688 L 194.789062 40.214844 L 195.6875 40.214844 L 195.6875 41.054688 C 196.101562 40.421875 196.722656 40.097656 197.542969 40.097656 C 197.894531 40.097656 198.210938 40.167969 198.5 40.292969 C 198.796875 40.410156 199.019531 40.578125 199.164062 40.78125 C 199.304688 40.976562 199.410156 41.222656 199.476562 41.503906 C 199.515625 41.691406 199.535156 42.007812 199.535156 42.460938 L 199.535156 46.054688 L 198.539062 46.054688 L 198.539062 42.5 C 198.539062 42.101562 198.5 41.796875 198.421875 41.601562 C 198.34375 41.40625 198.207031 41.25 198.011719 41.132812 C 197.816406 41.007812 197.585938 40.9375 197.328125 40.9375 C 196.910156 40.9375 196.546875 41.074219 196.234375 41.347656 C 195.933594 41.613281 195.785156 42.121094 195.785156 42.871094 L 195.785156 46.054688 Z M 194.789062 46.054688 "/>
<path style=" stroke:none;fill-rule:nonzero;fill:rgb(0%,0%,0%);fill-opacity:1;" d="M 201.046875 39.140625 L 201.046875 38.007812 L 202.023438 38.007812 L 202.023438 39.140625 Z M 199.796875 48.320312 L 199.972656 47.480469 C 200.167969 47.53125 200.324219 47.558594 200.441406 47.558594 C 200.648438 47.558594 200.796875 47.484375 200.890625 47.34375 C 200.992188 47.210938 201.046875 46.878906 201.046875 46.347656 L 201.046875 40.214844 L 202.023438 40.214844 L 202.023438 46.367188 C 202.023438 47.082031 201.929688 47.582031 201.75 47.871094 C 201.515625 48.234375 201.117188 48.417969 200.558594 48.417969 C 200.300781 48.417969 200.046875 48.382812 199.796875 48.320312 Z M 199.796875 48.320312 "/>
<path style=" stroke:none;fill-rule:nonzero;fill:rgb(0%,0%,0%);fill-opacity:1;" d="M 203.175781 43.144531 C 203.175781 42.066406 203.472656 41.265625 204.074219 40.742188 C 204.582031 40.3125 205.191406 40.097656 205.910156 40.097656 C 206.714844 40.097656 207.375 40.363281 207.882812 40.878906 C 208.390625 41.402344 208.644531 42.125 208.644531 43.046875 C 208.644531 43.804688 208.527344 44.394531 208.292969 44.824219 C 208.066406 45.253906 207.746094 45.597656 207.316406 45.839844 C 206.886719 46.074219 206.417969 46.191406 205.910156 46.191406 C 205.089844 46.191406 204.425781 45.933594 203.917969 45.410156 C 203.417969 44.878906 203.175781 44.121094 203.175781 43.144531 Z M 204.191406 43.144531 C 204.191406 43.886719 204.351562 44.449219 204.679688 44.824219 C 205 45.191406 205.410156 45.371094 205.910156 45.371094 C 206.402344 45.371094 206.8125 45.191406 207.140625 44.824219 C 207.460938 44.449219 207.628906 43.878906 207.628906 43.105469 C 207.628906 42.394531 207.460938 41.847656 207.140625 41.464844 C 206.8125 41.089844 206.402344 40.898438 205.910156 40.898438 C 205.410156 40.898438 205 41.089844 204.679688 41.464844 C 204.351562 41.832031 204.191406 42.394531 204.191406 43.144531 Z M 204.191406 43.144531 "/>
<path style=" stroke:none;fill-rule:nonzero;fill:rgb(0%,0%,0%);fill-opacity:1;" d="M 213.632812 46.054688 L 213.632812 45.195312 C 213.171875 45.859375 212.558594 46.191406 211.777344 46.191406 C 211.433594 46.191406 211.117188 46.125 210.820312 45.996094 C 210.515625 45.855469 210.292969 45.683594 210.136719 45.488281 C 209.988281 45.292969 209.890625 45.054688 209.84375 44.765625 C 209.804688 44.570312 209.785156 44.257812 209.785156 43.828125 L 209.785156 40.214844 L 210.761719 40.214844 L 210.761719 43.457031 C 210.761719 43.980469 210.785156 44.328125 210.839844 44.492188 C 210.886719 44.757812 211.015625 44.960938 211.210938 45.117188 C 211.414062 45.265625 211.667969 45.332031 211.972656 45.332031 C 212.269531 45.332031 212.546875 45.265625 212.8125 45.117188 C 213.070312 44.960938 213.25 44.757812 213.359375 44.492188 C 213.460938 44.234375 213.515625 43.847656 213.515625 43.339844 L 213.515625 40.214844 L 214.511719 40.214844 L 214.511719 46.054688 Z M 213.632812 46.054688 "/>
<path style=" stroke:none;fill-rule:nonzero;fill:rgb(0%,0%,0%);fill-opacity:1;" d="M 216.042969 46.054688 L 216.042969 40.214844 L 216.941406 40.214844 L 216.941406 41.113281 C 217.160156 40.699219 217.371094 40.425781 217.566406 40.292969 C 217.761719 40.167969 217.976562 40.097656 218.210938 40.097656 C 218.53125 40.097656 218.875 40.207031 219.226562 40.410156 L 218.875 41.328125 C 218.640625 41.1875 218.394531 41.113281 218.152344 41.113281 C 217.941406 41.113281 217.746094 41.183594 217.566406 41.308594 C 217.394531 41.441406 217.273438 41.621094 217.195312 41.855469 C 217.085938 42.207031 217.039062 42.59375 217.039062 43.007812 L 217.039062 46.054688 Z M 216.042969 46.054688 "/>
<path style=" stroke:none;fill-rule:nonzero;fill:rgb(0%,0%,0%);fill-opacity:1;" d="M 248.554688 46.25 L 248.554688 38.203125 L 249.53125 38.203125 L 249.53125 46.25 Z M 248.554688 46.25 "/>
<path style=" stroke:none;fill-rule:nonzero;fill:rgb(0%,0%,0%);fill-opacity:1;" d="M 255.058594 44.375 L 256.09375 44.492188 C 255.921875 45.09375 255.613281 45.5625 255.175781 45.898438 C 254.746094 46.226562 254.1875 46.386719 253.515625 46.386719 C 252.664062 46.386719 251.992188 46.128906 251.484375 45.605469 C 250.984375 45.074219 250.742188 44.332031 250.742188 43.378906 C 250.742188 42.402344 250.996094 41.648438 251.503906 41.113281 C 252.011719 40.566406 252.664062 40.292969 253.476562 40.292969 C 254.257812 40.292969 254.886719 40.5625 255.371094 41.09375 C 255.863281 41.617188 256.113281 42.359375 256.113281 43.320312 C 256.113281 43.390625 256.113281 43.476562 256.113281 43.59375 L 251.757812 43.59375 C 251.796875 44.234375 251.976562 44.722656 252.304688 45.058594 C 252.625 45.398438 253.035156 45.566406 253.535156 45.566406 C 253.894531 45.566406 254.203125 45.476562 254.453125 45.292969 C 254.710938 45.097656 254.910156 44.796875 255.058594 44.375 Z M 251.816406 42.773438 L 255.078125 42.773438 C 255.039062 42.28125 254.910156 41.910156 254.707031 41.660156 C 254.394531 41.285156 253.984375 41.09375 253.476562 41.09375 C 253.015625 41.09375 252.636719 41.25 252.324219 41.5625 C 252.019531 41.867188 251.855469 42.265625 251.816406 42.773438 Z M 251.816406 42.773438 "/>
<path style=" stroke:none;fill-rule:nonzero;fill:rgb(0%,0%,0%);fill-opacity:1;" d="M 288.992188 46.625 L 288.992188 40.785156 L 289.871094 40.785156 L 289.871094 41.605469 C 290.050781 41.320312 290.289062 41.09375 290.59375 40.921875 C 290.90625 40.757812 291.257812 40.667969 291.648438 40.667969 C 292.078125 40.667969 292.429688 40.761719 292.703125 40.941406 C 292.976562 41.113281 293.171875 41.359375 293.289062 41.683594 C 293.757812 41.007812 294.351562 40.667969 295.085938 40.667969 C 295.671875 40.667969 296.121094 40.835938 296.433594 41.15625 C 296.746094 41.46875 296.902344 41.957031 296.902344 42.621094 L 296.902344 46.625 L 295.90625 46.625 L 295.90625 42.953125 C 295.90625 42.554688 295.871094 42.265625 295.808594 42.09375 C 295.753906 41.929688 295.640625 41.789062 295.476562 41.683594 C 295.304688 41.566406 295.105469 41.507812 294.871094 41.507812 C 294.464844 41.507812 294.128906 41.644531 293.855469 41.917969 C 293.582031 42.191406 293.445312 42.632812 293.445312 43.226562 L 293.445312 46.625 L 292.449219 46.625 L 292.449219 42.835938 C 292.449219 42.398438 292.371094 42.0625 292.214844 41.839844 C 292.058594 41.621094 291.796875 41.507812 291.433594 41.507812 C 291.144531 41.507812 290.886719 41.585938 290.652344 41.742188 C 290.417969 41.890625 290.246094 42.101562 290.144531 42.386719 C 290.039062 42.660156 289.988281 43.066406 289.988281 43.597656 L 289.988281 46.625 Z M 288.992188 46.625 "/>
<path style=" stroke:none;fill-rule:nonzero;fill:rgb(0%,0%,0%);fill-opacity:1;" d="M 297.992188 43.714844 C 297.992188 42.636719 298.289062 41.835938 298.890625 41.3125 C 299.398438 40.882812 300.007812 40.667969 300.726562 40.667969 C 301.53125 40.667969 302.191406 40.929688 302.699219 41.449219 C 303.207031 41.972656 303.460938 42.695312 303.460938 43.617188 C 303.460938 44.375 303.34375 44.964844 303.109375 45.394531 C 302.886719 45.824219 302.5625 46.164062 302.132812 46.410156 C 301.703125 46.644531 301.234375 46.761719 300.726562 46.761719 C 299.90625 46.761719 299.242188 46.503906 298.734375 45.980469 C 298.238281 45.449219 297.992188 44.691406 297.992188 43.714844 Z M 299.007812 43.714844 C 299.007812 44.457031 299.167969 45.019531 299.496094 45.394531 C 299.820312 45.761719 300.230469 45.941406 300.726562 45.941406 C 301.21875 45.941406 301.628906 45.761719 301.957031 45.394531 C 302.28125 45.019531 302.445312 44.445312 302.445312 43.675781 C 302.445312 42.960938 302.28125 42.414062 301.957031 42.035156 C 301.628906 41.660156 301.21875 41.46875 300.726562 41.46875 C 300.230469 41.46875 299.820312 41.660156 299.496094 42.035156 C 299.167969 42.402344 299.007812 42.960938 299.007812 43.714844 Z M 299.007812 43.714844 "/>
<path style=" stroke:none;fill-rule:nonzero;fill:rgb(0%,0%,0%);fill-opacity:1;" d="M 304.621094 46.625 L 304.621094 40.785156 L 305.519531 40.785156 L 305.519531 41.625 C 305.933594 40.992188 306.554688 40.667969 307.375 40.667969 C 307.726562 40.667969 308.042969 40.734375 308.332031 40.863281 C 308.628906 40.980469 308.847656 41.148438 308.996094 41.351562 C 309.136719 41.546875 309.238281 41.789062 309.308594 42.074219 C 309.347656 42.257812 309.367188 42.578125 309.367188 43.03125 L 309.367188 46.625 L 308.371094 46.625 L 308.371094 43.070312 C 308.371094 42.671875 308.332031 42.367188 308.253906 42.171875 C 308.175781 41.976562 308.039062 41.820312 307.84375 41.703125 C 307.648438 41.578125 307.417969 41.507812 307.160156 41.507812 C 306.738281 41.507812 306.378906 41.644531 306.066406 41.917969 C 305.761719 42.179688 305.617188 42.6875 305.617188 43.441406 L 305.617188 46.625 Z M 304.621094 46.625 "/>
<path style=" stroke:none;fill-rule:nonzero;fill:rgb(0%,0%,0%);fill-opacity:1;" d="M 314.667969 46.625 L 314.667969 45.882812 C 314.285156 46.46875 313.738281 46.761719 313.027344 46.761719 C 312.566406 46.761719 312.148438 46.628906 311.757812 46.371094 C 311.367188 46.113281 311.058594 45.757812 310.839844 45.296875 C 310.628906 44.84375 310.527344 44.316406 310.527344 43.714844 C 310.527344 43.128906 310.625 42.601562 310.820312 42.132812 C 311.015625 41.65625 311.296875 41.289062 311.679688 41.039062 C 312.070312 40.796875 312.503906 40.667969 312.988281 40.667969 C 313.339844 40.667969 313.652344 40.742188 313.925781 40.882812 C 314.199219 41.03125 314.417969 41.226562 314.589844 41.46875 L 314.589844 38.578125 L 315.585938 38.578125 L 315.585938 46.625 Z M 311.542969 43.714844 C 311.542969 44.457031 311.699219 45.019531 312.011719 45.394531 C 312.324219 45.761719 312.695312 45.941406 313.125 45.941406 C 313.554688 45.941406 313.914062 45.765625 314.21875 45.414062 C 314.53125 45.0625 314.6875 44.523438 314.6875 43.792969 C 314.6875 43 314.53125 42.414062 314.21875 42.035156 C 313.90625 41.660156 313.523438 41.46875 313.085938 41.46875 C 312.640625 41.46875 312.269531 41.65625 311.972656 42.015625 C 311.683594 42.382812 311.542969 42.949219 311.542969 43.714844 Z M 311.542969 43.714844 "/>
<path style=" stroke:none;fill-rule:nonzero;fill:rgb(0%,0%,0%);fill-opacity:1;" d="M 321.121094 44.75 L 322.15625 44.867188 C 321.984375 45.46875 321.675781 45.9375 321.238281 46.273438 C 320.808594 46.601562 320.25 46.761719 319.578125 46.761719 C 318.726562 46.761719 318.054688 46.503906 317.546875 45.980469 C 317.046875 45.449219 316.804688 44.707031 316.804688 43.753906 C 316.804688 42.777344 317.058594 42.023438 317.566406 41.488281 C 318.074219 40.941406 318.726562 40.667969 319.539062 40.667969 C 320.320312 40.667969 320.949219 40.9375 321.433594 41.46875 C 321.925781 41.992188 322.175781 42.734375 322.175781 43.695312 C 322.175781 43.765625 322.175781 43.851562 322.175781 43.96875 L 317.820312 43.96875 C 317.859375 44.609375 318.039062 45.097656 318.367188 45.433594 C 318.6875 45.773438 319.097656 45.941406 319.597656 45.941406 C 319.957031 45.941406 320.265625 45.851562 320.515625 45.667969 C 320.773438 45.472656 320.972656 45.171875 321.121094 44.75 Z M 317.878906 43.148438 L 321.140625 43.148438 C 321.101562 42.65625 320.972656 42.285156 320.769531 42.035156 C 320.457031 41.660156 320.046875 41.46875 319.539062 41.46875 C 319.078125 41.46875 318.699219 41.625 318.386719 41.9375 C 318.082031 42.242188 317.917969 42.640625 317.878906 43.148438 Z M 317.878906 43.148438 "/>
<path style=" stroke:none;fill-rule:nonzero;fill:rgb(0%,0%,0%);fill-opacity:1;" d="M 356.203125 46 L 356.203125 44.867188 L 357.335938 44.867188 L 357.335938 46 Z M 356.203125 46 "/>
<path style="fill:none;stroke-width:1;stroke-linecap:round;stroke-linejoin:round;stroke:rgb(0%,0%,0%);stroke-opacity:1;stroke-miterlimit:10;" d="M 652.534375 306 L 652.421875 297.74375 " transform="matrix(1.25,0,0,1.25,-615,-312.5)"/>
<path style="fill:none;stroke-width:1;stroke-linecap:butt;stroke-linejoin:miter;stroke:rgb(0%,0%,0%);stroke-opacity:1;stroke-miterlimit:10;" d="M 652.36875 293.746875 L 652.421875 297.74375 M 650.921875 297.765625 L 652.36875 293.746875 L 653.921875 297.721875 " transform="matrix(1.25,0,0,1.25,-615,-312.5)"/>
<path style="fill:none;stroke-width:1;stroke-linecap:round;stroke-linejoin:round;stroke:rgb(0%,0%,0%);stroke-opacity:1;stroke-miterlimit:10;" d="M 693.878125 306 L 693.8375 297.9 " transform="matrix(1.25,0,0,1.25,-615,-312.5)"/>
<path style="fill:none;stroke-width:1;stroke-linecap:butt;stroke-linejoin:miter;stroke:rgb(0%,0%,0%);stroke-opacity:1;stroke-miterlimit:10;" d="M 693.815625 293.9 L 693.8375 297.9 M 692.3375 297.90625 L 693.815625 293.9 L 695.3375 297.890625 " transform="matrix(1.25,0,0,1.25,-615,-312.5)"/>
<path style="fill:none;stroke-width:1;stroke-linecap:round;stroke-linejoin:round;stroke:rgb(0%,0%,0%);stroke-opacity:1;stroke-miterlimit:10;" d="M 736.45 306 L 736.4125 298.2 " transform="matrix(1.25,0,0,1.25,-615,-312.5)"/>
<path style="fill:none;stroke-width:1;stroke-linecap:butt;stroke-linejoin:miter;stroke:rgb(0%,0%,0%);stroke-opacity:1;stroke-miterlimit:10;" d="M 736.4 294.2 L 736.4125 298.2 M 734.9125 298.20625 L 736.4 294.2 L 737.9125 298.19375 " transform="matrix(1.25,0,0,1.25,-615,-312.5)"/>
<path style="fill:none;stroke-width:1;stroke-linecap:round;stroke-linejoin:round;stroke:rgb(0%,0%,0%);stroke-opacity:1;stroke-miterlimit:10;" d="M 777.4 306 L 777.4 297.7 " transform="matrix(1.25,0,0,1.25,-615,-312.5)"/>
<path style="fill:none;stroke-width:1;stroke-linecap:butt;stroke-linejoin:miter;stroke:rgb(0%,0%,0%);stroke-opacity:1;stroke-miterlimit:10;" d="M 777.4 293.7 L 777.4 297.7 M 775.9 297.7 L 777.4 293.7 L 778.9 297.7 " transform="matrix(1.25,0,0,1.25,-615,-312.5)"/>
<path style=" stroke:none;fill-rule:nonzero;fill:rgb(0%,0%,0%);fill-opacity:1;" d="M 48.699219 17 L 48.699219 8.953125 L 54.519531 8.953125 L 54.519531 9.890625 L 49.753906 9.890625 L 49.753906 12.371094 L 54.207031 12.371094 L 54.207031 13.308594 L 49.753906 13.308594 L 49.753906 16.042969 L 54.695312 16.042969 L 54.695312 17 Z M 48.699219 17 "/>
<path style=" stroke:none;fill-rule:nonzero;fill:rgb(0%,0%,0%);fill-opacity:1;" d="M 56.046875 17 L 56.046875 11.160156 L 56.945312 11.160156 L 56.945312 12 C 57.359375 11.367188 57.980469 11.042969 58.800781 11.042969 C 59.152344 11.042969 59.46875 11.109375 59.757812 11.238281 C 60.054688 11.355469 60.273438 11.523438 60.421875 11.726562 C 60.5625 11.921875 60.664062 12.164062 60.734375 12.449219 C 60.773438 12.632812 60.792969 12.953125 60.792969 13.40625 L 60.792969 17 L 59.796875 17 L 59.796875 13.445312 C 59.796875 13.046875 59.757812 12.742188 59.679688 12.546875 C 59.601562 12.351562 59.464844 12.195312 59.269531 12.078125 C 59.074219 11.953125 58.84375 11.882812 58.585938 11.882812 C 58.164062 11.882812 57.804688 12.019531 57.492188 12.292969 C 57.1875 12.554688 57.042969 13.0625 57.042969 13.816406 L 57.042969 17 Z M 56.046875 17 "/>
<path style=" stroke:none;fill-rule:nonzero;fill:rgb(0%,0%,0%);fill-opacity:1;" d="M 66.109375 14.871094 L 67.085938 14.988281 C 66.980469 15.667969 66.707031 16.195312 66.265625 16.570312 C 65.824219 16.953125 65.28125 17.136719 64.644531 17.136719 C 63.851562 17.136719 63.210938 16.878906 62.730469 16.355469 C 62.25 15.835938 62.007812 15.085938 62.007812 14.109375 C 62.007812 13.476562 62.113281 12.917969 62.320312 12.449219 C 62.527344 11.980469 62.839844 11.628906 63.257812 11.394531 C 63.6875 11.160156 64.15625 11.042969 64.664062 11.042969 C 65.289062 11.042969 65.804688 11.210938 66.207031 11.53125 C 66.609375 11.84375 66.871094 12.292969 66.988281 12.878906 L 66.03125 13.035156 C 65.941406 12.644531 65.777344 12.351562 65.542969 12.15625 C 65.308594 11.953125 65.027344 11.84375 64.703125 11.84375 C 64.195312 11.84375 63.785156 12.03125 63.472656 12.390625 C 63.171875 12.742188 63.023438 13.304688 63.023438 14.070312 C 63.023438 14.867188 63.171875 15.4375 63.472656 15.789062 C 63.773438 16.140625 64.164062 16.316406 64.644531 16.316406 C 65.035156 16.316406 65.359375 16.199219 65.621094 15.964844 C 65.882812 15.730469 66.042969 15.367188 66.109375 14.871094 Z M 66.109375 14.871094 "/>
<path style=" stroke:none;fill-rule:nonzero;fill:rgb(0%,0%,0%);fill-opacity:1;" d="M 67.554688 14.089844 C 67.554688 13.011719 67.855469 12.210938 68.453125 11.6875 C 68.960938 11.257812 69.574219 11.042969 70.289062 11.042969 C 71.097656 11.042969 71.753906 11.304688 72.261719 11.824219 C 72.769531 12.347656 73.023438 13.070312 73.023438 13.992188 C 73.023438 14.75 72.90625 15.339844 72.671875 15.769531 C 72.449219 16.199219 72.125 16.539062 71.695312 16.785156 C 71.265625 17.019531 70.796875 17.136719 70.289062 17.136719 C 69.46875 17.136719 68.804688 16.878906 68.296875 16.355469 C 67.800781 15.824219 67.554688 15.066406 67.554688 14.089844 Z M 68.570312 14.089844 C 68.570312 14.832031 68.734375 15.394531 69.058594 15.769531 C 69.382812 16.136719 69.792969 16.316406 70.289062 16.316406 C 70.785156 16.316406 71.195312 16.136719 71.519531 15.769531 C 71.84375 15.394531 72.007812 14.820312 72.007812 14.050781 C 72.007812 13.335938 71.84375 12.789062 71.519531 12.410156 C 71.195312 12.035156 70.785156 11.84375 70.289062 11.84375 C 69.792969 11.84375 69.382812 12.035156 69.058594 12.410156 C 68.734375 12.777344 68.570312 13.335938 68.570312 14.089844 Z M 68.570312 14.089844 "/>
<path style=" stroke:none;fill-rule:nonzero;fill:rgb(0%,0%,0%);fill-opacity:1;" d="M 77.972656 17 L 77.972656 16.257812 C 77.59375 16.84375 77.046875 17.136719 76.332031 17.136719 C 75.875 17.136719 75.453125 17.003906 75.0625 16.746094 C 74.671875 16.488281 74.363281 16.132812 74.144531 15.671875 C 73.933594 15.21875 73.832031 14.691406 73.832031 14.089844 C 73.832031 13.503906 73.929688 12.976562 74.125 12.507812 C 74.320312 12.03125 74.605469 11.664062 74.984375 11.414062 C 75.375 11.171875 75.808594 11.042969 76.292969 11.042969 C 76.644531 11.042969 76.957031 11.117188 77.230469 11.257812 C 77.503906 11.40625 77.722656 11.601562 77.894531 11.84375 L 77.894531 8.953125 L 78.890625 8.953125 L 78.890625 17 Z M 74.847656 14.089844 C 74.847656 14.832031 75.003906 15.394531 75.316406 15.769531 C 75.628906 16.136719 76 16.316406 76.429688 16.316406 C 76.859375 16.316406 77.222656 16.140625 77.523438 15.789062 C 77.835938 15.4375 77.992188 14.898438 77.992188 14.167969 C 77.992188 13.375 77.835938 12.789062 77.523438 12.410156 C 77.210938 12.035156 76.832031 11.84375 76.390625 11.84375 C 75.945312 11.84375 75.574219 12.03125 75.277344 12.390625 C 74.988281 12.757812 74.847656 13.324219 74.847656 14.089844 Z M 74.847656 14.089844 "/>
<path style=" stroke:none;fill-rule:nonzero;fill:rgb(0%,0%,0%);fill-opacity:1;" d="M 84.425781 15.125 L 85.460938 15.242188 C 85.289062 15.84375 84.984375 16.3125 84.542969 16.648438 C 84.113281 16.976562 83.558594 17.136719 82.882812 17.136719 C 82.035156 17.136719 81.359375 16.878906 80.851562 16.355469 C 80.355469 15.824219 80.109375 15.082031 80.109375 14.128906 C 80.109375 13.152344 80.363281 12.398438 80.871094 11.863281 C 81.378906 11.316406 82.035156 11.042969 82.84375 11.042969 C 83.625 11.042969 84.253906 11.3125 84.738281 11.84375 C 85.230469 12.367188 85.480469 13.109375 85.480469 14.070312 C 85.480469 14.140625 85.480469 14.226562 85.480469 14.34375 L 81.125 14.34375 C 81.164062 14.984375 81.34375 15.472656 81.671875 15.808594 C 81.996094 16.148438 82.40625 16.316406 82.902344 16.316406 C 83.265625 16.316406 83.570312 16.226562 83.820312 16.042969 C 84.078125 15.847656 84.28125 15.546875 84.425781 15.125 Z M 81.183594 13.523438 L 84.445312 13.523438 C 84.40625 13.03125 84.28125 12.660156 84.074219 12.410156 C 83.761719 12.035156 83.351562 11.84375 82.84375 11.84375 C 82.386719 11.84375 82.003906 12 81.691406 12.3125 C 81.390625 12.617188 81.222656 13.015625 81.183594 13.523438 Z M 81.183594 13.523438 "/>
<path style=" stroke:none;fill-rule:nonzero;fill:rgb(0%,0%,0%);fill-opacity:1;" d="M 86.679688 17 L 86.679688 11.160156 L 87.578125 11.160156 L 87.578125 12.058594 C 87.796875 11.644531 88.007812 11.371094 88.203125 11.238281 C 88.398438 11.109375 88.613281 11.042969 88.847656 11.042969 C 89.167969 11.042969 89.511719 11.148438 89.863281 11.355469 L 89.511719 12.273438 C 89.277344 12.132812 89.03125 12.058594 88.789062 12.058594 C 88.578125 12.058594 88.382812 12.125 88.203125 12.253906 C 88.03125 12.386719 87.910156 12.566406 87.832031 12.800781 C 87.722656 13.152344 87.675781 13.539062 87.675781 13.953125 L 87.675781 17 Z M 86.679688 17 "/>
<path style=" stroke:none;fill-rule:nonzero;fill:rgb(0%,0%,0%);fill-opacity:1;" d="M 273.796875 17 L 273.796875 8.953125 L 276.570312 8.953125 C 277.207031 8.953125 277.6875 8.992188 278.015625 9.070312 C 278.46875 9.179688 278.859375 9.363281 279.1875 9.636719 C 279.617188 10.003906 279.933594 10.46875 280.144531 11.023438 C 280.351562 11.570312 280.457031 12.210938 280.457031 12.9375 C 280.457031 13.554688 280.382812 14.089844 280.242188 14.558594 C 280.097656 15.027344 279.914062 15.417969 279.695312 15.730469 C 279.472656 16.042969 279.226562 16.292969 278.953125 16.472656 C 278.691406 16.644531 278.371094 16.773438 277.996094 16.863281 C 277.628906 16.957031 277.199219 17 276.707031 17 Z M 274.871094 16.042969 L 276.589844 16.042969 C 277.121094 16.042969 277.539062 16 277.839844 15.90625 C 278.136719 15.804688 278.378906 15.664062 278.5625 15.476562 C 278.808594 15.234375 279.003906 14.890625 279.148438 14.460938 C 279.289062 14.03125 279.363281 13.519531 279.363281 12.917969 C 279.363281 12.074219 279.226562 11.429688 278.953125 10.984375 C 278.679688 10.53125 278.339844 10.222656 277.9375 10.066406 C 277.648438 9.949219 277.195312 9.890625 276.570312 9.890625 L 274.871094 9.890625 Z M 274.871094 16.042969 "/>
<path style=" stroke:none;fill-rule:nonzero;fill:rgb(0%,0%,0%);fill-opacity:1;" d="M 285.789062 15.125 L 286.824219 15.242188 C 286.652344 15.84375 286.347656 16.3125 285.90625 16.648438 C 285.476562 16.976562 284.921875 17.136719 284.246094 17.136719 C 283.398438 17.136719 282.722656 16.878906 282.214844 16.355469 C 281.71875 15.824219 281.472656 15.082031 281.472656 14.128906 C 281.472656 13.152344 281.726562 12.398438 282.234375 11.863281 C 282.742188 11.316406 283.398438 11.042969 284.207031 11.042969 C 284.988281 11.042969 285.617188 11.3125 286.101562 11.84375 C 286.59375 12.367188 286.84375 13.109375 286.84375 14.070312 C 286.84375 14.140625 286.84375 14.226562 286.84375 14.34375 L 282.488281 14.34375 C 282.527344 14.984375 282.707031 15.472656 283.035156 15.808594 C 283.359375 16.148438 283.769531 16.316406 284.265625 16.316406 C 284.628906 16.316406 284.933594 16.226562 285.183594 16.042969 C 285.441406 15.847656 285.644531 15.546875 285.789062 15.125 Z M 282.546875 13.523438 L 285.808594 13.523438 C 285.769531 13.03125 285.644531 12.660156 285.4375 12.410156 C 285.125 12.035156 284.714844 11.84375 284.207031 11.84375 C 283.75 11.84375 283.367188 12 283.054688 12.3125 C 282.753906 12.617188 282.585938 13.015625 282.546875 13.523438 Z M 282.546875 13.523438 "/>
<path style=" stroke:none;fill-rule:nonzero;fill:rgb(0%,0%,0%);fill-opacity:1;" d="M 291.871094 14.871094 L 292.847656 14.988281 C 292.738281 15.667969 292.464844 16.195312 292.027344 16.570312 C 291.582031 16.953125 291.039062 17.136719 290.40625 17.136719 C 289.609375 17.136719 288.96875 16.878906 288.492188 16.355469 C 288.007812 15.835938 287.769531 15.085938 287.769531 14.109375 C 287.769531 13.476562 287.871094 12.917969 288.082031 12.449219 C 288.285156 11.980469 288.597656 11.628906 289.019531 11.394531 C 289.449219 11.160156 289.917969 11.042969 290.425781 11.042969 C 291.050781 11.042969 291.5625 11.210938 291.96875 11.53125 C 292.367188 11.84375 292.632812 12.292969 292.75 12.878906 L 291.792969 13.035156 C 291.699219 12.644531 291.539062 12.351562 291.304688 12.15625 C 291.070312 11.953125 290.785156 11.84375 290.464844 11.84375 C 289.957031 11.84375 289.546875 12.03125 289.234375 12.390625 C 288.929688 12.742188 288.785156 13.304688 288.785156 14.070312 C 288.785156 14.867188 288.929688 15.4375 289.234375 15.789062 C 289.53125 16.140625 289.921875 16.316406 290.40625 16.316406 C 290.796875 16.316406 291.117188 16.199219 291.382812 15.964844 C 291.640625 15.730469 291.800781 15.367188 291.871094 14.871094 Z M 291.871094 14.871094 "/>
<path style=" stroke:none;fill-rule:nonzero;fill:rgb(0%,0%,0%);fill-opacity:1;" d="M 293.316406 14.089844 C 293.316406 13.011719 293.613281 12.210938 294.214844 11.6875 C 294.722656 11.257812 295.332031 11.042969 296.050781 11.042969 C 296.855469 11.042969 297.515625 11.304688 298.023438 11.824219 C 298.53125 12.347656 298.785156 13.070312 298.785156 13.992188 C 298.785156 14.75 298.667969 15.339844 298.433594 15.769531 C 298.207031 16.199219 297.886719 16.539062 297.457031 16.785156 C 297.027344 17.019531 296.558594 17.136719 296.050781 17.136719 C 295.230469 17.136719 294.566406 16.878906 294.058594 16.355469 C 293.558594 15.824219 293.316406 15.066406 293.316406 14.089844 Z M 294.332031 14.089844 C 294.332031 14.832031 294.492188 15.394531 294.820312 15.769531 C 295.140625 16.136719 295.550781 16.316406 296.050781 16.316406 C 296.542969 16.316406 296.953125 16.136719 297.28125 15.769531 C 297.601562 15.394531 297.769531 14.820312 297.769531 14.050781 C 297.769531 13.335938 297.601562 12.789062 297.28125 12.410156 C 296.953125 12.035156 296.542969 11.84375 296.050781 11.84375 C 295.550781 11.84375 295.140625 12.035156 294.820312 12.410156 C 294.492188 12.777344 294.332031 13.335938 294.332031 14.089844 Z M 294.332031 14.089844 "/>
<path style=" stroke:none;fill-rule:nonzero;fill:rgb(0%,0%,0%);fill-opacity:1;" d="M 303.734375 17 L 303.734375 16.257812 C 303.351562 16.84375 302.804688 17.136719 302.09375 17.136719 C 301.632812 17.136719 301.214844 17.003906 300.824219 16.746094 C 300.433594 16.488281 300.125 16.132812 299.90625 15.671875 C 299.695312 15.21875 299.59375 14.691406 299.59375 14.089844 C 299.59375 13.503906 299.691406 12.976562 299.886719 12.507812 C 300.082031 12.03125 300.363281 11.664062 300.746094 11.414062 C 301.136719 11.171875 301.570312 11.042969 302.054688 11.042969 C 302.40625 11.042969 302.71875 11.117188 302.992188 11.257812 C 303.265625 11.40625 303.484375 11.601562 303.65625 11.84375 L 303.65625 8.953125 L 304.652344 8.953125 L 304.652344 17 Z M 300.609375 14.089844 C 300.609375 14.832031 300.765625 15.394531 301.078125 15.769531 C 301.390625 16.136719 301.761719 16.316406 302.191406 16.316406 C 302.621094 16.316406 302.980469 16.140625 303.285156 15.789062 C 303.597656 15.4375 303.753906 14.898438 303.753906 14.167969 C 303.753906 13.375 303.597656 12.789062 303.285156 12.410156 C 302.972656 12.035156 302.589844 11.84375 302.152344 11.84375 C 301.707031 11.84375 301.335938 12.03125 301.039062 12.390625 C 300.75 12.757812 300.609375 13.324219 300.609375 14.089844 Z M 300.609375 14.089844 "/>
<path style=" stroke:none;fill-rule:nonzero;fill:rgb(0%,0%,0%);fill-opacity:1;" d="M 310.1875 15.125 L 311.222656 15.242188 C 311.050781 15.84375 310.742188 16.3125 310.304688 16.648438 C 309.875 16.976562 309.316406 17.136719 308.644531 17.136719 C 307.792969 17.136719 307.121094 16.878906 306.613281 16.355469 C 306.113281 15.824219 305.871094 15.082031 305.871094 14.128906 C 305.871094 13.152344 306.125 12.398438 306.632812 11.863281 C 307.140625 11.316406 307.792969 11.042969 308.605469 11.042969 C 309.386719 11.042969 310.015625 11.3125 310.5 11.84375 C 310.992188 12.367188 311.242188 13.109375 311.242188 14.070312 C 311.242188 14.140625 311.242188 14.226562 311.242188 14.34375 L 306.886719 14.34375 C 306.925781 14.984375 307.105469 15.472656 307.433594 15.808594 C 307.753906 16.148438 308.164062 16.316406 308.664062 16.316406 C 309.023438 16.316406 309.332031 16.226562 309.582031 16.042969 C 309.839844 15.847656 310.039062 15.546875 310.1875 15.125 Z M 306.945312 13.523438 L 310.207031 13.523438 C 310.167969 13.03125 310.039062 12.660156 309.835938 12.410156 C 309.523438 12.035156 309.113281 11.84375 308.605469 11.84375 C 308.144531 11.84375 307.765625 12 307.453125 12.3125 C 307.148438 12.617188 306.984375 13.015625 306.945312 13.523438 Z M 306.945312 13.523438 "/>
<path style=" stroke:none;fill-rule:nonzero;fill:rgb(0%,0%,0%);fill-opacity:1;" d="M 312.4375 17 L 312.4375 11.160156 L 313.335938 11.160156 L 313.335938 12.058594 C 313.558594 11.644531 313.765625 11.371094 313.960938 11.238281 C 314.15625 11.109375 314.371094 11.042969 314.605469 11.042969 C 314.929688 11.042969 315.269531 11.148438 315.621094 11.355469 L 315.269531 12.273438 C 315.035156 12.132812 314.792969 12.058594 314.546875 12.058594 C 314.339844 12.058594 314.144531 12.125 313.960938 12.253906 C 313.792969 12.386719 313.667969 12.566406 313.589844 12.800781 C 313.484375 13.152344 313.433594 13.539062 313.433594 13.953125 L 313.433594 17 Z M 312.4375 17 "/>
<path style=" stroke:none;fill-rule:nonzero;fill:rgb(0%,0%,0%);fill-opacity:1;" d="M 185.285156 114.179688 L 185.285156 113.242188 L 190.617188 110.996094 L 190.617188 111.972656 L 186.378906 113.710938 L 190.617188 115.46875 L 190.617188 116.445312 Z M 185.285156 114.179688 "/>
<path style=" stroke:none;fill-rule:nonzero;fill:rgb(0%,0%,0%);fill-opacity:1;" d="M 192.890625 117.695312 L 191.972656 117.695312 L 191.972656 109.648438 L 192.949219 109.648438 L 192.949219 112.519531 C 193.363281 112 193.894531 111.738281 194.550781 111.738281 C 194.910156 111.738281 195.253906 111.8125 195.566406 111.953125 C 195.886719 112.097656 196.15625 112.300781 196.367188 112.558594 C 196.570312 112.820312 196.738281 113.140625 196.855469 113.515625 C 196.972656 113.882812 197.03125 114.273438 197.03125 114.6875 C 197.03125 115.691406 196.78125 116.464844 196.289062 117.011719 C 195.789062 117.558594 195.199219 117.832031 194.511719 117.832031 C 193.816406 117.832031 193.28125 117.546875 192.890625 116.972656 Z M 192.871094 114.726562 C 192.871094 115.429688 192.96875 115.9375 193.164062 116.25 C 193.476562 116.757812 193.890625 117.011719 194.414062 117.011719 C 194.851562 117.011719 195.234375 116.824219 195.546875 116.445312 C 195.859375 116.070312 196.015625 115.507812 196.015625 114.765625 C 196.015625 114.011719 195.863281 113.453125 195.566406 113.085938 C 195.261719 112.722656 194.902344 112.539062 194.472656 112.539062 C 194.027344 112.539062 193.652344 112.730469 193.339844 113.105469 C 193.027344 113.484375 192.871094 114.023438 192.871094 114.726562 Z M 192.871094 114.726562 "/>
<path style=" stroke:none;fill-rule:nonzero;fill:rgb(0%,0%,0%);fill-opacity:1;" d="M 197.855469 114.785156 C 197.855469 113.707031 198.15625 112.90625 198.753906 112.382812 C 199.261719 111.953125 199.875 111.738281 200.589844 111.738281 C 201.398438 111.738281 202.054688 112 202.5625 112.519531 C 203.070312 113.042969 203.324219 113.765625 203.324219 114.6875 C 203.324219 115.445312 203.207031 116.035156 202.972656 116.464844 C 202.75 116.894531 202.425781 117.234375 201.996094 117.480469 C 201.566406 117.714844 201.097656 117.832031 200.589844 117.832031 C 199.769531 117.832031 199.105469 117.574219 198.597656 117.050781 C 198.101562 116.519531 197.855469 115.761719 197.855469 114.785156 Z M 198.871094 114.785156 C 198.871094 115.527344 199.035156 116.089844 199.359375 116.464844 C 199.683594 116.832031 200.09375 117.011719 200.589844 117.011719 C 201.085938 117.011719 201.496094 116.832031 201.820312 116.464844 C 202.144531 116.089844 202.308594 115.515625 202.308594 114.746094 C 202.308594 114.03125 202.144531 113.484375 201.820312 113.105469 C 201.496094 112.730469 201.085938 112.539062 200.589844 112.539062 C 200.09375 112.539062 199.683594 112.730469 199.359375 113.105469 C 199.035156 113.472656 198.871094 114.03125 198.871094 114.785156 Z M 198.871094 114.785156 "/>
<path style=" stroke:none;fill-rule:nonzero;fill:rgb(0%,0%,0%);fill-opacity:1;" d="M 204.09375 115.957031 L 205.070312 115.800781 C 205.121094 116.191406 205.269531 116.492188 205.519531 116.699219 C 205.777344 116.910156 206.128906 117.011719 206.574219 117.011719 C 207.027344 117.011719 207.367188 116.921875 207.589844 116.738281 C 207.808594 116.558594 207.921875 116.34375 207.921875 116.09375 C 207.921875 115.859375 207.824219 115.683594 207.628906 115.566406 C 207.484375 115.476562 207.144531 115.359375 206.613281 115.214844 C 205.882812 115.035156 205.375 114.878906 205.089844 114.746094 C 204.816406 114.617188 204.605469 114.433594 204.464844 114.199219 C 204.320312 113.964844 204.25 113.707031 204.25 113.417969 C 204.25 113.160156 204.308594 112.917969 204.425781 112.695312 C 204.542969 112.476562 204.703125 112.285156 204.914062 112.128906 C 205.070312 112.027344 205.277344 111.933594 205.539062 111.855469 C 205.8125 111.777344 206.097656 111.738281 206.398438 111.738281 C 206.851562 111.738281 207.25 111.804688 207.589844 111.933594 C 207.941406 112.066406 208.199219 112.242188 208.371094 112.460938 C 208.539062 112.683594 208.65625 112.984375 208.722656 113.359375 L 207.746094 113.496094 C 207.707031 113.199219 207.574219 112.964844 207.355469 112.792969 C 207.144531 112.625 206.851562 112.539062 206.476562 112.539062 C 206.019531 112.539062 205.695312 112.617188 205.5 112.773438 C 205.304688 112.917969 205.207031 113.09375 205.207031 113.300781 C 205.207031 113.433594 205.246094 113.542969 205.324219 113.632812 C 205.402344 113.75 205.53125 113.84375 205.714844 113.90625 C 205.804688 113.945312 206.089844 114.03125 206.574219 114.160156 C 207.277344 114.34375 207.765625 114.492188 208.039062 114.609375 C 208.324219 114.726562 208.546875 114.902344 208.703125 115.136719 C 208.859375 115.359375 208.9375 115.640625 208.9375 115.976562 C 208.9375 116.316406 208.839844 116.628906 208.644531 116.914062 C 208.449219 117.203125 208.167969 117.429688 207.804688 117.597656 C 207.453125 117.753906 207.042969 117.832031 206.574219 117.832031 C 205.816406 117.832031 205.238281 117.675781 204.835938 117.363281 C 204.445312 117.039062 204.195312 116.570312 204.09375 115.957031 Z M 204.09375 115.957031 "/>
<path style=" stroke:none;fill-rule:nonzero;fill:rgb(0%,0%,0%);fill-opacity:1;" d="M 215.324219 114.179688 L 209.992188 116.445312 L 209.992188 115.46875 L 214.210938 113.710938 L 209.992188 111.972656 L 209.992188 110.996094 L 215.324219 113.242188 Z M 215.324219 114.179688 "/>
<path style="fill-rule:nonzero;fill:rgb(100%,100%,100%);fill-opacity:1;stroke-width:1;stroke-linecap:round;stroke-linejoin:round;stroke:rgb(0%,0%,0%);stroke-opacity:1;stroke-miterlimit:10;" d="M 809.3125 306 L 833.3125 306 L 833.3125 324 L 809.3125 324 Z M 809.3125 306 " transform="matrix(1.25,0,0,1.25,-615,-312.5)"/>
<path style=" stroke:none;fill-rule:nonzero;fill:rgb(0%,0%,0%);fill-opacity:1;" d="M 396.625 41.914062 L 396.625 40.976562 L 401.957031 38.730469 L 401.957031 39.707031 L 397.71875 41.445312 L 401.957031 43.203125 L 401.957031 44.179688 Z M 396.625 41.914062 "/>
<path style=" stroke:none;fill-rule:nonzero;fill:rgb(0%,0%,0%);fill-opacity:1;" d="M 407.296875 43.554688 L 408.332031 43.671875 C 408.160156 44.273438 407.851562 44.742188 407.414062 45.078125 C 406.984375 45.40625 406.425781 45.566406 405.753906 45.566406 C 404.902344 45.566406 404.230469 45.308594 403.722656 44.785156 C 403.222656 44.253906 402.980469 43.511719 402.980469 42.558594 C 402.980469 41.582031 403.234375 40.832031 403.742188 40.292969 C 404.25 39.746094 404.902344 39.472656 405.714844 39.472656 C 406.496094 39.472656 407.125 39.742188 407.609375 40.273438 C 408.101562 40.796875 408.351562 41.539062 408.351562 42.5 C 408.351562 42.570312 408.351562 42.65625 408.351562 42.773438 L 403.996094 42.773438 C 404.035156 43.414062 404.214844 43.902344 404.542969 44.238281 C 404.863281 44.582031 405.273438 44.746094 405.773438 44.746094 C 406.132812 44.746094 406.441406 44.660156 406.691406 44.472656 C 406.949219 44.277344 407.148438 43.976562 407.296875 43.554688 Z M 404.054688 41.953125 L 407.316406 41.953125 C 407.277344 41.460938 407.148438 41.089844 406.945312 40.839844 C 406.632812 40.464844 406.222656 40.273438 405.714844 40.273438 C 405.253906 40.273438 404.875 40.429688 404.5625 40.742188 C 404.257812 41.046875 404.09375 41.445312 404.054688 41.953125 Z M 404.054688 41.953125 "/>
<path style=" stroke:none;fill-rule:nonzero;fill:rgb(0%,0%,0%);fill-opacity:1;" d="M 409.199219 42.519531 C 409.199219 41.441406 409.496094 40.640625 410.097656 40.117188 C 410.605469 39.6875 411.214844 39.472656 411.933594 39.472656 C 412.738281 39.472656 413.398438 39.738281 413.90625 40.253906 C 414.414062 40.777344 414.667969 41.5 414.667969 42.421875 C 414.667969 43.179688 414.550781 43.769531 414.316406 44.199219 C 414.089844 44.628906 413.769531 44.972656 413.339844 45.214844 C 412.910156 45.449219 412.441406 45.566406 411.933594 45.566406 C 411.113281 45.566406 410.449219 45.308594 409.941406 44.785156 C 409.441406 44.253906 409.199219 43.496094 409.199219 42.519531 Z M 410.214844 42.519531 C 410.214844 43.261719 410.375 43.824219 410.703125 44.199219 C 411.023438 44.566406 411.433594 44.746094 411.933594 44.746094 C 412.425781 44.746094 412.835938 44.566406 413.164062 44.199219 C 413.484375 43.824219 413.652344 43.253906 413.652344 42.480469 C 413.652344 41.769531 413.484375 41.222656 413.164062 40.839844 C 412.835938 40.464844 412.425781 40.273438 411.933594 40.273438 C 411.433594 40.273438 411.023438 40.464844 410.703125 40.839844 C 410.375 41.207031 410.214844 41.769531 410.214844 42.519531 Z M 410.214844 42.519531 "/>
<path style=" stroke:none;fill-rule:nonzero;fill:rgb(0%,0%,0%);fill-opacity:1;" d="M 415.4375 43.691406 L 416.414062 43.535156 C 416.460938 43.925781 416.613281 44.230469 416.863281 44.433594 C 417.121094 44.644531 417.472656 44.746094 417.917969 44.746094 C 418.371094 44.746094 418.707031 44.660156 418.933594 44.472656 C 419.152344 44.292969 419.265625 44.078125 419.265625 43.828125 C 419.265625 43.59375 419.167969 43.417969 418.972656 43.300781 C 418.824219 43.214844 418.488281 43.097656 417.957031 42.949219 C 417.222656 42.769531 416.714844 42.613281 416.433594 42.480469 C 416.160156 42.355469 415.949219 42.167969 415.808594 41.933594 C 415.660156 41.699219 415.59375 41.441406 415.59375 41.152344 C 415.59375 40.894531 415.652344 40.65625 415.769531 40.429688 C 415.886719 40.210938 416.046875 40.019531 416.257812 39.863281 C 416.414062 39.761719 416.617188 39.667969 416.882812 39.589844 C 417.15625 39.511719 417.4375 39.472656 417.742188 39.472656 C 418.195312 39.472656 418.589844 39.542969 418.933594 39.667969 C 419.285156 39.800781 419.542969 39.976562 419.714844 40.195312 C 419.878906 40.421875 419.996094 40.71875 420.066406 41.09375 L 419.089844 41.230469 C 419.050781 40.933594 418.917969 40.699219 418.699219 40.527344 C 418.488281 40.363281 418.195312 40.273438 417.820312 40.273438 C 417.359375 40.273438 417.039062 40.351562 416.84375 40.507812 C 416.648438 40.65625 416.550781 40.832031 416.550781 41.035156 C 416.550781 41.167969 416.589844 41.28125 416.667969 41.367188 C 416.746094 41.484375 416.871094 41.578125 417.058594 41.640625 C 417.144531 41.679688 417.433594 41.769531 417.917969 41.894531 C 418.621094 42.082031 419.109375 42.226562 419.382812 42.34375 C 419.664062 42.460938 419.890625 42.636719 420.046875 42.871094 C 420.203125 43.097656 420.28125 43.375 420.28125 43.710938 C 420.28125 44.054688 420.183594 44.367188 419.988281 44.648438 C 419.792969 44.9375 419.507812 45.167969 419.148438 45.332031 C 418.796875 45.488281 418.386719 45.566406 417.917969 45.566406 C 417.160156 45.566406 416.578125 45.410156 416.179688 45.097656 C 415.789062 44.777344 415.539062 44.308594 415.4375 43.691406 Z M 415.4375 43.691406 "/>
<path style=" stroke:none;fill-rule:nonzero;fill:rgb(0%,0%,0%);fill-opacity:1;" d="M 426.667969 41.914062 L 421.335938 44.179688 L 421.335938 43.203125 L 425.554688 41.445312 L 421.335938 39.707031 L 421.335938 38.730469 L 426.667969 40.976562 Z M 426.667969 41.914062 "/>
<path style="fill:none;stroke-width:1;stroke-linecap:round;stroke-linejoin:round;stroke:rgb(0%,0%,0%);stroke-opacity:1;stroke-miterlimit:10;" d="M 821.3125 306 L 821.3125 297.246875 " transform="matrix(1.25,0,0,1.25,-615,-312.5)"/>
<path style="fill:none;stroke-width:1;stroke-linecap:butt;stroke-linejoin:miter;stroke:rgb(0%,0%,0%);stroke-opacity:1;stroke-miterlimit:10;" d="M 821.3125 293.246875 L 821.3125 297.246875 M 819.8125 297.246875 L 821.3125 293.246875 L 822.8125 297.246875 " transform="matrix(1.25,0,0,1.25,-615,-312.5)"/>
<path style=" stroke:none;fill-rule:nonzero;fill:rgb(0%,0%,0%);fill-opacity:1;" d="M 140.0625 75.492188 L 140.0625 67.445312 L 141.058594 67.445312 L 141.058594 70.335938 C 141.511719 69.804688 142.09375 69.535156 142.796875 69.535156 C 143.226562 69.535156 143.597656 69.625 143.910156 69.789062 C 144.234375 69.960938 144.460938 70.195312 144.59375 70.492188 C 144.734375 70.796875 144.808594 71.230469 144.808594 71.800781 L 144.808594 75.492188 L 143.832031 75.492188 L 143.832031 71.800781 C 143.832031 71.308594 143.71875 70.953125 143.5 70.726562 C 143.289062 70.492188 142.992188 70.375 142.601562 70.375 C 142.300781 70.375 142.019531 70.453125 141.761719 70.609375 C 141.5 70.757812 141.316406 70.957031 141.214844 71.214844 C 141.109375 71.480469 141.058594 71.839844 141.058594 72.308594 L 141.058594 75.492188 Z M 140.0625 75.492188 "/>
<path style=" stroke:none;fill-rule:nonzero;fill:rgb(0%,0%,0%);fill-opacity:1;" d="M 146.320312 68.578125 L 146.320312 67.445312 L 147.316406 67.445312 L 147.316406 68.578125 Z M 146.320312 75.492188 L 146.320312 69.652344 L 147.316406 69.652344 L 147.316406 75.492188 Z M 146.320312 75.492188 "/>
<path style=" stroke:none;fill-rule:nonzero;fill:rgb(0%,0%,0%);fill-opacity:1;" d="M 152.609375 75.492188 L 152.609375 74.75 C 152.226562 75.335938 151.679688 75.628906 150.96875 75.628906 C 150.507812 75.628906 150.089844 75.496094 149.699219 75.238281 C 149.308594 74.980469 149 74.625 148.78125 74.164062 C 148.570312 73.710938 148.46875 73.183594 148.46875 72.582031 C 148.46875 71.996094 148.566406 71.46875 148.761719 71 C 148.957031 70.523438 149.242188 70.15625 149.621094 69.90625 C 150.011719 69.664062 150.445312 69.535156 150.929688 69.535156 C 151.28125 69.535156 151.59375 69.609375 151.867188 69.75 C 152.140625 69.898438 152.359375 70.09375 152.53125 70.335938 L 152.53125 67.445312 L 153.527344 67.445312 L 153.527344 75.492188 Z M 149.484375 72.582031 C 149.484375 73.324219 149.640625 73.886719 149.953125 74.261719 C 150.265625 74.628906 150.636719 74.808594 151.066406 74.808594 C 151.496094 74.808594 151.859375 74.632812 152.160156 74.28125 C 152.472656 73.929688 152.628906 73.394531 152.628906 72.660156 C 152.628906 71.871094 152.472656 71.285156 152.160156 70.902344 C 151.847656 70.527344 151.46875 70.335938 151.027344 70.335938 C 150.582031 70.335938 150.210938 70.523438 149.914062 70.882812 C 149.625 71.25 149.484375 71.816406 149.484375 72.582031 Z M 149.484375 72.582031 "/>
<path style=" stroke:none;fill-rule:nonzero;fill:rgb(0%,0%,0%);fill-opacity:1;" d="M 158.867188 75.492188 L 158.867188 74.75 C 158.484375 75.335938 157.9375 75.628906 157.226562 75.628906 C 156.765625 75.628906 156.347656 75.496094 155.957031 75.238281 C 155.566406 74.980469 155.257812 74.625 155.039062 74.164062 C 154.828125 73.710938 154.726562 73.183594 154.726562 72.582031 C 154.726562 71.996094 154.824219 71.46875 155.019531 71 C 155.214844 70.523438 155.496094 70.15625 155.878906 69.90625 C 156.269531 69.664062 156.703125 69.535156 157.1875 69.535156 C 157.539062 69.535156 157.851562 69.609375 158.125 69.75 C 158.398438 69.898438 158.617188 70.09375 158.789062 70.335938 L 158.789062 67.445312 L 159.785156 67.445312 L 159.785156 75.492188 Z M 155.742188 72.582031 C 155.742188 73.324219 155.898438 73.886719 156.210938 74.261719 C 156.523438 74.628906 156.894531 74.808594 157.324219 74.808594 C 157.753906 74.808594 158.113281 74.632812 158.417969 74.28125 C 158.730469 73.929688 158.886719 73.394531 158.886719 72.660156 C 158.886719 71.871094 158.730469 71.285156 158.417969 70.902344 C 158.105469 70.527344 157.722656 70.335938 157.285156 70.335938 C 156.839844 70.335938 156.46875 70.523438 156.171875 70.882812 C 155.882812 71.25 155.742188 71.816406 155.742188 72.582031 Z M 155.742188 72.582031 "/>
<path style=" stroke:none;fill-rule:nonzero;fill:rgb(0%,0%,0%);fill-opacity:1;" d="M 165.320312 73.617188 L 166.355469 73.734375 C 166.183594 74.335938 165.875 74.804688 165.4375 75.140625 C 165.007812 75.46875 164.449219 75.628906 163.777344 75.628906 C 162.925781 75.628906 162.253906 75.371094 161.746094 74.847656 C 161.246094 74.316406 161.003906 73.574219 161.003906 72.621094 C 161.003906 71.644531 161.257812 70.894531 161.765625 70.355469 C 162.273438 69.808594 162.925781 69.535156 163.738281 69.535156 C 164.519531 69.535156 165.148438 69.804688 165.632812 70.335938 C 166.125 70.859375 166.375 71.601562 166.375 72.5625 C 166.375 72.632812 166.375 72.71875 166.375 72.835938 L 162.019531 72.835938 C 162.058594 73.476562 162.238281 73.964844 162.566406 74.300781 C 162.886719 74.644531 163.296875 74.808594 163.796875 74.808594 C 164.15625 74.808594 164.464844 74.722656 164.714844 74.535156 C 164.972656 74.339844 165.171875 74.039062 165.320312 73.617188 Z M 162.078125 72.015625 L 165.339844 72.015625 C 165.300781 71.523438 165.171875 71.152344 164.96875 70.902344 C 164.65625 70.527344 164.246094 70.335938 163.738281 70.335938 C 163.277344 70.335938 162.898438 70.492188 162.585938 70.804688 C 162.28125 71.109375 162.117188 71.507812 162.078125 72.015625 Z M 162.078125 72.015625 "/>
<path style=" stroke:none;fill-rule:nonzero;fill:rgb(0%,0%,0%);fill-opacity:1;" d="M 167.59375 75.492188 L 167.59375 69.652344 L 168.492188 69.652344 L 168.492188 70.492188 C 168.90625 69.859375 169.527344 69.535156 170.347656 69.535156 C 170.699219 69.535156 171.015625 69.605469 171.304688 69.730469 C 171.601562 69.847656 171.820312 70.015625 171.96875 70.21875 C 172.109375 70.414062 172.210938 70.660156 172.28125 70.941406 C 172.320312 71.128906 172.339844 71.445312 172.339844 71.898438 L 172.339844 75.492188 L 171.34375 75.492188 L 171.34375 71.9375 C 171.34375 71.539062 171.304688 71.234375 171.226562 71.039062 C 171.148438 70.84375 171.011719 70.6875 170.816406 70.570312 C 170.621094 70.445312 170.390625 70.375 170.132812 70.375 C 169.710938 70.375 169.351562 70.511719 169.039062 70.785156 C 168.734375 71.050781 168.589844 71.558594 168.589844 72.308594 L 168.589844 75.492188 Z M 167.59375 75.492188 "/>
<path style=" stroke:none;fill-rule:nonzero;fill:rgb(0%,0%,0%);fill-opacity:1;" d="M 144.371094 93.246094 L 145.347656 93.089844 C 145.394531 93.480469 145.546875 93.785156 145.796875 93.988281 C 146.054688 94.199219 146.40625 94.300781 146.851562 94.300781 C 147.304688 94.300781 147.640625 94.214844 147.867188 94.027344 C 148.085938 93.847656 148.199219 93.632812 148.199219 93.382812 C 148.199219 93.148438 148.101562 92.972656 147.90625 92.855469 C 147.757812 92.769531 147.421875 92.652344 146.890625 92.503906 C 146.15625 92.324219 145.648438 92.167969 145.367188 92.035156 C 145.09375 91.910156 144.882812 91.722656 144.742188 91.488281 C 144.59375 91.253906 144.527344 90.996094 144.527344 90.707031 C 144.527344 90.449219 144.585938 90.210938 144.703125 89.984375 C 144.820312 89.765625 144.980469 89.574219 145.191406 89.417969 C 145.347656 89.316406 145.550781 89.222656 145.816406 89.144531 C 146.089844 89.066406 146.371094 89.027344 146.675781 89.027344 C 147.128906 89.027344 147.523438 89.097656 147.867188 89.222656 C 148.21875 89.355469 148.476562 89.53125 148.648438 89.75 C 148.8125 89.976562 148.929688 90.273438 149 90.648438 L 148.023438 90.785156 C 147.984375 90.488281 147.851562 90.253906 147.632812 90.082031 C 147.421875 89.917969 147.128906 89.828125 146.753906 89.828125 C 146.292969 89.828125 145.972656 89.90625 145.777344 90.0625 C 145.582031 90.210938 145.484375 90.386719 145.484375 90.589844 C 145.484375 90.722656 145.523438 90.835938 145.601562 90.921875 C 145.679688 91.039062 145.804688 91.132812 145.992188 91.195312 C 146.078125 91.234375 146.367188 91.324219 146.851562 91.449219 C 147.554688 91.636719 148.042969 91.78125 148.316406 91.898438 C 148.597656 92.015625 148.824219 92.191406 148.980469 92.425781 C 149.136719 92.652344 149.214844 92.929688 149.214844 93.265625 C 149.214844 93.609375 149.117188 93.921875 148.921875 94.203125 C 148.726562 94.492188 148.441406 94.722656 148.082031 94.886719 C 147.730469 95.042969 147.320312 95.121094 146.851562 95.121094 C 146.09375 95.121094 145.511719 94.964844 145.113281 94.652344 C 144.722656 94.332031 144.472656 93.863281 144.371094 93.246094 Z M 144.371094 93.246094 "/>
<path style=" stroke:none;fill-rule:nonzero;fill:rgb(0%,0%,0%);fill-opacity:1;" d="M 152.554688 94.105469 L 152.691406 94.964844 C 152.402344 95.03125 152.152344 95.0625 151.949219 95.0625 C 151.582031 95.0625 151.304688 95.003906 151.109375 94.886719 C 150.914062 94.769531 150.765625 94.625 150.679688 94.4375 C 150.601562 94.257812 150.5625 93.871094 150.5625 93.285156 L 150.5625 89.925781 L 149.839844 89.925781 L 149.839844 89.144531 L 150.5625 89.144531 L 150.5625 87.699219 L 151.558594 87.113281 L 151.558594 89.144531 L 152.554688 89.144531 L 152.554688 89.925781 L 151.558594 89.925781 L 151.558594 93.324219 C 151.558594 93.613281 151.566406 93.792969 151.597656 93.871094 C 151.636719 93.949219 151.695312 94.019531 151.773438 94.066406 C 151.851562 94.121094 151.957031 94.144531 152.105469 94.144531 C 152.222656 94.144531 152.367188 94.136719 152.554688 94.105469 Z M 152.554688 94.105469 "/>
<path style=" stroke:none;fill-rule:nonzero;fill:rgb(0%,0%,0%);fill-opacity:1;" d="M 157.320312 94.261719 C 156.953125 94.574219 156.601562 94.800781 156.265625 94.925781 C 155.921875 95.054688 155.5625 95.121094 155.171875 95.121094 C 154.53125 95.121094 154.039062 94.964844 153.6875 94.652344 C 153.34375 94.339844 153.179688 93.941406 153.179688 93.441406 C 153.179688 93.160156 153.242188 92.894531 153.375 92.660156 C 153.5 92.425781 153.671875 92.242188 153.882812 92.09375 C 154.085938 91.953125 154.320312 91.839844 154.585938 91.761719 C 154.78125 91.722656 155.074219 91.679688 155.464844 91.625 C 156.269531 91.539062 156.859375 91.421875 157.242188 91.273438 C 157.242188 91.148438 157.242188 91.058594 157.242188 91.019531 C 157.242188 90.621094 157.148438 90.335938 156.96875 90.179688 C 156.703125 89.945312 156.328125 89.828125 155.835938 89.828125 C 155.367188 89.828125 155.019531 89.917969 154.800781 90.082031 C 154.574219 90.238281 154.414062 90.527344 154.3125 90.941406 L 153.355469 90.824219 C 153.433594 90.410156 153.570312 90.078125 153.765625 89.828125 C 153.96875 89.570312 154.261719 89.375 154.644531 89.242188 C 155.035156 89.101562 155.472656 89.027344 155.972656 89.027344 C 156.480469 89.027344 156.878906 89.085938 157.183594 89.203125 C 157.496094 89.320312 157.71875 89.472656 157.867188 89.652344 C 158.023438 89.824219 158.125 90.042969 158.179688 90.316406 C 158.21875 90.488281 158.238281 90.785156 158.238281 91.214844 L 158.238281 92.542969 C 158.238281 93.457031 158.257812 94.039062 158.296875 94.28125 C 158.335938 94.53125 158.417969 94.765625 158.550781 94.984375 L 157.515625 94.984375 C 157.40625 94.78125 157.34375 94.535156 157.320312 94.261719 Z M 157.242188 92.054688 C 156.875 92.203125 156.332031 92.324219 155.621094 92.425781 C 155.214844 92.496094 154.925781 92.5625 154.761719 92.640625 C 154.589844 92.710938 154.457031 92.8125 154.371094 92.953125 C 154.277344 93.101562 154.234375 93.257812 154.234375 93.421875 C 154.234375 93.6875 154.332031 93.90625 154.527344 94.085938 C 154.722656 94.257812 155.015625 94.339844 155.40625 94.339844 C 155.78125 94.339844 156.117188 94.257812 156.421875 94.085938 C 156.71875 93.921875 156.9375 93.691406 157.085938 93.402344 C 157.1875 93.183594 157.242188 92.855469 157.242188 92.425781 Z M 157.242188 92.054688 "/>
<path style=" stroke:none;fill-rule:nonzero;fill:rgb(0%,0%,0%);fill-opacity:1;" d="M 161.933594 94.105469 L 162.070312 94.964844 C 161.785156 95.03125 161.535156 95.0625 161.328125 95.0625 C 160.964844 95.0625 160.683594 95.003906 160.488281 94.886719 C 160.292969 94.769531 160.148438 94.625 160.058594 94.4375 C 159.980469 94.257812 159.941406 93.871094 159.941406 93.285156 L 159.941406 89.925781 L 159.21875 89.925781 L 159.21875 89.144531 L 159.941406 89.144531 L 159.941406 87.699219 L 160.9375 87.113281 L 160.9375 89.144531 L 161.933594 89.144531 L 161.933594 89.925781 L 160.9375 89.925781 L 160.9375 93.324219 C 160.9375 93.613281 160.949219 93.792969 160.976562 93.871094 C 161.015625 93.949219 161.074219 94.019531 161.152344 94.066406 C 161.230469 94.121094 161.339844 94.144531 161.484375 94.144531 C 161.601562 94.144531 161.75 94.136719 161.933594 94.105469 Z M 161.933594 94.105469 "/>
<path style=" stroke:none;fill-rule:nonzero;fill:rgb(0%,0%,0%);fill-opacity:1;" d="M 166.878906 93.109375 L 167.914062 93.226562 C 167.742188 93.828125 167.433594 94.296875 166.996094 94.632812 C 166.566406 94.960938 166.007812 95.121094 165.335938 95.121094 C 164.484375 95.121094 163.8125 94.863281 163.304688 94.339844 C 162.804688 93.808594 162.5625 93.066406 162.5625 92.113281 C 162.5625 91.136719 162.816406 90.386719 163.324219 89.847656 C 163.832031 89.300781 164.484375 89.027344 165.296875 89.027344 C 166.078125 89.027344 166.707031 89.296875 167.191406 89.828125 C 167.683594 90.351562 167.933594 91.09375 167.933594 92.054688 C 167.933594 92.125 167.933594 92.210938 167.933594 92.328125 L 163.578125 92.328125 C 163.617188 92.96875 163.796875 93.457031 164.125 93.792969 C 164.445312 94.136719 164.855469 94.300781 165.355469 94.300781 C 165.714844 94.300781 166.023438 94.214844 166.273438 94.027344 C 166.53125 93.832031 166.730469 93.53125 166.878906 93.109375 Z M 163.636719 91.507812 L 166.898438 91.507812 C 166.859375 91.015625 166.730469 90.644531 166.527344 90.394531 C 166.214844 90.019531 165.804688 89.828125 165.296875 89.828125 C 164.835938 89.828125 164.457031 89.984375 164.144531 90.296875 C 163.839844 90.601562 163.675781 91 163.636719 91.507812 Z M 163.636719 91.507812 "/>
<path style="fill:none;stroke-width:1;stroke-linecap:round;stroke-linejoin:round;stroke:rgb(0%,0%,0%);stroke-opacity:1;stroke-miterlimit:10;" d="M 694.04375 306 L 694.075 303.7625 C 694.1 301.565625 695.890625 299.80625 698.0875 299.8125 L 710.346875 299.85 C 712.55 299.859375 714.3375 301.65 714.3375 303.85 L 714.3375 309.5 M 714.3375 320.5 L 714.3375 330.14375 C 714.3375 332.34375 716.109375 334.128125 718.30625 334.14375 L 731.7375 334.24375 C 733.8875 334.2625 735.6625 332.578125 735.765625 330.43125 L 735.7875 329.89375 " transform="matrix(1.25,0,0,1.25,-615,-312.5)"/>
<path style="fill:none;stroke-width:1;stroke-linecap:butt;stroke-linejoin:miter;stroke:rgb(0%,0%,0%);stroke-opacity:1;stroke-miterlimit:10;" d="M 735.975 325.9 L 735.7875 329.89375 M 734.29375 329.825 L 735.975 325.9 L 737.2875 329.965625 " transform="matrix(1.25,0,0,1.25,-615,-312.5)"/>
<path style="fill:none;stroke-width:1;stroke-linecap:round;stroke-linejoin:round;stroke:rgb(0%,0%,0%);stroke-opacity:1;stroke-miterlimit:10;" d="M 736.64375 306 L 736.68125 303.85 C 736.71875 301.66875 738.5 299.91875 740.684375 299.921875 L 751.8125 299.93125 C 754.01875 299.934375 755.809375 301.721875 755.809375 303.93125 L 755.809375 309.5 M 755.809375 320.5 L 755.809375 330.2125 C 755.809375 332.409375 757.58125 334.19375 759.78125 334.2125 L 773.1 334.309375 C 775.29375 334.325 777.090625 332.575 777.128125 330.378125 L 777.1375 329.9 " transform="matrix(1.25,0,0,1.25,-615,-312.5)"/>
<path style="fill:none;stroke-width:1;stroke-linecap:butt;stroke-linejoin:miter;stroke:rgb(0%,0%,0%);stroke-opacity:1;stroke-miterlimit:10;" d="M 777.20625 325.9 L 777.1375 329.9 M 775.6375 329.871875 L 777.20625 325.9 L 778.6375 329.925 " transform="matrix(1.25,0,0,1.25,-615,-312.5)"/>
<path style="fill:none;stroke-width:1;stroke-linecap:round;stroke-linejoin:round;stroke:rgb(0%,0%,0%);stroke-opacity:1;stroke-miterlimit:10;" d="M 652.565625 306 L 652.54375 303.79375 C 652.51875 301.58125 654.29375 299.775 656.5 299.75 C 656.515625 299.75 656.528125 299.75 656.54375 299.75 L 668.25 299.75 C 670.4625 299.75 672.25 301.5375 672.25 303.75 L 672.25 309.5 M 672.25 320.5 L 672.25 330.028125 C 672.25 332.225 674.025 334.0125 676.21875 334.028125 L 689.559375 334.125 C 691.746875 334.14375 693.5375 332.403125 693.5875 330.215625 L 693.59375 329.9 " transform="matrix(1.25,0,0,1.25,-615,-312.5)"/>
<path style="fill:none;stroke-width:1;stroke-linecap:butt;stroke-linejoin:miter;stroke:rgb(0%,0%,0%);stroke-opacity:1;stroke-miterlimit:10;" d="M 693.684375 325.9 L 693.59375 329.9 M 692.09375 329.86875 L 693.684375 325.9 L 695.09375 329.934375 " transform="matrix(1.25,0,0,1.25,-615,-312.5)"/>
<path style="fill:none;stroke-width:1;stroke-linecap:round;stroke-linejoin:round;stroke:rgb(0%,0%,0%);stroke-opacity:1;stroke-miterlimit:10;" d="M 777.4625 306 L 777.471875 303.725 C 777.4875 301.546875 779.246875 299.778125 781.425 299.753125 L 795.5625 299.58125 C 797.76875 299.55625 799.58125 301.325 799.609375 303.53125 C 799.609375 303.546875 799.609375 303.5625 799.609375 303.578125 L 799.609375 309.5 M 799.609375 320.5 L 799.609375 329.809375 C 799.609375 332.00625 801.38125 333.79375 803.58125 333.809375 L 816.925 333.90625 C 819.109375 333.921875 820.903125 332.1875 820.953125 330.003125 L 820.95625 329.9 " transform="matrix(1.25,0,0,1.25,-615,-312.5)"/>
<path style="fill:none;stroke-width:1;stroke-linecap:butt;stroke-linejoin:miter;stroke:rgb(0%,0%,0%);stroke-opacity:1;stroke-miterlimit:10;" d="M 821.05 325.9 L 820.95625 329.9 M 819.45625 329.8625 L 821.05 325.9 L 822.45625 329.934375 " transform="matrix(1.25,0,0,1.25,-615,-312.5)"/>
<path style="fill:none;stroke-width:1;stroke-linecap:round;stroke-linejoin:round;stroke:rgb(0%,0%,0%);stroke-opacity:1;stroke-miterlimit:10;" d="M 664.659375 315 L 676.025 315 " transform="matrix(1.25,0,0,1.25,-615,-312.5)"/>
<path style="fill:none;stroke-width:1;stroke-linecap:butt;stroke-linejoin:miter;stroke:rgb(0%,0%,0%);stroke-opacity:1;stroke-miterlimit:10;" d="M 680.025 315 L 676.025 315 M 676.025 313.5 L 680.025 315 L 676.025 316.5 " transform="matrix(1.25,0,0,1.25,-615,-312.5)"/>
<path style="fill:none;stroke-width:1;stroke-linecap:round;stroke-linejoin:round;stroke:rgb(0%,0%,0%);stroke-opacity:1;stroke-miterlimit:10;" d="M 705.925 315 L 718.5875 315 " transform="matrix(1.25,0,0,1.25,-615,-312.5)"/>
<path style="fill:none;stroke-width:1;stroke-linecap:butt;stroke-linejoin:miter;stroke:rgb(0%,0%,0%);stroke-opacity:1;stroke-miterlimit:10;" d="M 722.5875 315 L 718.5875 315 M 718.5875 313.5 L 722.5875 315 L 718.5875 316.5 " transform="matrix(1.25,0,0,1.25,-615,-312.5)"/>
<path style="fill:none;stroke-width:1;stroke-linecap:round;stroke-linejoin:round;stroke:rgb(0%,0%,0%);stroke-opacity:1;stroke-miterlimit:10;" d="M 748.484375 315 L 759.5 315 " transform="matrix(1.25,0,0,1.25,-615,-312.5)"/>
<path style="fill:none;stroke-width:1;stroke-linecap:butt;stroke-linejoin:miter;stroke:rgb(0%,0%,0%);stroke-opacity:1;stroke-miterlimit:10;" d="M 763.5 315 L 759.5 315 M 759.5 313.5 L 763.5 315 L 759.5 316.5 " transform="matrix(1.25,0,0,1.25,-615,-312.5)"/>
<path style="fill:none;stroke-width:1;stroke-linecap:round;stroke-linejoin:round;stroke:rgb(0%,0%,0%);stroke-opacity:1;stroke-miterlimit:10;" d="M 789.4 315 L 803.409375 315 " transform="matrix(1.25,0,0,1.25,-615,-312.5)"/>
<path style="fill:none;stroke-width:1;stroke-linecap:butt;stroke-linejoin:miter;stroke:rgb(0%,0%,0%);stroke-opacity:1;stroke-miterlimit:10;" d="M 807.409375 315 L 803.409375 315 M 803.409375 313.5 L 807.409375 315 L 803.409375 316.5 " transform="matrix(1.25,0,0,1.25,-615,-312.5)"/>
</g>
</svg>
